<svg width="21" height="6" viewBox="0 0 21 6" fill="none" xmlns="http://www.w3.org/2000/svg">
<path d="M0.657167 1.13726V0.199688H2.40875V5.49805H1.36216V1.13726H0.657167ZM3.41395 2.77982C3.41395 1.94158 3.56415 1.28504 3.86456 0.810198C4.16982 0.335357 4.67373 0.097936 5.3763 0.097936C6.07887 0.097936 6.58036 0.335357 6.88077 0.810198C7.18603 1.28504 7.33866 1.94158 7.33866 2.77982C7.33866 3.62291 7.18603 4.28429 6.88077 4.76398C6.58036 5.24367 6.07887 5.48351 5.3763 5.48351C4.67373 5.48351 4.16982 5.24367 3.86456 4.76398C3.56415 4.28429 3.41395 3.62291 3.41395 2.77982ZM6.33568 2.77982C6.33568 2.42127 6.31145 2.12086 6.263 1.87859C6.21939 1.63148 6.12733 1.4304 5.98681 1.27535C5.85114 1.1203 5.64764 1.04277 5.3763 1.04277C5.10496 1.04277 4.89904 1.1203 4.75852 1.27535C4.62285 1.4304 4.53079 1.63148 4.48234 1.87859C4.43873 2.12086 4.41693 2.42127 4.41693 2.77982C4.41693 3.14807 4.43873 3.45817 4.48234 3.71012C4.52595 3.95723 4.61801 4.15832 4.75852 4.31337C4.89904 4.46357 5.10496 4.53867 5.3763 4.53867C5.64764 4.53867 5.85357 4.46357 5.99408 4.31337C6.13459 4.15832 6.22666 3.95723 6.27026 3.71012C6.31387 3.45817 6.33568 3.14807 6.33568 2.77982ZM9.69905 3.48482C9.69905 3.06812 9.78384 2.70472 9.95343 2.39462C10.123 2.07967 10.358 1.83741 10.6584 1.66782C10.9588 1.49339 11.3028 1.40617 11.6905 1.40617C12.1895 1.40617 12.6014 1.53215 12.926 1.78411C13.2555 2.03122 13.476 2.38008 13.5874 2.8307H12.49C12.4318 2.65627 12.3325 2.5206 12.192 2.42369C12.0563 2.32194 11.8867 2.27106 11.6832 2.27106C11.3925 2.27106 11.1623 2.37766 10.9927 2.59085C10.8232 2.7992 10.7384 3.09719 10.7384 3.48482C10.7384 3.8676 10.8232 4.16558 10.9927 4.37878C11.1623 4.58713 11.3925 4.6913 11.6832 4.6913C12.0951 4.6913 12.364 4.50718 12.49 4.13893H13.5874C13.476 4.57501 13.2555 4.92145 12.926 5.17826C12.5965 5.43506 12.1847 5.56346 11.6905 5.56346C11.3028 5.56346 10.9588 5.47867 10.6584 5.30908C10.358 5.13465 10.123 4.89238 9.95343 4.58228C9.78384 4.26734 9.69905 3.90151 9.69905 3.48482ZM19.3332 1.41344C19.8274 1.41344 20.2248 1.56607 20.5252 1.87132C20.8304 2.17173 20.983 2.59328 20.983 3.13595V5.49805H19.9655V3.27404C19.9655 2.9591 19.8856 2.71925 19.7257 2.55451C19.5658 2.38493 19.3477 2.30013 19.0716 2.30013C18.7954 2.30013 18.5749 2.38493 18.4102 2.55451C18.2503 2.71925 18.1703 2.9591 18.1703 3.27404V5.49805H17.1528V3.27404C17.1528 2.9591 17.0729 2.71925 16.913 2.55451C16.7531 2.38493 16.535 2.30013 16.2589 2.30013C15.9778 2.30013 15.7549 2.38493 15.5902 2.55451C15.4303 2.71925 15.3504 2.9591 15.3504 3.27404V5.49805H14.3328V1.47158H15.3504V1.95854C15.4812 1.78895 15.6483 1.65571 15.8518 1.5588C16.0602 1.46189 16.2879 1.41344 16.535 1.41344C16.85 1.41344 17.131 1.48128 17.3781 1.61694C17.6252 1.74777 17.8166 1.93674 17.9523 2.18385C18.0831 1.95127 18.2721 1.76473 18.5192 1.62421C18.7712 1.4837 19.0425 1.41344 19.3332 1.41344Z" fill="#1D1B19"/>
</svg>
