<svg width="64" height="64" viewBox="0 0 64 64" fill="none" xmlns="http://www.w3.org/2000/svg">
<path fill-rule="evenodd" clip-rule="evenodd" d="M63.572 25.887L60.035 32L63.5688 38.1129C63.7798 38.4772 63.9169 38.8795 63.9724 39.2969C64.0278 39.7142 64.0004 40.1383 63.8918 40.5451C63.7832 40.9518 63.5955 41.3332 63.3394 41.6673C63.0833 42.0015 62.7639 42.2819 62.3994 42.4926L56.2801 46.0296V53.0749C56.2801 53.9246 55.9425 54.7395 55.3417 55.3403C54.7408 55.9412 53.9259 56.2787 53.0762 56.2787H46.0309L42.4971 62.3981C42.0711 63.1327 41.3711 63.6684 40.5507 63.8876C39.7302 64.1069 38.8563 63.9917 38.1206 63.5675L32.0013 60.0304L25.8883 63.5675C25.395 63.8526 24.8407 64 24.2832 64C23.7215 63.9968 23.1703 63.8474 22.6838 63.5665C22.1973 63.2856 21.7923 62.883 21.5087 62.3981L17.9716 56.2787H10.9232C10.0735 56.2787 9.25855 55.9412 8.65771 55.3403C8.05687 54.7395 7.71932 53.9246 7.71932 53.0749V46.0296L1.59997 42.4926C0.866945 42.0642 0.332993 41.3634 0.114534 40.543C-0.103925 39.7226 0.0108266 38.8491 0.433771 38.1129L3.97082 32L0.433771 25.887C0.221928 25.5229 0.0841149 25.1206 0.0282472 24.7031C-0.0276204 24.2855 -0.000440818 23.8611 0.108225 23.4541C0.21689 23.0472 0.4049 22.6657 0.661451 22.3316C0.918003 21.9975 1.23804 21.7174 1.60318 21.5074L7.72253 17.9703V10.925C7.72253 10.0753 8.06008 9.26041 8.66091 8.65957C9.26175 8.05874 10.0767 7.72119 10.9264 7.72119H17.9716L21.5087 1.60184C21.9336 0.865999 22.6333 0.329071 23.4541 0.109166C24.2748 -0.110739 25.1493 0.00438982 25.8851 0.429228L32.0045 3.96948L38.1238 0.432432C38.4878 0.220778 38.8902 0.0834726 39.3076 0.0284761C39.725 -0.0265205 40.1492 0.00188512 40.5556 0.112047C41.3749 0.334731 42.0735 0.871091 42.5003 1.60504L46.0341 7.72119H53.0794C53.9291 7.72119 54.744 8.05874 55.3449 8.65957C55.9457 9.26041 56.2833 10.0753 56.2833 10.925V17.9735L62.4026 21.5106C63.1379 21.936 63.6742 22.636 63.8935 23.4567C64.1127 24.2774 63.9971 25.1515 63.572 25.887Z" fill="#FFBD00"/>
<path d="M23.8274 18.032L19.5714 28H17.2994L21.5874 18.288H16.1154V16.368H23.8274V18.032ZM25.169 22.016C25.169 20.1707 25.4996 18.7253 26.161 17.68C26.833 16.6347 27.9423 16.112 29.489 16.112C31.0356 16.112 32.1396 16.6347 32.801 17.68C33.473 18.7253 33.809 20.1707 33.809 22.016C33.809 23.872 33.473 25.328 32.801 26.384C32.1396 27.44 31.0356 27.968 29.489 27.968C27.9423 27.968 26.833 27.44 26.161 26.384C25.4996 25.328 25.169 23.872 25.169 22.016ZM31.601 22.016C31.601 21.2267 31.5476 20.5653 31.441 20.032C31.345 19.488 31.1423 19.0453 30.833 18.704C30.5343 18.3627 30.0863 18.192 29.489 18.192C28.8916 18.192 28.4383 18.3627 28.129 18.704C27.8303 19.0453 27.6276 19.488 27.521 20.032C27.425 20.5653 27.377 21.2267 27.377 22.016C27.377 22.8267 27.425 23.5093 27.521 24.064C27.617 24.608 27.8196 25.0507 28.129 25.392C28.4383 25.7227 28.8916 25.888 29.489 25.888C30.0863 25.888 30.5396 25.7227 30.849 25.392C31.1583 25.0507 31.361 24.608 31.457 24.064C31.553 23.5093 31.601 22.8267 31.601 22.016ZM35.2567 19.2C35.2567 18.3893 35.4914 17.7547 35.9607 17.296C36.4407 16.8373 37.0541 16.608 37.8007 16.608C38.5474 16.608 39.1554 16.8373 39.6247 17.296C40.1047 17.7547 40.3447 18.3893 40.3447 19.2C40.3447 20.0213 40.1047 20.6613 39.6247 21.12C39.1554 21.5787 38.5474 21.808 37.8007 21.808C37.0541 21.808 36.4407 21.5787 35.9607 21.12C35.4914 20.6613 35.2567 20.0213 35.2567 19.2ZM45.5287 16.8L39.2407 28H37.0647L43.3367 16.8H45.5287ZM37.7847 17.952C37.1981 17.952 36.9047 18.368 36.9047 19.2C36.9047 20.0427 37.1981 20.464 37.7847 20.464C38.0727 20.464 38.2967 20.3627 38.4567 20.16C38.6167 19.9467 38.6967 19.6267 38.6967 19.2C38.6967 18.368 38.3927 17.952 37.7847 17.952ZM42.2807 25.584C42.2807 24.7627 42.5154 24.128 42.9847 23.68C43.4647 23.2213 44.0781 22.992 44.8247 22.992C45.5714 22.992 46.1741 23.2213 46.6327 23.68C47.1021 24.128 47.3367 24.7627 47.3367 25.584C47.3367 26.4053 47.1021 27.0453 46.6327 27.504C46.1741 27.9627 45.5714 28.192 44.8247 28.192C44.0674 28.192 43.4541 27.9627 42.9847 27.504C42.5154 27.0453 42.2807 26.4053 42.2807 25.584ZM44.8087 24.336C44.2007 24.336 43.8967 24.752 43.8967 25.584C43.8967 26.4267 44.2007 26.848 44.8087 26.848C45.4061 26.848 45.7047 26.4267 45.7047 25.584C45.7047 24.752 45.4061 24.336 44.8087 24.336ZM23.2652 48.112C22.2199 48.112 21.2599 47.8667 20.3852 47.376C19.5106 46.8853 18.8172 46.208 18.3052 45.344C17.7932 44.4693 17.5372 43.4827 17.5372 42.384C17.5372 41.296 17.7932 40.32 18.3052 39.456C18.8172 38.5813 19.5106 37.8987 20.3852 37.408C21.2599 36.9173 22.2199 36.672 23.2652 36.672C24.3212 36.672 25.2812 36.9173 26.1452 37.408C27.0199 37.8987 27.7079 38.5813 28.2092 39.456C28.7212 40.32 28.9772 41.296 28.9772 42.384C28.9772 43.4827 28.7212 44.4693 28.2092 45.344C27.7079 46.208 27.0199 46.8853 26.1452 47.376C25.2706 47.8667 24.3106 48.112 23.2652 48.112ZM23.2652 46.112C23.9372 46.112 24.5292 45.9627 25.0412 45.664C25.5532 45.3547 25.9532 44.9173 26.2412 44.352C26.5292 43.7867 26.6732 43.1307 26.6732 42.384C26.6732 41.6373 26.5292 40.9867 26.2412 40.432C25.9532 39.8667 25.5532 39.4347 25.0412 39.136C24.5292 38.8373 23.9372 38.688 23.2652 38.688C22.5932 38.688 21.9959 38.8373 21.4732 39.136C20.9612 39.4347 20.5612 39.8667 20.2732 40.432C19.9852 40.9867 19.8412 41.6373 19.8412 42.384C19.8412 43.1307 19.9852 43.7867 20.2732 44.352C20.5612 44.9173 20.9612 45.3547 21.4732 45.664C21.9959 45.9627 22.5932 46.112 23.2652 46.112ZM37.5397 36.832V38.64H32.8837V41.504H36.4517V43.28H32.8837V48H30.6437V36.832H37.5397ZM46.0241 36.832V38.64H41.3681V41.504H44.9361V43.28H41.3681V48H39.1281V36.832H46.0241Z" fill="#1D1B19"/>
</svg>
