<svg width="50" height="50" viewBox="0 0 50 50" fill="none" xmlns="http://www.w3.org/2000/svg">
<rect x="0.5" y="0.5" width="49" height="49" rx="2.5" fill="white"/>
<rect x="0.5" y="0.5" width="49" height="49" rx="2.5" stroke="#545454"/>
<path d="M23.7383 28.2553V28.1692C23.7479 27.2562 23.8435 26.5296 24.0251 25.9895C24.2067 25.4493 24.4649 25.012 24.7995 24.6773C25.1341 24.3427 25.5356 24.0344 26.0041 23.7524C26.2861 23.5803 26.5394 23.3772 26.7641 23.1429C26.9888 22.9039 27.1656 22.6291 27.2947 22.3184C27.4285 22.0076 27.4955 21.6635 27.4955 21.2858C27.4955 20.8174 27.3855 20.4111 27.1656 20.0669C26.9457 19.7228 26.6518 19.4575 26.2837 19.271C25.9156 19.0846 25.5069 18.9914 25.0576 18.9914C24.6656 18.9914 24.288 19.0727 23.9247 19.2352C23.5614 19.3977 23.2579 19.6534 23.0141 20.0024C22.7703 20.3513 22.6293 20.8078 22.5911 21.3719H20.7842C20.8224 20.5593 21.0327 19.8638 21.4152 19.2854C21.8023 18.707 22.3114 18.2648 22.9424 17.9589C23.5782 17.653 24.2832 17.5 25.0576 17.5C25.8989 17.5 26.6303 17.6673 27.2517 18.0019C27.8779 18.3365 28.3607 18.7954 28.7 19.3786C29.0442 19.9618 29.2163 20.6262 29.2163 21.3719C29.2163 21.8977 29.135 22.3733 28.9725 22.7988C28.8148 23.2242 28.5853 23.6042 28.2842 23.9388C27.9878 24.2734 27.6293 24.5698 27.2087 24.8279C26.788 25.0908 26.451 25.3681 26.1977 25.6597C25.9443 25.9465 25.7603 26.2882 25.6456 26.685C25.5308 27.0817 25.4687 27.5765 25.4591 28.1692V28.2553H23.7383ZM24.6561 32.5C24.3023 32.5 23.9988 32.3733 23.7455 32.12C23.4921 31.8666 23.3654 31.5631 23.3654 31.2094C23.3654 30.8556 23.4921 30.5521 23.7455 30.2988C23.9988 30.0454 24.3023 29.9187 24.6561 29.9187C25.0098 29.9187 25.3133 30.0454 25.5667 30.2988C25.82 30.5521 25.9467 30.8556 25.9467 31.2094C25.9467 31.4436 25.887 31.6587 25.7674 31.8547C25.6527 32.0507 25.4974 32.2084 25.3014 32.3279C25.1102 32.4426 24.8951 32.5 24.6561 32.5Z" fill="#545454"/>
</svg>
