<svg width="126" height="50" viewBox="0 0 126 50" fill="none" xmlns="http://www.w3.org/2000/svg">
<g id="Group 821">
<rect id="Rectangle 9174" x="1.19189" y="0.5" width="49" height="49" rx="3.28125" fill="white" stroke="#545454"/>
<rect id="Rectangle 9175" x="75.8076" y="0.5" width="49" height="49" rx="3.28125" fill="white" stroke="#545454"/>
<path id="Polygon 11" d="M14.3447 5.38477L5.85094 20.3848H22.8384L14.3447 5.38477Z" fill="white" stroke="#545454" stroke-linejoin="round"/>
<path id="Polygon 14" d="M91.2685 7.69238L82.7748 22.6924H99.7622L91.2685 7.69238Z" fill="white" stroke="#545454" stroke-linejoin="round"/>
<path id="Polygon 12" d="M14.3427 11.5381L11.1784 17.5958H17.5071L14.3427 11.5381Z" fill="white" stroke="#545454" stroke-linejoin="round"/>
<path id="Polygon 13" d="M35.1176 27.3076L42.9451 31.7307V40.5768L35.1176 44.9999L27.29 40.5768V31.7307L35.1176 27.3076Z" fill="white" stroke="#545454" stroke-linejoin="round"/>
<path id="Polygon 16" d="M111.846 26.5381L119.507 30.9612V39.8073L111.846 44.2304L104.185 39.8073V30.9612L111.846 26.5381Z" fill="white" stroke="#545454" stroke-linejoin="round"/>
<path id="Polygon 17" d="M111.846 30.7695L115.51 33.0772V37.6926L111.846 40.0003L108.183 37.6926V33.0772L111.846 30.7695Z" fill="white" stroke="#545454" stroke-linejoin="round"/>
<path id="Arrow 4" d="M56.8442 24.5C56.5681 24.5 56.3442 24.7239 56.3442 25C56.3442 25.2761 56.5681 25.5 56.8442 25.5V24.5ZM68.9165 25.3536C69.1118 25.1583 69.1118 24.8417 68.9165 24.6464L65.7346 21.4645C65.5393 21.2692 65.2227 21.2692 65.0275 21.4645C64.8322 21.6597 64.8322 21.9763 65.0275 22.1716L67.8559 25L65.0275 27.8284C64.8322 28.0237 64.8322 28.3403 65.0275 28.5355C65.2227 28.7308 65.5393 28.7308 65.7346 28.5355L68.9165 25.3536ZM56.8442 25.5L68.563 25.5V24.5L56.8442 24.5V25.5Z" fill="#545454"/>
</g>
</svg>
