<svg width="132" height="24" viewBox="0 0 132 24" fill="none" xmlns="http://www.w3.org/2000/svg">
<g id="Group 657">
<g id="Group 573">
<rect id="Rectangle 8356" width="24" height="24" fill="#00B67A"/>
<g id="Group 572">
<g id="Group 571">
<path id="Vector" d="M22.1999 9.50872H14.639L12.3035 2.40039L9.96083 9.50872L2.3999 9.50163L8.52315 13.8992L6.18024 21.0004L12.3035 16.61L18.4193 21.0004L16.0838 13.8992L22.1999 9.50872Z" fill="white"/>
</g>
<path id="Vector_2" d="M16.8001 15.5801L16.2001 13.8008L12.6001 16.8008L16.8001 15.5801Z" fill="#00B67A"/>
</g>
</g>
<g id="Group 574">
<rect id="Rectangle 8356_2" x="27" width="24" height="24" fill="#00B67A"/>
<g id="Group 572_2">
<g id="Group 571_2">
<path id="Vector_3" d="M49.1999 9.50872H41.639L39.3035 2.40039L36.9608 9.50872L29.3999 9.50163L35.5232 13.8992L33.1802 21.0004L39.3035 16.61L45.4193 21.0004L43.0838 13.8992L49.1999 9.50872Z" fill="white"/>
</g>
<path id="Vector_4" d="M43.8001 15.5801L43.2001 13.8008L39.6001 16.8008L43.8001 15.5801Z" fill="#00B67A"/>
</g>
</g>
<g id="Group 575">
<rect id="Rectangle 8356_3" x="54" width="24" height="24" fill="#00B67A"/>
<g id="Group 572_3">
<g id="Group 571_3">
<path id="Vector_5" d="M76.1999 9.50872H68.639L66.3035 2.40039L63.9608 9.50872L56.3999 9.50163L62.5231 13.8992L60.1802 21.0004L66.3035 16.61L72.4193 21.0004L70.0838 13.8992L76.1999 9.50872Z" fill="white"/>
</g>
<path id="Vector_6" d="M70.8001 15.5801L70.2001 13.8008L66.6001 16.8008L70.8001 15.5801Z" fill="#00B67A"/>
</g>
</g>
<g id="Group 576">
<rect id="Rectangle 8356_4" x="81" width="24" height="24" fill="#00B67A"/>
<g id="Group 572_4">
<g id="Group 571_4">
<path id="Vector_7" d="M103.2 9.50872H95.639L93.3035 2.40039L90.9608 9.50872L83.3999 9.50163L89.5231 13.8992L87.1802 21.0004L93.3035 16.61L99.4193 21.0004L97.0838 13.8992L103.2 9.50872Z" fill="white"/>
</g>
<path id="Vector_8" d="M97.8001 15.5801L97.2001 13.8008L93.6001 16.8008L97.8001 15.5801Z" fill="#00B67A"/>
</g>
</g>
<g id="Group 577">
<rect id="Rectangle 8356_5" x="108" width="24" height="24" fill="#E4F2EE"/>
<rect id="Rectangle 8357" x="108" width="12" height="24" fill="#00B67A"/>
<g id="Group 572_5">
<g id="Group 571_5">
<path id="Vector_9" d="M130.2 9.50872H122.639L120.303 2.40039L117.961 9.50872L110.4 9.50163L116.523 13.8992L114.18 21.0004L120.303 16.61L126.419 21.0004L124.084 13.8992L130.2 9.50872Z" fill="white"/>
</g>
<path id="Vector_10" d="M124.8 15.5801L124.2 13.8008L120.6 16.8008L124.8 15.5801Z" fill="#F9F9F9"/>
</g>
</g>
</g>
</svg>
