<svg width="51" height="51" viewBox="0 0 51 51" fill="none" xmlns="http://www.w3.org/2000/svg">
<g id="Group 1108">
<g id="Group">
<path id="Vector" d="M25.4903 17.3438H0.980469V25.5104H25.4903V17.3438Z" fill="white" stroke="#545454" stroke-linecap="round" stroke-linejoin="round"/>
<path id="Vector_2" d="M50 9.16602H25.4902V17.3327H50V9.16602Z" fill="white" stroke="#545454" stroke-linecap="round" stroke-linejoin="round"/>
<path id="Vector_3" d="M47 1H25.4902V9.16667H50V4C50 2.34315 48.6569 1 47 1Z" fill="white" stroke="#545454" stroke-linecap="round" stroke-linejoin="round"/>
<path id="Vector_4" d="M25.4903 1H3.98047C2.32361 1 0.980469 2.34314 0.980469 4V9.16667H25.4903V1Z" fill="white" stroke="#545454" stroke-linecap="round" stroke-linejoin="round"/>
<path id="Vector_5" d="M25.4903 9.16602H0.980469V17.3327H25.4903V9.16602Z" fill="white" stroke="#545454" stroke-linecap="round" stroke-linejoin="round"/>
<path id="Vector_6" d="M50 17.3438H25.4902V25.5104H50V17.3438Z" fill="white" stroke="#545454" stroke-linecap="round" stroke-linejoin="round"/>
<path id="Vector_7" d="M25.4903 25.5098H0.980469V33.6764H25.4903V25.5098Z" fill="white" stroke="#545454" stroke-linecap="round" stroke-linejoin="round"/>
<path id="Vector_8" d="M25.4903 33.6758H0.980469V41.8424H25.4903V33.6758Z" fill="white" stroke="#545454" stroke-linecap="round" stroke-linejoin="round"/>
<path id="Vector_9" d="M25.4903 41.8535H0.980469V47.0202C0.980469 48.677 2.32361 50.0202 3.98047 50.0202H25.4903V41.8535Z" fill="white" stroke="#545454" stroke-linecap="round" stroke-linejoin="round"/>
<path id="Vector_10" d="M25.4902 25.5098V37.7647V50.0196H47C48.6569 50.0196 50 48.6764 50 47.0196V37.7647V25.5098H25.4902Z" fill="white" stroke="#545454" stroke-linecap="round" stroke-linejoin="round"/>
<path id="Vector_11" d="M37.0881 39.4895L37.0685 39.1855C37.0096 38.5483 37.1861 37.8522 37.6959 37.1463C38.1567 36.5189 38.4018 36.0679 38.4018 35.5385C38.4018 34.9404 38.0783 34.5385 37.441 34.5287C37.0783 34.5287 36.6665 34.6659 36.4116 34.8914L36.1665 34.1561C36.4998 33.8718 37.0783 33.6855 37.6175 33.6855C38.7842 33.6855 39.3136 34.5189 39.3136 35.411C39.3136 36.215 38.9312 36.7836 38.441 37.4601C37.99 38.0679 37.8332 38.5875 37.8626 39.1855V39.4895H37.0783H37.0881ZM36.8626 41.1365C36.8626 40.7052 37.1175 40.3914 37.4704 40.3914C37.8234 40.3914 38.0685 40.6953 38.0685 41.1365C38.0685 41.5483 37.8332 41.862 37.4606 41.862C37.1077 41.862 36.8626 41.5483 36.8626 41.1365Z" fill="#545454"/>
<g id="Group_2">
<path id="Vector_12" d="M16.5197 3.31445H3.10791V6.85367H16.5197V3.31445Z" fill="white"/>
<path id="Vector_13" d="M16.5197 3.31445H3.10791V6.85367H16.5197V3.31445Z" stroke="#545454" stroke-linecap="round" stroke-linejoin="round"/>
</g>
<g id="Group_3">
<path id="Vector_14" d="M16.5197 44.166H3.10791V47.7052H16.5197V44.166Z" fill="white"/>
<path id="Vector_15" d="M16.5197 44.166H3.10791V47.7052H16.5197V44.166Z" stroke="#545454" stroke-linecap="round" stroke-linejoin="round"/>
</g>
<g id="Group_4">
<path id="Vector_16" d="M47.6178 3.31445H34.2061V6.85367H47.6178V3.31445Z" fill="white"/>
<path id="Vector_17" d="M47.6178 3.31445H34.2061V6.85367H47.6178V3.31445Z" stroke="#545454" stroke-linecap="round" stroke-linejoin="round"/>
</g>
</g>
<path id="Vector_18" d="M50.0001 25.5098L25.4903 1L0.980469 25.5098L25.4903 50.0196" stroke="#545454" stroke-linecap="round" stroke-linejoin="round"/>
</g>
</svg>
