<svg width="51" height="51" viewBox="0 0 51 51" fill="none" xmlns="http://www.w3.org/2000/svg">
<path d="M46.9705 1H4.00977C2.35291 1 1.00977 2.34314 1.00977 4V46.9216C1.00977 48.5784 2.35291 49.9216 4.00976 49.9216H46.9705C48.6274 49.9216 49.9705 48.5784 49.9705 46.9216V4C49.9705 2.34315 48.6274 1 46.9705 1Z" fill="white" stroke="#545454" stroke-linecap="round" stroke-linejoin="round"/>
<path d="M17.3627 1H4.00977C2.35291 1 1.00977 2.34314 1.00977 4V17.3333H17.3627V1Z" fill="white" stroke="#545454" stroke-linecap="round" stroke-linejoin="round"/>
<path d="M5.48974 7.07908C6.24778 7.07908 6.86229 6.46457 6.86229 5.70653C6.86229 4.9485 6.24778 4.33398 5.48974 4.33398C4.7317 4.33398 4.11719 4.9485 4.11719 5.70653C4.11719 6.46457 4.7317 7.07908 5.48974 7.07908Z" fill="white"/>
<path d="M5.48974 7.07908C6.24778 7.07908 6.86229 6.46457 6.86229 5.70653C6.86229 4.9485 6.24778 4.33398 5.48974 4.33398C4.7317 4.33398 4.11719 4.9485 4.11719 5.70653C4.11719 6.46457 4.7317 7.07908 5.48974 7.07908Z" stroke="#545454" stroke-linecap="round" stroke-linejoin="round"/>
<path d="M13.2251 7.07908C13.9831 7.07908 14.5976 6.46457 14.5976 5.70653C14.5976 4.9485 13.9831 4.33398 13.2251 4.33398C12.4671 4.33398 11.8525 4.9485 11.8525 5.70653C11.8525 6.46457 12.4671 7.07908 13.2251 7.07908Z" fill="white"/>
<path d="M13.2251 7.07908C13.9831 7.07908 14.5976 6.46457 14.5976 5.70653C14.5976 4.9485 13.9831 4.33398 13.2251 4.33398C12.4671 4.33398 11.8525 4.9485 11.8525 5.70653C11.8525 6.46457 12.4671 7.07908 13.2251 7.07908Z" stroke="#545454" stroke-linecap="round" stroke-linejoin="round"/>
<path d="M5.48974 14.5986C6.24778 14.5986 6.86229 13.9841 6.86229 13.2261C6.86229 12.468 6.24778 11.8535 5.48974 11.8535C4.7317 11.8535 4.11719 12.468 4.11719 13.2261C4.11719 13.9841 4.7317 14.5986 5.48974 14.5986Z" fill="white"/>
<path d="M5.48974 14.5986C6.24778 14.5986 6.86229 13.9841 6.86229 13.2261C6.86229 12.468 6.24778 11.8535 5.48974 11.8535C4.7317 11.8535 4.11719 12.468 4.11719 13.2261C4.11719 13.9841 4.7317 14.5986 5.48974 14.5986Z" stroke="#545454" stroke-linecap="round" stroke-linejoin="round"/>
<path d="M13.2251 14.5986C13.9831 14.5986 14.5976 13.9841 14.5976 13.2261C14.5976 12.468 13.9831 11.8535 13.2251 11.8535C12.4671 11.8535 11.8525 12.468 11.8525 13.2261C11.8525 13.9841 12.4671 14.5986 13.2251 14.5986Z" fill="white"/>
<path d="M13.2251 14.5986C13.9831 14.5986 14.5976 13.9841 14.5976 13.2261C14.5976 12.468 13.9831 11.8535 13.2251 11.8535C12.4671 11.8535 11.8525 12.468 11.8525 13.2261C11.8525 13.9841 12.4671 14.5986 13.2251 14.5986Z" stroke="#545454" stroke-linecap="round" stroke-linejoin="round"/>
<path d="M9.3623 13.785V6.81445" stroke="#545454" stroke-linecap="round" stroke-linejoin="round"/>
<path d="M11.9603 8.93283L11.4995 9.3642L9.36223 7.06028L7.21518 9.3642L6.75439 8.93283L9.36223 6.12891L11.9603 8.93283Z" fill="#545454"/>
<path d="M17.3529 33.6855H1V47.0189C1 48.6757 2.34315 50.0189 4 50.0189H17.3529V33.6855Z" fill="white" stroke="#545454" stroke-linecap="round" stroke-linejoin="round"/>
<path d="M5.49023 46.6846C6.24826 46.6846 6.86278 46.07 6.86278 45.312C6.86278 44.554 6.24826 43.9395 5.49023 43.9395C4.73219 43.9395 4.11768 44.554 4.11768 45.312C4.11768 46.07 4.73219 46.6846 5.49023 46.6846Z" fill="white"/>
<path d="M5.49023 46.6846C6.24826 46.6846 6.86278 46.07 6.86278 45.312C6.86278 44.554 6.24826 43.9395 5.49023 43.9395C4.73219 43.9395 4.11768 44.554 4.11768 45.312C4.11768 46.07 4.73219 46.6846 5.49023 46.6846Z" stroke="#545454" stroke-linecap="round" stroke-linejoin="round"/>
<path d="M13.2158 46.6846C13.9738 46.6846 14.5884 46.07 14.5884 45.312C14.5884 44.554 13.9738 43.9395 13.2158 43.9395C12.4578 43.9395 11.8433 44.554 11.8433 45.312C11.8433 46.07 12.4578 46.6846 13.2158 46.6846Z" fill="white"/>
<path d="M13.2158 46.6846C13.9738 46.6846 14.5884 46.07 14.5884 45.312C14.5884 44.554 13.9738 43.9395 13.2158 43.9395C12.4578 43.9395 11.8433 44.554 11.8433 45.312C11.8433 46.07 12.4578 46.6846 13.2158 46.6846Z" stroke="#545454" stroke-linecap="round" stroke-linejoin="round"/>
<path d="M5.49023 39.165C6.24826 39.165 6.86278 38.5505 6.86278 37.7925C6.86278 37.0344 6.24826 36.4199 5.49023 36.4199C4.73219 36.4199 4.11768 37.0344 4.11768 37.7925C4.11768 38.5505 4.73219 39.165 5.49023 39.165Z" fill="white"/>
<path d="M5.49023 39.165C6.24826 39.165 6.86278 38.5505 6.86278 37.7925C6.86278 37.0344 6.24826 36.4199 5.49023 36.4199C4.73219 36.4199 4.11768 37.0344 4.11768 37.7925C4.11768 38.5505 4.73219 39.165 5.49023 39.165Z" stroke="#545454" stroke-linecap="round" stroke-linejoin="round"/>
<path d="M13.2158 39.165C13.9738 39.165 14.5884 38.5505 14.5884 37.7925C14.5884 37.0344 13.9738 36.4199 13.2158 36.4199C12.4578 36.4199 11.8433 37.0344 11.8433 37.7925C11.8433 38.5505 12.4578 39.165 13.2158 39.165Z" fill="white"/>
<path d="M13.2158 39.165C13.9738 39.165 14.5884 38.5505 14.5884 37.7925C14.5884 37.0344 13.9738 36.4199 13.2158 36.4199C12.4578 36.4199 11.8433 37.0344 11.8433 37.7925C11.8433 38.5505 12.4578 39.165 13.2158 39.165Z" stroke="#545454" stroke-linecap="round" stroke-linejoin="round"/>
<path d="M9.35303 37.2344V44.205" stroke="#545454" stroke-linecap="round" stroke-linejoin="round"/>
<path d="M6.74512 42.0876L7.21571 41.6562L9.35296 43.9602L11.4902 41.6562L11.9608 42.0876L9.35296 44.8915L6.74512 42.0876Z" fill="#545454"/>
<path d="M17.3627 17.334H1.00977V33.6673H17.3627V17.334Z" fill="white" stroke="#545454" stroke-linecap="round" stroke-linejoin="round"/>
<path d="M12.647 23.1865C13.405 23.1865 14.0195 22.572 14.0195 21.814C14.0195 21.0559 13.405 20.4414 12.647 20.4414C11.8889 20.4414 11.2744 21.0559 11.2744 21.814C11.2744 22.572 11.8889 23.1865 12.647 23.1865Z" fill="white"/>
<path d="M12.647 23.1865C13.405 23.1865 14.0195 22.572 14.0195 21.814C14.0195 21.0559 13.405 20.4414 12.647 20.4414C11.8889 20.4414 11.2744 21.0559 11.2744 21.814C11.2744 22.572 11.8889 23.1865 12.647 23.1865Z" stroke="#545454" stroke-linecap="round" stroke-linejoin="round"/>
<path d="M12.647 30.9111C13.405 30.9111 14.0195 30.2966 14.0195 29.5386C14.0195 28.7805 13.405 28.166 12.647 28.166C11.8889 28.166 11.2744 28.7805 11.2744 29.5386C11.2744 30.2966 11.8889 30.9111 12.647 30.9111Z" fill="white"/>
<path d="M12.647 30.9111C13.405 30.9111 14.0195 30.2966 14.0195 29.5386C14.0195 28.7805 13.405 28.166 12.647 28.166C11.8889 28.166 11.2744 28.7805 11.2744 29.5386C11.2744 30.2966 11.8889 30.9111 12.647 30.9111Z" stroke="#545454" stroke-linecap="round" stroke-linejoin="round"/>
<path d="M5.12743 23.1865C5.88546 23.1865 6.49998 22.572 6.49998 21.814C6.49998 21.0559 5.88546 20.4414 5.12743 20.4414C4.36939 20.4414 3.75488 21.0559 3.75488 21.814C3.75488 22.572 4.36939 23.1865 5.12743 23.1865Z" fill="white"/>
<path d="M5.12743 23.1865C5.88546 23.1865 6.49998 22.572 6.49998 21.814C6.49998 21.0559 5.88546 20.4414 5.12743 20.4414C4.36939 20.4414 3.75488 21.0559 3.75488 21.814C3.75488 22.572 4.36939 23.1865 5.12743 23.1865Z" stroke="#545454" stroke-linecap="round" stroke-linejoin="round"/>
<path d="M5.12743 30.9111C5.88546 30.9111 6.49998 30.2966 6.49998 29.5386C6.49998 28.7805 5.88546 28.166 5.12743 28.166C4.36939 28.166 3.75488 28.7805 3.75488 29.5386C3.75488 30.2966 4.36939 30.9111 5.12743 30.9111Z" fill="white"/>
<path d="M5.12743 30.9111C5.88546 30.9111 6.49998 30.2966 6.49998 29.5386C6.49998 28.7805 5.88546 28.166 5.12743 28.166C4.36939 28.166 3.75488 28.7805 3.75488 29.5386C3.75488 30.2966 4.36939 30.9111 5.12743 30.9111Z" stroke="#545454" stroke-linecap="round" stroke-linejoin="round"/>
<path d="M4.56836 25.6758H11.5389" stroke="#545454" stroke-linecap="round" stroke-linejoin="round"/>
<path d="M9.43088 28.284L8.99951 27.8135L11.2936 25.6762L8.99951 23.5389L9.43088 23.0684L12.2348 25.6762L9.43088 28.284Z" fill="#545454"/>
<path d="M33.6767 1H17.3237V17.3333H33.6767V1Z" fill="white" stroke="#545454" stroke-linecap="round" stroke-linejoin="round"/>
<path d="M28.9609 6.85252C29.719 6.85252 30.3335 6.23801 30.3335 5.47997C30.3335 4.72193 29.719 4.10742 28.9609 4.10742C28.2029 4.10742 27.5884 4.72193 27.5884 5.47997C27.5884 6.23801 28.2029 6.85252 28.9609 6.85252Z" fill="white"/>
<path d="M28.9609 6.85252C29.719 6.85252 30.3335 6.23801 30.3335 5.47997C30.3335 4.72193 29.719 4.10742 28.9609 4.10742C28.2029 4.10742 27.5884 4.72193 27.5884 5.47997C27.5884 6.23801 28.2029 6.85252 28.9609 6.85252Z" stroke="#545454" stroke-linecap="round" stroke-linejoin="round"/>
<path d="M21.4316 6.85252C22.1897 6.85252 22.8042 6.23801 22.8042 5.47997C22.8042 4.72193 22.1897 4.10742 21.4316 4.10742C20.6736 4.10742 20.0591 4.72193 20.0591 5.47997C20.0591 6.23801 20.6736 6.85252 21.4316 6.85252Z" fill="white"/>
<path d="M21.4316 6.85252C22.1897 6.85252 22.8042 6.23801 22.8042 5.47997C22.8042 4.72193 22.1897 4.10742 21.4316 4.10742C20.6736 4.10742 20.0591 4.72193 20.0591 5.47997C20.0591 6.23801 20.6736 6.85252 21.4316 6.85252Z" stroke="#545454" stroke-linecap="round" stroke-linejoin="round"/>
<path d="M21.4316 14.5674C22.1897 14.5674 22.8042 13.9529 22.8042 13.1948C22.8042 12.4368 22.1897 11.8223 21.4316 11.8223C20.6736 11.8223 20.0591 12.4368 20.0591 13.1948C20.0591 13.9529 20.6736 14.5674 21.4316 14.5674Z" fill="white"/>
<path d="M21.4316 14.5674C22.1897 14.5674 22.8042 13.9529 22.8042 13.1948C22.8042 12.4368 22.1897 11.8223 21.4316 11.8223C20.6736 11.8223 20.0591 12.4368 20.0591 13.1948C20.0591 13.9529 20.6736 14.5674 21.4316 14.5674Z" stroke="#545454" stroke-linecap="round" stroke-linejoin="round"/>
<path d="M20.873 9.3418H27.8534" stroke="#545454" stroke-linecap="round" stroke-linejoin="round"/>
<path d="M25.7356 11.9403L25.3042 11.4795L27.6081 9.34222L25.3042 7.19516L25.7356 6.73438L28.5395 9.34222L25.7356 11.9403Z" fill="#545454"/>
<path d="M33.6767 33.666H17.3237V49.9993H33.6767V33.666Z" fill="white" stroke="#545454" stroke-linecap="round" stroke-linejoin="round"/>
<path d="M22.0395 39.5185C22.7976 39.5185 23.4121 38.904 23.4121 38.146C23.4121 37.3879 22.7976 36.7734 22.0395 36.7734C21.2815 36.7734 20.667 37.3879 20.667 38.146C20.667 38.904 21.2815 39.5185 22.0395 39.5185Z" fill="white"/>
<path d="M22.0395 39.5185C22.7976 39.5185 23.4121 38.904 23.4121 38.146C23.4121 37.3879 22.7976 36.7734 22.0395 36.7734C21.2815 36.7734 20.667 37.3879 20.667 38.146C20.667 38.904 21.2815 39.5185 22.0395 39.5185Z" stroke="#545454" stroke-linecap="round" stroke-linejoin="round"/>
<path d="M29.5688 39.5185C30.3269 39.5185 30.9414 38.904 30.9414 38.146C30.9414 37.3879 30.3269 36.7734 29.5688 36.7734C28.8108 36.7734 28.1963 37.3879 28.1963 38.146C28.1963 38.904 28.8108 39.5185 29.5688 39.5185Z" fill="white"/>
<path d="M29.5688 39.5185C30.3269 39.5185 30.9414 38.904 30.9414 38.146C30.9414 37.3879 30.3269 36.7734 29.5688 36.7734C28.8108 36.7734 28.1963 37.3879 28.1963 38.146C28.1963 38.904 28.8108 39.5185 29.5688 39.5185Z" stroke="#545454" stroke-linecap="round" stroke-linejoin="round"/>
<path d="M29.5688 47.2431C30.3269 47.2431 30.9414 46.6286 30.9414 45.8706C30.9414 45.1126 30.3269 44.498 29.5688 44.498C28.8108 44.498 28.1963 45.1126 28.1963 45.8706C28.1963 46.6286 28.8108 47.2431 29.5688 47.2431Z" fill="white"/>
<path d="M29.5688 47.2431C30.3269 47.2431 30.9414 46.6286 30.9414 45.8706C30.9414 45.1126 30.3269 44.498 29.5688 44.498C28.8108 44.498 28.1963 45.1126 28.1963 45.8706C28.1963 46.6286 28.8108 47.2431 29.5688 47.2431Z" stroke="#545454" stroke-linecap="round" stroke-linejoin="round"/>
<path d="M30.1181 42.0078H23.1475" stroke="#545454" stroke-linecap="round" stroke-linejoin="round"/>
<path d="M25.2551 39.4004L25.6963 39.871L23.3923 42.0082L25.6963 44.1455L25.2551 44.6161L22.4512 42.0082L25.2551 39.4004Z" fill="#545454"/>
<path d="M33.6767 17.5098H17.3237V33.8431H33.6767V17.5098Z" fill="white" stroke="#545454" stroke-linecap="round" stroke-linejoin="round"/>
<path d="M29.1865 30.5088C29.9446 30.5088 30.5591 29.8943 30.5591 29.1362C30.5591 28.3782 29.9446 27.7637 29.1865 27.7637C28.4285 27.7637 27.814 28.3782 27.814 29.1362C27.814 29.8943 28.4285 30.5088 29.1865 30.5088Z" fill="white"/>
<path d="M29.1865 30.5088C29.9446 30.5088 30.5591 29.8943 30.5591 29.1362C30.5591 28.3782 29.9446 27.7637 29.1865 27.7637C28.4285 27.7637 27.814 28.3782 27.814 29.1362C27.814 29.8943 28.4285 30.5088 29.1865 30.5088Z" stroke="#545454" stroke-linecap="round" stroke-linejoin="round"/>
<path d="M29.1865 22.9892C29.9446 22.9892 30.5591 22.3747 30.5591 21.6167C30.5591 20.8587 29.9446 20.2441 29.1865 20.2441C28.4285 20.2441 27.814 20.8587 27.814 21.6167C27.814 22.3747 28.4285 22.9892 29.1865 22.9892Z" fill="white"/>
<path d="M29.1865 22.9892C29.9446 22.9892 30.5591 22.3747 30.5591 21.6167C30.5591 20.8587 29.9446 20.2441 29.1865 20.2441C28.4285 20.2441 27.814 20.8587 27.814 21.6167C27.814 22.3747 28.4285 22.9892 29.1865 22.9892Z" stroke="#545454" stroke-linecap="round" stroke-linejoin="round"/>
<path d="M21.4609 22.9892C22.219 22.9892 22.8335 22.3747 22.8335 21.6167C22.8335 20.8587 22.219 20.2441 21.4609 20.2441C20.7029 20.2441 20.0884 20.8587 20.0884 21.6167C20.0884 22.3747 20.7029 22.9892 21.4609 22.9892Z" fill="white"/>
<path d="M21.4609 22.9892C22.219 22.9892 22.8335 22.3747 22.8335 21.6167C22.8335 20.8587 22.219 20.2441 21.4609 20.2441C20.7029 20.2441 20.0884 20.8587 20.0884 21.6167C20.0884 22.3747 20.7029 22.9892 21.4609 22.9892Z" stroke="#545454" stroke-linecap="round" stroke-linejoin="round"/>
<path d="M25.3237 21.0586V28.0292" stroke="#545454" stroke-linecap="round" stroke-linejoin="round"/>
<path d="M22.7158 25.9118L23.1864 25.4805L25.3237 27.7844L27.4609 25.4805L27.9315 25.9118L25.3237 28.7158L22.7158 25.9118Z" fill="#545454"/>
<path d="M50.0194 17.5098H33.6665V33.8431H50.0194V17.5098Z" fill="white" stroke="#545454" stroke-linecap="round" stroke-linejoin="round"/>
<path d="M38.3823 30.7353C39.1404 30.7353 39.7549 30.1208 39.7549 29.3628C39.7549 28.6047 39.1404 27.9902 38.3823 27.9902C37.6243 27.9902 37.0098 28.6047 37.0098 29.3628C37.0098 30.1208 37.6243 30.7353 38.3823 30.7353Z" fill="white"/>
<path d="M38.3823 30.7353C39.1404 30.7353 39.7549 30.1208 39.7549 29.3628C39.7549 28.6047 39.1404 27.9902 38.3823 27.9902C37.6243 27.9902 37.0098 28.6047 37.0098 29.3628C37.0098 30.1208 37.6243 30.7353 38.3823 30.7353Z" stroke="#545454" stroke-linecap="round" stroke-linejoin="round"/>
<path d="M45.9116 30.7353C46.6696 30.7353 47.2842 30.1208 47.2842 29.3628C47.2842 28.6047 46.6696 27.9902 45.9116 27.9902C45.1536 27.9902 44.5391 28.6047 44.5391 29.3628C44.5391 30.1208 45.1536 30.7353 45.9116 30.7353Z" fill="white"/>
<path d="M45.9116 30.7353C46.6696 30.7353 47.2842 30.1208 47.2842 29.3628C47.2842 28.6047 46.6696 27.9902 45.9116 27.9902C45.1536 27.9902 44.5391 28.6047 44.5391 29.3628C44.5391 30.1208 45.1536 30.7353 45.9116 30.7353Z" stroke="#545454" stroke-linecap="round" stroke-linejoin="round"/>
<path d="M45.9116 23.0205C46.6696 23.0205 47.2842 22.406 47.2842 21.6479C47.2842 20.8899 46.6696 20.2754 45.9116 20.2754C45.1536 20.2754 44.5391 20.8899 44.5391 21.6479C44.5391 22.406 45.1536 23.0205 45.9116 23.0205Z" fill="white"/>
<path d="M45.9116 23.0205C46.6696 23.0205 47.2842 22.406 47.2842 21.6479C47.2842 20.8899 46.6696 20.2754 45.9116 20.2754C45.1536 20.2754 44.5391 20.8899 44.5391 21.6479C44.5391 22.406 45.1536 23.0205 45.9116 23.0205Z" stroke="#545454" stroke-linecap="round" stroke-linejoin="round"/>
<path d="M46.4701 25.5098H39.4897" stroke="#545454" stroke-linecap="round" stroke-linejoin="round"/>
<path d="M41.6076 22.9023L42.039 23.3631L39.7351 25.5102L42.039 27.6474L41.6076 28.1082L38.8037 25.5102L41.6076 22.9023Z" fill="#545454"/>
<path d="M50.0194 33.6758H33.6665V50.0091H47.0194C48.6763 50.0091 50.0194 48.666 50.0194 47.0091V33.6758Z" fill="white" stroke="#545454" stroke-linecap="round" stroke-linejoin="round"/>
<path d="M38.1567 39.7549C38.9148 39.7549 39.5293 39.1404 39.5293 38.3823C39.5293 37.6243 38.9148 37.0098 38.1567 37.0098C37.3987 37.0098 36.7842 37.6243 36.7842 38.3823C36.7842 39.1404 37.3987 39.7549 38.1567 39.7549Z" fill="white"/>
<path d="M38.1567 39.7549C38.9148 39.7549 39.5293 39.1404 39.5293 38.3823C39.5293 37.6243 38.9148 37.0098 38.1567 37.0098C37.3987 37.0098 36.7842 37.6243 36.7842 38.3823C36.7842 39.1404 37.3987 39.7549 38.1567 39.7549Z" stroke="#545454" stroke-linecap="round" stroke-linejoin="round"/>
<path d="M45.8823 39.7549C46.6403 39.7549 47.2549 39.1404 47.2549 38.3823C47.2549 37.6243 46.6403 37.0098 45.8823 37.0098C45.1243 37.0098 44.5098 37.6243 44.5098 38.3823C44.5098 39.1404 45.1243 39.7549 45.8823 39.7549Z" fill="white"/>
<path d="M45.8823 39.7549C46.6403 39.7549 47.2549 39.1404 47.2549 38.3823C47.2549 37.6243 46.6403 37.0098 45.8823 37.0098C45.1243 37.0098 44.5098 37.6243 44.5098 38.3823C44.5098 39.1404 45.1243 39.7549 45.8823 39.7549Z" stroke="#545454" stroke-linecap="round" stroke-linejoin="round"/>
<path d="M42.0195 46.4608V39.4902" stroke="#545454" stroke-linecap="round" stroke-linejoin="round"/>
<path d="M44.6273 41.6086L44.1567 42.04L42.0195 39.7361L39.8822 42.04L39.4116 41.6086L42.0195 38.8047L44.6273 41.6086Z" fill="#545454"/>
<path d="M41.2159 10.755L41.1962 10.5001C41.1374 9.98051 41.3139 9.40208 41.7943 8.82364C42.2355 8.31384 42.4708 7.93149 42.4708 7.50011C42.4708 7.00992 42.157 6.67659 41.5492 6.66678C41.1962 6.66678 40.8139 6.78443 40.5688 6.9707L40.3335 6.36286C40.657 6.12757 41.206 5.9707 41.7159 5.9707C42.8335 5.9707 43.3335 6.65698 43.3335 7.39227C43.3335 8.04913 42.961 8.52953 42.5002 9.07855C42.0688 9.57855 41.9217 10.0099 41.9512 10.5001V10.755H41.206H41.2159ZM41.0002 12.108C41.0002 11.7452 41.2453 11.5001 41.5786 11.5001C41.9119 11.5001 42.1472 11.755 42.1472 12.108C42.1472 12.4511 41.9217 12.706 41.5688 12.706C41.2257 12.706 41.0002 12.4413 41.0002 12.108Z" fill="#545454"/>
</svg>
