<svg width="46" height="11" viewBox="0 0 46 11" fill="none" xmlns="http://www.w3.org/2000/svg">
<g id="1m 30s">
<path d="M0.59375 2.1122V0.98003H3.15817V10.8422H1.90324V2.1122H0.59375Z" fill="#1D1B19"/>
<path d="M14.4841 3.23072C15.0661 3.23072 15.5844 3.35349 16.0391 3.59902C16.4938 3.83545 16.853 4.19465 17.1167 4.67662C17.3804 5.15859 17.5123 5.74513 17.5123 6.43625V10.8422H16.2846V6.61358C16.2846 5.8679 16.0982 5.29954 15.7254 4.90851C15.3616 4.50839 14.866 4.30833 14.2386 4.30833C13.5929 4.30833 13.0791 4.51748 12.6972 4.93579C12.3152 5.34501 12.1243 5.94065 12.1243 6.7227V10.8422H10.8966V6.61358C10.8966 5.8679 10.7102 5.29954 10.3374 4.90851C9.97362 4.50839 9.47801 4.30833 8.85055 4.30833C8.2049 4.30833 7.6911 4.51748 7.30917 4.93579C6.92723 5.34501 6.73626 5.94065 6.73626 6.7227V10.8422H5.49497V3.36713H6.73626V4.44473C6.98179 4.0537 7.30917 3.75361 7.71838 3.54445C8.13669 3.3353 8.59592 3.23072 9.09608 3.23072C9.72354 3.23072 10.2783 3.37167 10.7602 3.65358C11.2422 3.93548 11.6014 4.34925 11.8378 4.89487C12.047 4.36743 12.3925 3.95822 12.8745 3.66722C13.3565 3.37622 13.893 3.23072 14.4841 3.23072Z" fill="#1D1B19"/>
<path d="M22.9532 3.46261C23.0168 2.62599 23.3397 1.97124 23.9217 1.49837C24.5037 1.0255 25.2584 0.789062 26.186 0.789062C26.8044 0.789062 27.3363 0.902734 27.7819 1.13008C28.2366 1.34833 28.5776 1.64842 28.805 2.03035C29.0414 2.41229 29.1596 2.84424 29.1596 3.32621C29.1596 3.89002 28.9959 4.37653 28.6686 4.78575C28.3503 5.19496 27.932 5.45868 27.4136 5.5769V5.6451C28.0047 5.7906 28.4731 6.07705 28.8186 6.50446C29.1642 6.93186 29.337 7.49112 29.337 8.18224C29.337 8.70058 29.2187 9.16891 28.9823 9.58722C28.7459 9.99644 28.3912 10.3193 27.9183 10.5557C27.4455 10.7921 26.8771 10.9104 26.2133 10.9104C25.2493 10.9104 24.4582 10.6603 23.8398 10.1601C23.2214 9.65088 22.8759 8.93247 22.8031 8.00492H24.0035C24.0672 8.55054 24.29 8.99613 24.6719 9.34169C25.0538 9.68725 25.5631 9.86003 26.1996 9.86003C26.8362 9.86003 27.3182 9.69634 27.6455 9.36897C27.982 9.0325 28.1502 8.60055 28.1502 8.07312C28.1502 7.39109 27.9229 6.90003 27.4682 6.59994C27.0135 6.29985 26.3269 6.1498 25.4085 6.1498H25.0947V5.11312H25.4221C26.2587 5.10402 26.8907 4.96762 27.3182 4.7039C27.7456 4.43109 27.9593 4.01278 27.9593 3.44897C27.9593 2.967 27.8001 2.58052 27.4818 2.28952C27.1727 1.99853 26.7271 1.85303 26.1451 1.85303C25.5813 1.85303 25.1266 1.99853 24.781 2.28952C24.4354 2.58052 24.2308 2.97155 24.1672 3.46261H22.9532Z" fill="#1D1B19"/>
<path d="M31.0129 5.80879C31.0129 4.24467 31.2676 3.02611 31.7768 2.15312C32.286 1.27103 33.1772 0.829984 34.4503 0.829984C35.7144 0.829984 36.601 1.27103 37.1103 2.15312C37.6195 3.02611 37.8741 4.24467 37.8741 5.80879C37.8741 7.40018 37.6195 8.63693 37.1103 9.51902C36.601 10.4011 35.7144 10.8422 34.4503 10.8422C33.1772 10.8422 32.286 10.4011 31.7768 9.51902C31.2676 8.63693 31.0129 7.40018 31.0129 5.80879ZM36.6465 5.80879C36.6465 5.01763 36.5919 4.34925 36.4828 3.80363C36.3828 3.24891 36.1691 2.80332 35.8417 2.46685C35.5234 2.13038 35.0596 1.96215 34.4503 1.96215C33.832 1.96215 33.3591 2.13038 33.0317 2.46685C32.7135 2.80332 32.4998 3.24891 32.3906 3.80363C32.2906 4.34925 32.2406 5.01763 32.2406 5.80879C32.2406 6.62722 32.2906 7.3138 32.3906 7.86851C32.4998 8.42323 32.7135 8.86882 33.0317 9.20528C33.3591 9.54175 33.832 9.70999 34.4503 9.70999C35.0596 9.70999 35.5234 9.54175 35.8417 9.20528C36.1691 8.86882 36.3828 8.42323 36.4828 7.86851C36.5919 7.3138 36.6465 6.62722 36.6465 5.80879Z" fill="#1D1B19"/>
<path d="M42.4291 10.9649C41.8562 10.9649 41.3424 10.8694 40.8877 10.6785C40.433 10.4784 40.0738 10.2056 39.8101 9.86003C39.5464 9.50538 39.4009 9.10071 39.3736 8.64602H40.6558C40.6922 9.01886 40.865 9.3235 41.1742 9.55994C41.4925 9.79637 41.9062 9.91459 42.4155 9.91459C42.8883 9.91459 43.2612 9.81002 43.534 9.60086C43.8068 9.39171 43.9432 9.12799 43.9432 8.80971C43.9432 8.48234 43.7977 8.24135 43.5067 8.08676C43.2157 7.92307 42.7656 7.76393 42.1563 7.60934C41.6016 7.46384 41.1469 7.31834 40.7922 7.17284C40.4467 7.01825 40.1466 6.79545 39.892 6.50446C39.6464 6.20436 39.5237 5.81333 39.5237 5.33137C39.5237 4.94943 39.6374 4.59932 39.8647 4.28104C40.092 3.96276 40.4149 3.71269 40.8332 3.53081C41.2515 3.33985 41.7289 3.24436 42.2654 3.24436C43.093 3.24436 43.7613 3.45352 44.2706 3.87183C44.7798 4.29014 45.0526 4.86304 45.089 5.59054H43.8477C43.8204 5.19951 43.6613 4.88578 43.3703 4.64934C43.0884 4.4129 42.7065 4.29469 42.2245 4.29469C41.7789 4.29469 41.4243 4.39017 41.1605 4.58114C40.8968 4.7721 40.765 5.02218 40.765 5.33137C40.765 5.5769 40.8423 5.78151 40.9969 5.94519C41.1605 6.09978 41.3606 6.2271 41.597 6.32713C41.8426 6.41807 42.179 6.52264 42.6064 6.64086C43.143 6.78636 43.5795 6.93186 43.9159 7.07736C44.2524 7.21376 44.5389 7.42292 44.7753 7.70482C45.0208 7.98673 45.1481 8.35502 45.1572 8.80971C45.1572 9.21893 45.0435 9.58722 44.8162 9.91459C44.5889 10.242 44.266 10.5011 43.8477 10.6921C43.4385 10.874 42.9656 10.9649 42.4291 10.9649Z" fill="#1D1B19"/>
</g>
</svg>
