<svg width="30" height="30" viewBox="0 0 30 30" fill="none" xmlns="http://www.w3.org/2000/svg">
<g id="PDF">
<path id="Vector" d="M22.2514 19.5722C21.8859 19.6801 21.3492 19.6922 20.7738 19.6087C20.1562 19.5192 19.5263 19.3304 18.9072 19.0522C20.0113 18.8916 20.8678 18.9411 21.6004 19.2007C21.7739 19.2622 22.059 19.4266 22.2514 19.5722ZM16.0914 18.5594C16.0465 18.5716 16.0022 18.5832 15.9582 18.5954C15.6611 18.6763 15.3721 18.7552 15.0935 18.8254L14.7179 18.9206C13.9624 19.1118 13.1899 19.3071 12.4269 19.5397C12.7168 18.8405 12.9862 18.1335 13.25 17.4423C13.4453 16.9306 13.6447 16.408 13.851 15.892C13.9556 16.0648 14.0648 16.2377 14.1784 16.411C14.6961 17.1994 15.3468 17.9284 16.0914 18.5594ZM14.1695 10.6744C14.2185 11.5373 14.0323 12.3673 13.7593 13.1635C13.4229 12.1789 13.2661 11.0917 13.6867 10.2139C13.7945 9.98887 13.8829 9.86858 13.9402 9.8058C14.0287 9.94245 14.1451 10.2481 14.1695 10.6744ZM10.2251 21.604C10.0361 21.9422 9.84319 22.2586 9.64547 22.5575C9.16831 23.2766 8.38795 24.0466 7.98706 24.0466C7.94761 24.0466 7.89987 24.0402 7.83011 23.9666C7.78521 23.9195 7.77802 23.8857 7.78019 23.8396C7.79371 23.5753 8.144 23.1044 8.65145 22.6679C9.11204 22.2718 9.63264 21.9197 10.2251 21.604ZM23.5279 19.6096C23.4667 18.7289 21.9842 18.1639 21.9696 18.1587C21.3965 17.9555 20.7739 17.8568 20.0664 17.8568C19.309 17.8568 18.4924 17.9664 17.4436 18.2114C16.5105 17.5499 15.7044 16.7218 15.1021 15.805C14.8362 15.3999 14.5971 14.9956 14.3887 14.6006C14.8975 13.3841 15.3556 12.076 15.2724 10.6109C15.2053 9.4362 14.6755 8.64713 13.9552 8.64713C13.461 8.64713 13.0355 9.01313 12.6895 9.73598C12.0724 11.024 12.2346 12.6721 13.1715 14.6388C12.8341 15.4313 12.5206 16.253 12.2171 17.0483C11.8396 18.0373 11.4505 19.0577 11.0121 20.0284C9.7825 20.5149 8.77236 21.1049 7.93051 21.8293C7.37902 22.303 6.71417 23.0271 6.67622 23.783C6.6577 24.139 6.77977 24.4655 7.02783 24.7271C7.29137 25.0049 7.62247 25.1511 7.98652 25.1516C9.18892 25.1516 10.3462 23.4995 10.5657 23.1682C11.0075 22.5022 11.4211 21.7593 11.8263 20.9024C12.8469 20.5336 13.9345 20.2583 14.9887 19.9921L15.3663 19.8962C15.6501 19.8241 15.9451 19.7443 16.2476 19.6615C16.5678 19.5749 16.8972 19.4852 17.232 19.3999C18.3145 20.0883 19.4785 20.5373 20.6138 20.7021C21.5701 20.8412 22.4193 20.7605 22.9942 20.4608C23.5114 20.1914 23.5399 19.7757 23.5279 19.6096ZM25.8566 27.1821C25.8566 28.7949 24.4351 28.8944 24.1483 28.8976H5.80864C4.20168 28.8976 4.10491 27.4664 4.10185 27.1821L4.10163 2.81731C4.10163 1.20292 5.52572 1.10505 5.80843 1.10181H18.1972L18.2038 1.10835V5.94297C18.2038 6.91322 18.7904 8.75017 21.0118 8.75017H25.8152L25.8565 8.79135L25.8566 27.1821ZM24.7179 7.6482H21.0127C19.4062 7.6482 19.309 6.22477 19.3068 5.94313V2.2148L24.7179 7.6482ZM26.9585 27.1821V8.33677L19.3068 0.653266V0.617518H19.2702L18.6556 0H5.80868C4.83715 0 3 0.589002 3 2.81783V27.1826C3 28.157 3.58722 30 5.80868 30H24.1501C25.1214 29.9998 26.9585 29.4107 26.9585 27.1821Z" fill="url(#paint0_linear_13087_16486)"/>
</g>
<defs>
<linearGradient id="paint0_linear_13087_16486" x1="14.9793" y1="0" x2="14.9793" y2="30" gradientUnits="userSpaceOnUse">
<stop stop-color="#FF7542"/>
<stop offset="0.505208" stop-color="#FE4501"/>
</linearGradient>
</defs>
</svg>
