<svg width="32" height="32" viewBox="0 0 32 32" fill="none" xmlns="http://www.w3.org/2000/svg">
<circle cx="16" cy="16" r="15" stroke="#1D1B19"/>
<path d="M22.23 18.6289C21.2733 18.6289 20.3478 18.4733 19.4844 18.1933C19.2122 18.1 18.9089 18.17 18.6989 18.38L17.4778 19.9122C15.2767 18.8622 13.2156 16.8789 12.1189 14.6L13.6356 13.3089C13.8456 13.0911 13.9078 12.7878 13.8222 12.5156C13.5344 11.6522 13.3867 10.7267 13.3867 9.77C13.3867 9.35 13.0367 9 12.6167 9H9.92556C9.50556 9 9 9.18667 9 9.77C9 16.9956 15.0122 23 22.23 23C22.7822 23 23 22.51 23 22.0822V19.3989C23 18.9789 22.65 18.6289 22.23 18.6289Z" fill="#1D1B19"/>
</svg>
