<svg width="55" height="31" viewBox="0 0 55 31" fill="none" xmlns="http://www.w3.org/2000/svg">
<path d="M12.9504 10.3052C14.9097 10.3052 16.498 8.71685 16.498 6.75756C16.498 4.79828 14.9097 3.20996 12.9504 3.20996C10.9911 3.20996 9.40283 4.79828 9.40283 6.75756C9.40283 8.71685 10.9911 10.3052 12.9504 10.3052Z" stroke="#1D1B19" stroke-width="1.01" stroke-miterlimit="10"/>
<path d="M13.6426 3.21102C13.7814 2.90779 13.9844 2.63827 14.2374 2.42101C14.4904 2.20376 14.7875 2.04394 15.1083 1.95256C15.429 1.86118 15.7657 1.84042 16.0953 1.8917C16.4248 1.94298 16.7393 2.06509 17.0171 2.24961C19.4014 3.48021 18.3343 6.79708 18.3343 6.79708C18.3343 6.79708 17.5844 8.6526 18.5746 8.7199C19.5649 8.78719 21.3146 7.24894 21.3146 7.24894" stroke="#1D1B19" stroke-width="1.01" stroke-miterlimit="10"/>
<path d="M12.2487 3.21102C12.1099 2.90779 11.9069 2.63827 11.6539 2.42101C11.4009 2.20376 11.1038 2.04394 10.783 1.95256C10.4623 1.86118 10.1255 1.84042 9.796 1.8917C9.46647 1.94298 9.15197 2.06509 8.87416 2.24961C6.48987 3.48021 7.55703 6.79708 7.55703 6.79708C7.55703 6.79708 8.30693 8.6526 7.31668 8.7199C6.32643 8.78719 4.57666 7.24894 4.57666 7.24894" stroke="#1D1B19" stroke-width="1.01" stroke-miterlimit="10"/>
<path d="M12.9886 10.9521L6.13379 23.1236H19.8435L12.9886 10.9521Z" stroke="#1D1B19" stroke-width="1.01" stroke-miterlimit="10"/>
<path d="M1.91309 9.60254L10.6138 15.1595" stroke="#1D1B19" stroke-width="1.01" stroke-miterlimit="10"/>
<path d="M23.5835 9.60254L32.2843 15.1595" stroke="#1D1B19" stroke-width="1.01" stroke-miterlimit="10"/>
<path d="M53.8677 9.60254L45.167 15.1595" stroke="#1D1B19" stroke-width="1.01" stroke-miterlimit="10"/>
<path d="M24.0544 9.60254L15.3633 15.1595" stroke="#1D1B19" stroke-width="1.01" stroke-miterlimit="10"/>
<path d="M9.8642 23.1182L2.78822 29.9538L1 28.3194" stroke="#1D1B19" stroke-width="1.01" stroke-miterlimit="10"/>
<path d="M16.1035 23.1182L23.1795 29.9538L24.9677 28.3194" stroke="#1D1B19" stroke-width="1.01" stroke-miterlimit="10"/>
<path d="M35.601 23.1182L28.525 29.9538L26.7368 28.3194" stroke="#1D1B19" stroke-width="1.01" stroke-miterlimit="10"/>
<path d="M41.8408 23.1182L48.9168 29.9538L50.705 28.3194" stroke="#1D1B19" stroke-width="1.01" stroke-miterlimit="10"/>
<path d="M38.7258 10.6885L32.4189 15.3129L34.8321 22.8022H42.6195L45.023 15.3129L38.7258 10.6885Z" stroke="#1D1B19" stroke-width="1.01" stroke-miterlimit="10"/>
<path d="M38.7258 10.3052C40.6851 10.3052 42.2734 8.71685 42.2734 6.75756C42.2734 4.79828 40.6851 3.20996 38.7258 3.20996C36.7665 3.20996 35.1782 4.79828 35.1782 6.75756C35.1782 8.71685 36.7665 10.3052 38.7258 10.3052Z" stroke="#1D1B19" stroke-width="1.01" stroke-miterlimit="10"/>
<path d="M38.7256 0V3.22072" stroke="#1D1B19" stroke-width="1.01" stroke-miterlimit="10"/>
<path d="M42.6389 1.05469L40.3892 3.35246" stroke="#1D1B19" stroke-width="1.01" stroke-miterlimit="10"/>
<path d="M34.8032 1.05469L37.0529 3.35246" stroke="#1D1B19" stroke-width="1.01" stroke-miterlimit="10"/>
<path d="M12.9408 18.7096C12.1996 18.2496 11.6368 17.5512 11.3449 16.7291C11.3075 16.5535 11.3313 16.3703 11.4122 16.21C11.4795 16.0815 11.5802 15.9735 11.7037 15.8974C11.8272 15.8212 11.969 15.7798 12.114 15.7773C12.4697 15.7773 12.7678 16.1715 12.8928 16.4696C12.8928 16.4696 12.8928 16.4696 12.8928 16.5272C12.919 16.4635 12.9512 16.4023 12.9889 16.3446C13.0377 16.2554 13.0957 16.1716 13.1619 16.0946C13.2211 16.0037 13.3005 15.9278 13.3939 15.8727C13.4873 15.8177 13.5922 15.785 13.7003 15.7773C13.949 15.8132 14.1737 15.9449 14.3264 16.1444C14.4791 16.3438 14.5477 16.5951 14.5175 16.8445C14.3207 17.359 13.9885 17.8108 13.5561 18.152C13.3735 18.3443 13.1619 18.5366 12.9408 18.7096Z" fill="#D85A49"/>
<path d="M38.7163 18.7084C37.975 18.2483 37.4123 17.5499 37.1203 16.7279C37.098 16.6129 37.1009 16.4944 37.1289 16.3807C37.1569 16.2669 37.2093 16.1607 37.2824 16.0692C37.3556 15.9777 37.4478 15.9033 37.5526 15.851C37.6574 15.7987 37.7724 15.7699 37.8894 15.7665C38.2548 15.7665 38.5432 16.1606 38.6682 16.4587V16.5163C38.6871 16.4512 38.7163 16.3896 38.7547 16.3337C38.812 16.2398 38.8797 16.1527 38.9566 16.0741C39.0158 15.9832 39.0951 15.9073 39.1885 15.8522C39.282 15.7972 39.3869 15.7645 39.495 15.7568C39.7436 15.7927 39.9684 15.9244 40.1211 16.1239C40.2738 16.3233 40.3424 16.5746 40.3122 16.824C40.1154 17.3385 39.7832 17.7902 39.3508 18.1315C39.1585 18.343 38.9566 18.5353 38.7163 18.7084Z" fill="#D85A49"/>
</svg>
