<svg width="158" height="32" viewBox="0 0 158 32" fill="none" xmlns="http://www.w3.org/2000/svg">
<path d="M5.17838 19.5729V20.0055C5.17838 22.1687 5.17838 24.3223 5.17838 26.4758C5.17838 26.7354 5.1207 26.8315 4.84189 26.8315C3.56001 26.8315 2.30056 26.8315 1.06355 26.8315C0.784741 26.8315 0.727051 26.7354 0.727051 26.4758V6.5554C0.727051 6.30544 0.784737 6.21891 1.04432 6.21891C3.82279 6.21891 6.61088 6.21891 9.38935 6.21891C11.1656 6.19075 12.9108 6.68557 14.4079 7.6418C15.1383 8.11282 15.759 8.73504 16.2284 9.46645C16.6978 10.1979 17.0048 11.0214 17.1287 11.8816C17.3346 13.051 17.2319 14.2539 16.8307 15.3715C16.4007 16.581 15.5604 17.6016 14.456 18.2558C13.4067 18.9186 12.2126 19.3178 10.9757 19.4191C9.73546 19.5152 8.48563 19.5248 7.2358 19.5537C6.57242 19.5921 5.89944 19.5729 5.17838 19.5729ZM5.17838 9.71844V16.1214H5.24568C6.92898 16.2001 8.61574 16.1583 10.2931 15.9964C10.6765 15.9494 11.0457 15.8225 11.377 15.6237C11.7082 15.425 11.994 15.1589 12.2159 14.8428C12.5582 14.276 12.7327 13.6237 12.7191 12.9617C12.7054 12.2997 12.5043 11.6551 12.139 11.1029C11.8452 10.6695 11.4476 10.3167 10.9824 10.0765C10.5172 9.83636 9.99928 9.71656 9.47588 9.72806C8.15875 9.72806 6.84162 9.72806 5.52449 9.72806L5.17838 9.71844Z" fill="#D85A49"/>
<path d="M20.1768 19.1535C20.1768 16.7403 20.1768 14.3464 20.1768 11.9141C20.1768 11.6064 20.2633 11.5391 20.5517 11.5487H24.1762C24.4358 11.5487 24.5031 11.616 24.5031 11.8756C24.5031 16.7531 24.5031 21.6307 24.5031 26.5083C24.5031 26.7774 24.4166 26.8351 24.1666 26.8255C22.9552 26.8255 21.7342 26.8255 20.5132 26.8255C20.2441 26.8255 20.1768 26.7486 20.1768 26.4794C20.1864 24.047 20.1768 21.5954 20.1768 19.1535Z" fill="#D85A49"/>
<path d="M22.3886 9.7319C21.7931 9.76196 21.2056 9.58535 20.7254 9.23197C20.5142 9.07452 20.3389 8.87392 20.2113 8.64351C20.0837 8.41309 20.0065 8.15814 19.9851 7.89561C19.9402 7.61159 19.9556 7.32131 20.0303 7.04366C20.1051 6.766 20.2374 6.5072 20.4188 6.28409C20.6002 6.06098 20.8266 5.87858 21.0831 5.74874C21.3397 5.61891 21.6207 5.54456 21.9079 5.53054C22.3288 5.45013 22.7629 5.47284 23.1731 5.59674C23.5833 5.72063 23.9573 5.94202 24.2633 6.24198C24.5806 6.62618 24.7542 7.1089 24.7542 7.60718C24.7542 8.10546 24.5806 8.58818 24.2633 8.97238C24.0225 9.22457 23.7308 9.4227 23.4076 9.55364C23.0844 9.68458 22.7371 9.74534 22.3886 9.7319Z" fill="#D85A49"/>
<path d="M121.479 14.1441C121.964 13.3619 122.665 12.7373 123.498 12.3463C124.556 11.8623 125.732 11.6953 126.883 11.8655C127.729 11.9434 128.531 12.279 129.18 12.827C129.514 13.1478 129.814 13.5022 130.074 13.8845C130.192 14.085 130.295 14.2939 130.382 14.5094L130.921 13.8172C131.614 12.935 132.587 12.3146 133.68 12.0578C134.879 11.7336 136.146 11.757 137.333 12.1251C137.981 12.3181 138.567 12.6755 139.035 13.1624C139.504 13.6493 139.838 14.2491 140.006 14.9036C140.2 15.5665 140.31 16.2513 140.333 16.9418C140.39 19.4799 140.39 22.018 140.4 24.5562C140.397 24.8488 140.355 25.1398 140.275 25.4214C140.21 25.6772 140.073 25.909 139.881 26.0895C139.688 26.2701 139.448 26.3919 139.189 26.4405C138.659 26.5803 138.103 26.5803 137.573 26.4405C137.27 26.3442 137.005 26.1512 136.821 25.8908C136.637 25.6304 136.544 25.317 136.554 24.9984C136.554 22.6237 136.554 20.2587 136.554 17.884C136.528 17.3003 136.445 16.7206 136.304 16.1534C136.228 15.8172 136.054 15.5109 135.804 15.2732C135.555 15.0354 135.24 14.8767 134.901 14.8171C134.467 14.7057 134.015 14.6876 133.575 14.7638C133.134 14.8401 132.714 15.0089 132.343 15.2593C132.02 15.4802 131.745 15.7645 131.535 16.0951C131.325 16.4257 131.185 16.7955 131.122 17.1821C131.029 17.7542 130.984 18.3331 130.988 18.9127C130.988 20.8355 130.988 22.7583 130.988 24.6811C130.985 24.9245 130.953 25.1666 130.892 25.4022C130.822 25.6739 130.676 25.9196 130.469 26.1091C130.262 26.2986 130.005 26.4238 129.728 26.4694C129.24 26.5999 128.726 26.5999 128.238 26.4694C127.911 26.3836 127.623 26.1876 127.423 25.9144C127.224 25.6412 127.124 25.3075 127.142 24.9696C127.142 22.518 127.142 20.076 127.142 17.6244C127.148 17.0154 127.024 16.4122 126.777 15.8554C126.651 15.5778 126.457 15.3364 126.214 15.1533C125.97 14.9701 125.684 14.8512 125.383 14.8075C124.971 14.7112 124.543 14.7027 124.127 14.7825C123.711 14.8623 123.317 15.0287 122.97 15.2707C122.623 15.5128 122.33 15.8252 122.112 16.1876C121.893 16.55 121.753 16.9544 121.701 17.3744C121.616 17.9376 121.574 18.5065 121.576 19.0761C121.576 20.9989 121.576 22.9218 121.576 24.8446C121.596 25.0598 121.571 25.2767 121.503 25.4819C121.435 25.687 121.325 25.8758 121.181 26.0366C121.036 26.1973 120.86 26.3264 120.663 26.4157C120.467 26.5051 120.253 26.5528 120.037 26.5559C119.548 26.6135 119.052 26.5474 118.595 26.3636C118.364 26.2606 118.167 26.0955 118.024 25.8867C117.881 25.6779 117.8 25.4336 117.788 25.1811C117.736 24.7054 117.714 24.227 117.72 23.7486C117.72 20.5118 117.72 17.2655 117.72 14.0095C117.717 13.6315 117.772 13.2553 117.884 12.8943C117.961 12.6333 118.115 12.4017 118.326 12.2301C118.537 12.0584 118.795 11.9548 119.066 11.9328C119.421 11.84 119.793 11.837 120.149 11.9243C120.505 12.0116 120.833 12.1864 121.105 12.4328C121.352 12.7343 121.491 13.1101 121.499 13.4999C121.499 13.6634 121.479 13.8557 121.479 14.1441Z" fill="#1D1B19"/>
<path d="M49.7392 25.1103C49.8449 25.7544 49.095 26.437 48.4509 26.5043C47.9831 26.5719 47.5057 26.5155 47.0665 26.3409C46.4629 26.0291 46.0043 25.4947 45.7878 24.8507C45.4225 24.072 45.086 23.2836 44.7399 22.5049C44.6254 22.2829 44.5227 22.055 44.4322 21.8223C44.4073 21.7305 44.3493 21.6513 44.2694 21.5998C44.1895 21.5483 44.0934 21.5282 43.9996 21.5434H34.2509C34.1804 21.5356 34.1093 21.5524 34.0497 21.5909C33.9902 21.6295 33.9457 21.6874 33.924 21.755C33.4625 22.8317 32.9626 23.9085 32.5011 24.9661C32.2031 25.6006 31.8762 26.2447 31.1071 26.4466C30.7151 26.5927 30.2862 26.6069 29.8855 26.4872C29.4847 26.3675 29.1339 26.1203 28.8862 25.7833C28.7566 25.5511 28.6885 25.2896 28.6885 25.0238C28.6885 24.7579 28.7566 24.4964 28.8862 24.2642C29.5272 22.9824 30.1489 21.6748 30.7514 20.3417L33.0011 15.5346L34.6451 12.0736C35.3854 10.5065 36.1256 8.94898 36.8563 7.38189C37.0683 6.7729 37.4691 6.24747 38.0004 5.88209C38.3694 5.68759 38.7802 5.58594 39.1973 5.58594C39.6145 5.58594 40.0253 5.68759 40.3943 5.88209C40.9125 6.22308 41.307 6.72205 41.5191 7.30497C41.8268 7.99719 42.1825 8.66056 42.4805 9.34316L44.961 14.5636L46.5473 17.9093C47.3869 19.6655 48.2202 21.4281 49.047 23.1971C49.2681 23.6682 49.4604 24.1585 49.6431 24.6392C49.6983 24.7906 49.7307 24.9493 49.7392 25.1103ZM39.1637 9.92962C37.885 12.8138 36.6352 15.6981 35.3661 18.5246H42.9613C41.7114 15.6692 40.452 12.8235 39.1829 9.92962H39.1637Z" fill="#1D1B19"/>
<path d="M93.5607 24.2064C93.3396 24.4756 93.1569 24.7352 92.9358 24.9563C92.127 25.8079 91.0451 26.3489 89.8785 26.485C88.7669 26.6687 87.6277 26.5896 86.552 26.2542C85.8287 26.0191 85.159 25.6432 84.5815 25.1482C84.004 24.6532 83.5301 24.0489 83.1871 23.37C82.5856 22.2303 82.2565 20.9666 82.2257 19.6782C82.1427 18.442 82.2994 17.2015 82.6872 16.0248C82.9954 15.007 83.5725 14.0911 84.3576 13.3737C85.1426 12.6563 86.1067 12.1639 87.1481 11.9485C88.5923 11.5813 90.1194 11.731 91.4649 12.3715C91.8508 12.561 92.2124 12.7967 92.5416 13.0733C92.8685 13.3425 93.1473 13.6694 93.503 14.0347V13.6694C93.503 11.5543 93.503 9.43918 93.503 7.32408C93.4794 7.10846 93.5025 6.89028 93.5708 6.6844C93.6391 6.47852 93.7509 6.28977 93.8987 6.13101C94.0465 5.97226 94.2268 5.84723 94.4273 5.76443C94.6278 5.68163 94.8438 5.64302 95.0605 5.65122C95.4237 5.63658 95.7874 5.65589 96.1469 5.70891C96.5134 5.78534 96.8388 5.99444 97.0606 6.29609C97.2824 6.59773 97.385 6.97066 97.3487 7.3433V16.669C97.3487 19.3802 97.3487 22.1009 97.3487 24.8121C97.3691 25.0284 97.3435 25.2465 97.2735 25.4521C97.2036 25.6577 97.0909 25.8462 96.9429 26.0052C96.7948 26.1641 96.6148 26.2899 96.4146 26.3743C96.2145 26.4586 95.9987 26.4996 95.7816 26.4946C95.2861 26.5672 94.7801 26.5006 94.3202 26.3023C94.0812 26.1883 93.8799 26.0082 93.7402 25.7832C93.6005 25.5583 93.5282 25.298 93.5319 25.0332C93.5268 24.7573 93.5365 24.4813 93.5607 24.2064ZM86.0617 19.1398C86.1386 19.7359 86.1867 20.3319 86.3213 20.9184C86.3967 21.3753 86.5643 21.8121 86.8139 22.2021C87.0635 22.5922 87.3898 22.9274 87.773 23.1873C88.489 23.6724 89.3569 23.8808 90.215 23.7738C90.9933 23.7198 91.7296 23.4009 92.3013 22.8701C92.7127 22.4409 93.035 21.9344 93.2495 21.38C93.464 20.8255 93.5665 20.234 93.5511 19.6397C93.5786 18.9962 93.5367 18.3515 93.4261 17.7169C93.3638 17.2106 93.1933 16.7237 92.9263 16.289C92.6592 15.8544 92.3018 15.4823 91.8783 15.198C91.4337 14.9139 90.9345 14.7261 90.4129 14.6466C89.8913 14.5671 89.3588 14.5978 88.8498 14.7365C88.372 14.8434 87.9251 15.0585 87.5434 15.3651C87.1617 15.6718 86.8555 16.062 86.6482 16.5055C86.2768 17.335 86.0773 18.2311 86.0617 19.1398Z" fill="#1D1B19"/>
<path d="M75.6481 24.2284C75.2498 24.9493 74.6655 25.5502 73.956 25.9685C73.4157 26.2957 72.8069 26.4932 72.1774 26.5454C71.0805 26.6644 69.9709 26.5397 68.9279 26.18C67.7798 25.7907 66.817 24.989 66.2263 23.9303C65.9791 23.4471 65.8413 22.9153 65.8225 22.3729C65.7756 21.7687 65.8475 21.1612 66.034 20.5846C66.2705 19.8912 66.762 19.3137 67.4088 18.9695C68.2094 18.5247 69.0931 18.2498 70.0046 18.1619C70.966 18.0561 71.9755 17.9504 72.9658 17.9119C73.956 17.8735 74.6867 17.9119 75.5712 17.9119C75.7145 17.0265 75.5262 16.1194 75.0424 15.3642C74.7323 14.9986 74.2969 14.762 73.8214 14.7008C72.9602 14.5422 72.0772 14.5422 71.216 14.7008C70.2346 14.9261 69.2707 15.2217 68.3318 15.5853C68.1516 15.637 67.962 15.6465 67.7776 15.6131C67.5932 15.5797 67.4189 15.5043 67.2683 15.3928C67.1178 15.2812 66.9949 15.1365 66.9092 14.9698C66.8235 14.8032 66.7774 14.619 66.7743 14.4316C66.7743 13.4702 67.13 13.028 68.0722 12.6915C69.16 12.2821 70.2929 12.0045 71.4467 11.8647C72.5016 11.7365 73.5689 11.7527 74.6194 11.9127C75.6604 12.0378 76.6528 12.4248 77.5036 13.0376C78.264 13.6403 78.8019 14.4793 79.0323 15.4219C79.2276 16.1684 79.3182 16.9385 79.3015 17.71C79.3015 20.0655 79.3015 22.4305 79.3015 24.786C79.3226 24.9932 79.3017 25.2025 79.24 25.4014C79.1783 25.6003 79.0771 25.7848 78.9424 25.9436C78.8078 26.1025 78.6425 26.2326 78.4564 26.3261C78.2702 26.4196 78.0672 26.4745 77.8593 26.4877C77.4136 26.5519 76.9588 26.4955 76.5422 26.3243C76.2869 26.1988 76.0731 26.0024 75.9265 25.7585C75.7798 25.5147 75.7066 25.2338 75.7154 24.9494C75.6385 24.7475 75.6481 24.5264 75.6481 24.2284ZM75.5904 20.0174C74.879 20.0174 74.1771 20.0174 73.4849 20.0174C72.7927 20.0174 72.1197 20.1135 71.4467 20.2193C70.9542 20.2648 70.4844 20.448 70.0912 20.7481C69.9067 20.9423 69.7672 21.1747 69.6826 21.4289C69.598 21.683 69.5703 21.9527 69.6014 22.2187C69.6326 22.4847 69.7219 22.7407 69.8631 22.9683C70.0042 23.196 70.1936 23.3899 70.418 23.5362C70.8303 23.8129 71.3025 23.9877 71.7956 24.0462C72.2886 24.1047 72.7886 24.0452 73.2542 23.8727C74.0445 23.622 74.717 23.093 75.1466 22.384C75.5763 21.6749 75.734 20.834 75.5904 20.0174Z" fill="#1D1B19"/>
<path d="M104.127 20.0751C104.211 20.9341 104.545 21.7495 105.088 22.4209C105.47 22.828 105.93 23.1543 106.44 23.3806C106.95 23.6068 107.501 23.7284 108.059 23.738C109.087 23.8194 110.121 23.7052 111.106 23.4015C111.551 23.2527 111.985 23.0728 112.404 22.8632C112.612 22.7485 112.841 22.6759 113.076 22.6495C113.312 22.6231 113.551 22.6434 113.779 22.7093C114.049 22.8298 114.269 23.0379 114.405 23.2997C114.542 23.5615 114.585 23.8617 114.529 24.1514C114.478 24.4219 114.365 24.6768 114.198 24.8955C114.031 25.1143 113.815 25.2908 113.568 25.4109C112.598 25.96 111.53 26.3128 110.424 26.4492C109.812 26.5624 109.191 26.6235 108.568 26.6319C107.667 26.5905 106.771 26.4813 105.886 26.305C104.833 26.092 103.845 25.6342 103.002 24.9686C101.918 24.1451 101.126 22.9962 100.742 21.6902C100.427 20.5587 100.336 19.3765 100.473 18.2099C100.607 16.7148 101.222 15.3032 102.225 14.187C103.229 13.0707 104.567 12.3098 106.04 12.0185C106.847 11.8415 107.677 11.7832 108.501 11.8454C109.961 11.8613 111.367 12.3933 112.473 13.347C113.578 14.3007 114.309 15.6147 114.539 17.0562C114.642 17.6701 114.706 18.2898 114.731 18.9118C114.758 19.0612 114.75 19.2151 114.706 19.3606C114.662 19.5061 114.585 19.6392 114.48 19.749C114.375 19.8587 114.245 19.942 114.101 19.992C113.958 20.042 113.805 20.0573 113.654 20.0366C111.686 20.0751 109.712 20.0975 107.732 20.1039H104.117L104.127 20.0751ZM111.51 17.8831C111.47 17.5375 111.412 17.1941 111.337 16.8543C111.161 16.0759 110.702 15.3907 110.049 14.9315C109.638 14.6651 109.178 14.4829 108.696 14.3954C108.214 14.3079 107.72 14.317 107.242 14.422C106.611 14.5189 106.018 14.7832 105.524 15.1873C105.03 15.5915 104.654 16.1207 104.434 16.7198C104.29 17.0851 104.232 17.4793 104.117 17.8831H111.51Z" fill="#1D1B19"/>
<path d="M150.226 21.8997L151.457 19.0155L152.716 16.0736L153.966 13.1317C154.055 12.8674 154.2 12.6252 154.39 12.4209C154.58 12.2167 154.812 12.0552 155.069 11.9471C155.326 11.8389 155.603 11.7866 155.882 11.7936C156.161 11.8006 156.435 11.8667 156.687 11.9876C156.878 12.076 157.049 12.2031 157.189 12.3607C157.328 12.5183 157.434 12.7031 157.499 12.9035C157.564 13.1039 157.587 13.3156 157.566 13.5253C157.546 13.735 157.482 13.9381 157.379 14.1219C156.783 15.4295 156.168 16.7466 155.571 18.0541L153.043 23.563C152.476 24.8128 151.899 26.053 151.332 27.3029C150.841 28.37 150.37 29.4564 149.851 30.5236C149.752 30.7878 149.592 31.0253 149.386 31.2172C149.179 31.4091 148.93 31.5502 148.659 31.6292C148.147 31.7966 147.593 31.7796 147.092 31.5811C146.759 31.4461 146.492 31.1871 146.347 30.8588C146.202 30.5306 146.189 30.1588 146.313 29.8218C146.559 29.1252 146.848 28.4446 147.178 27.7836C147.476 27.1298 147.803 26.4857 148.092 25.8608C148.148 25.722 148.148 25.5669 148.092 25.4281C147.784 24.7359 147.467 24.0533 147.13 23.3707C146.313 21.5921 145.486 19.8231 144.688 18.0349C144.083 16.7178 143.506 15.3814 142.919 14.0546C142.771 13.7197 142.746 13.3434 142.848 12.9918C142.95 12.6401 143.173 12.3357 143.477 12.1318C144.14 11.7761 145.63 11.6992 146.111 12.4106C146.383 12.832 146.618 13.2758 146.813 13.7374C147.38 15.0641 147.938 16.3909 148.495 17.7272L150.168 21.7748C150.168 21.7748 150.188 21.8228 150.226 21.8997Z" fill="#1D1B19"/>
<path d="M51.4304 19.1044C51.3913 17.8549 51.6657 16.6155 52.2284 15.4991C52.9525 14.0622 54.1971 12.9551 55.7087 12.4034C56.996 11.9177 58.3759 11.7271 59.7466 11.8458C61.1051 11.893 62.4289 12.2868 63.5922 12.9899C63.8818 13.1423 64.1042 13.3971 64.2161 13.7046C64.3281 14.012 64.3216 14.3502 64.1979 14.6531C64.1107 14.9411 63.9302 15.1918 63.6847 15.3659C63.4393 15.54 63.143 15.6274 62.8424 15.6145C62.5858 15.5874 62.3373 15.5089 62.1117 15.3838C61.4049 14.952 60.6024 14.7015 59.7756 14.6546C58.9487 14.6076 58.123 14.7656 57.3719 15.1146C56.9493 15.3331 56.577 15.6376 56.279 16.0084C55.981 16.3793 55.7638 16.8084 55.6414 17.2681C55.4117 18.0044 55.3236 18.7776 55.3818 19.5467C55.3844 20.1856 55.5239 20.8165 55.7909 21.397C56.0579 21.9774 56.4462 22.4939 56.9297 22.9116C57.4682 23.3166 58.1058 23.569 58.7756 23.6423C59.9632 23.7768 61.1626 23.5274 62.1982 22.9308C62.3999 22.8198 62.6276 22.7643 62.8578 22.7703C63.088 22.7762 63.3125 22.8433 63.5082 22.9647C63.7039 23.086 63.8638 23.2572 63.9715 23.4608C64.0792 23.6644 64.1308 23.8929 64.121 24.123C64.1397 24.419 64.0653 24.7133 63.9085 24.965C63.7516 25.2167 63.5201 25.413 63.2461 25.5267C62.3201 26.0273 61.3098 26.3532 60.2658 26.4881C58.4477 26.7592 56.5904 26.4602 54.9492 25.6324C53.906 25.0961 53.0385 24.272 52.4495 23.2577C51.9201 22.379 51.5918 21.3941 51.4881 20.3735C51.4785 19.9312 51.4593 19.5178 51.4304 19.1044Z" fill="#1D1B19"/>
</svg>
