<svg width="544" height="37" viewBox="0 0 544 37" fill="none" xmlns="http://www.w3.org/2000/svg">
<path d="M0.576 2.93711V0.873109H4.432V12.5371H2.128V2.93711H0.576ZM9.23688 9.25711C9.32221 9.72644 9.51421 10.0891 9.81288 10.3451C10.1222 10.5904 10.5329 10.7131 11.0449 10.7131C11.7062 10.7131 12.1862 10.4411 12.4849 9.89711C12.7835 9.34244 12.9329 8.41444 12.9329 7.11311C12.6875 7.45444 12.3409 7.72111 11.8929 7.91311C11.4555 8.10511 10.9809 8.20111 10.4689 8.20111C9.78621 8.20111 9.16754 8.06244 8.61288 7.78511C8.06888 7.49711 7.63688 7.07578 7.31688 6.52111C6.99688 5.95578 6.83688 5.27311 6.83688 4.47311C6.83688 3.28911 7.18888 2.35044 7.89288 1.65711C8.59688 0.953109 9.55688 0.601109 10.7729 0.601109C12.2875 0.601109 13.3542 1.08644 13.9729 2.05711C14.6022 3.02778 14.9169 4.48911 14.9169 6.44111C14.9169 7.82778 14.7942 8.96378 14.5489 9.84911C14.3142 10.7344 13.9035 11.4064 13.3169 11.8651C12.7409 12.3238 11.9515 12.5531 10.9489 12.5531C10.1595 12.5531 9.48754 12.4038 8.93288 12.1051C8.37821 11.7958 7.95154 11.3958 7.65288 10.9051C7.36488 10.4038 7.19954 9.85444 7.15688 9.25711H9.23688ZM10.9329 6.37711C11.4875 6.37711 11.9249 6.20644 12.2449 5.86511C12.5649 5.52378 12.7249 5.06511 12.7249 4.48911C12.7249 3.85978 12.5542 3.37444 12.2129 3.03311C11.8822 2.68111 11.4289 2.50511 10.8529 2.50511C10.2769 2.50511 9.81821 2.68644 9.47688 3.04911C9.14621 3.40111 8.98088 3.87044 8.98088 4.45711C8.98088 5.02244 9.14088 5.48644 9.46088 5.84911C9.79154 6.20111 10.2822 6.37711 10.9329 6.37711ZM17.9085 12.6491C17.5032 12.6491 17.1672 12.5264 16.9005 12.2811C16.6445 12.0251 16.5165 11.7104 16.5165 11.3371C16.5165 10.9638 16.6445 10.6544 16.9005 10.4091C17.1672 10.1531 17.5032 10.0251 17.9085 10.0251C18.3032 10.0251 18.6285 10.1531 18.8845 10.4091C19.1405 10.6544 19.2685 10.9638 19.2685 11.3371C19.2685 11.7104 19.1405 12.0251 18.8845 12.2811C18.6285 12.5264 18.3032 12.6491 17.9085 12.6491ZM31.8773 1.38511V2.56911H28.8373V12.5371H27.3813V2.56911H24.3253V1.38511H31.8773ZM38.0215 3.60911C38.6828 3.60911 39.2802 3.75311 39.8135 4.04111C40.3468 4.31844 40.7628 4.73978 41.0615 5.30511C41.3708 5.87044 41.5255 6.55844 41.5255 7.36911V12.5371H40.0855V7.57711C40.0855 6.70244 39.8668 6.03578 39.4295 5.57711C38.9922 5.10778 38.3948 4.87311 37.6375 4.87311C36.8695 4.87311 36.2562 5.11311 35.7975 5.59311C35.3495 6.07311 35.1255 6.77178 35.1255 7.68911V12.5371H33.6695V0.697109H35.1255V5.01711C35.4135 4.56911 35.8082 4.22244 36.3095 3.97711C36.8215 3.73178 37.3922 3.60911 38.0215 3.60911ZM51.9039 7.81711C51.9039 8.09444 51.8879 8.38778 51.8559 8.69711H44.8479C44.9012 9.56111 45.1945 10.2384 45.7279 10.7291C46.2719 11.2091 46.9279 11.4491 47.6959 11.4491C48.3252 11.4491 48.8479 11.3051 49.2639 11.0171C49.6905 10.7184 49.9892 10.3238 50.1599 9.83311H51.7279C51.4932 10.6758 51.0239 11.3638 50.3199 11.8971C49.6159 12.4198 48.7412 12.6811 47.6959 12.6811C46.8639 12.6811 46.1172 12.4944 45.4559 12.1211C44.8052 11.7478 44.2932 11.2198 43.9199 10.5371C43.5465 9.84378 43.3599 9.04378 43.3599 8.13711C43.3599 7.23044 43.5412 6.43578 43.9039 5.75311C44.2665 5.07044 44.7732 4.54778 45.4239 4.18511C46.0852 3.81178 46.8425 3.62511 47.6959 3.62511C48.5279 3.62511 49.2639 3.80644 49.9039 4.16911C50.5439 4.53178 51.0345 5.03311 51.3759 5.67311C51.7279 6.30244 51.9039 7.01711 51.9039 7.81711ZM50.3999 7.51311C50.3999 6.95844 50.2772 6.48378 50.0319 6.08911C49.7865 5.68378 49.4505 5.37978 49.0239 5.17711C48.6079 4.96378 48.1439 4.85711 47.6319 4.85711C46.8959 4.85711 46.2665 5.09178 45.7439 5.56111C45.2319 6.03044 44.9385 6.68111 44.8639 7.51311H50.3999ZM64.3954 1.38511V2.56911H59.5474V6.32911H63.4834V7.51311H59.5474V12.5371H58.0914V1.38511H64.3954ZM69.9779 12.6811C69.1565 12.6811 68.4099 12.4944 67.7379 12.1211C67.0765 11.7478 66.5539 11.2198 66.1699 10.5371C65.7965 9.84378 65.6099 9.04378 65.6099 8.13711C65.6099 7.24111 65.8019 6.45178 66.1859 5.76911C66.5805 5.07578 67.1139 4.54778 67.7859 4.18511C68.4579 3.81178 69.2099 3.62511 70.0419 3.62511C70.8739 3.62511 71.6259 3.81178 72.2979 4.18511C72.9699 4.54778 73.4979 5.07044 73.8819 5.75311C74.2765 6.43578 74.4739 7.23044 74.4739 8.13711C74.4739 9.04378 74.2712 9.84378 73.8659 10.5371C73.4712 11.2198 72.9325 11.7478 72.2499 12.1211C71.5672 12.4944 70.8099 12.6811 69.9779 12.6811ZM69.9779 11.4011C70.5005 11.4011 70.9912 11.2784 71.4499 11.0331C71.9085 10.7878 72.2765 10.4198 72.5539 9.92911C72.8419 9.43844 72.9859 8.84111 72.9859 8.13711C72.9859 7.43311 72.8472 6.83578 72.5699 6.34511C72.2925 5.85444 71.9299 5.49178 71.4819 5.25711C71.0339 5.01178 70.5485 4.88911 70.0259 4.88911C69.4925 4.88911 69.0019 5.01178 68.5539 5.25711C68.1165 5.49178 67.7645 5.85444 67.4979 6.34511C67.2312 6.83578 67.0979 7.43311 67.0979 8.13711C67.0979 8.85178 67.2259 9.45444 67.4819 9.94511C67.7485 10.4358 68.1005 10.8038 68.5379 11.0491C68.9752 11.2838 69.4552 11.4011 69.9779 11.4011ZM77.8443 5.19311C78.1003 4.69178 78.4629 4.30244 78.9323 4.02511C79.4123 3.74778 79.9936 3.60911 80.6763 3.60911V5.11311H80.2923C78.6603 5.11311 77.8443 5.99844 77.8443 7.76911V12.5371H76.3883V3.76911H77.8443V5.19311ZM92.901 3.60911C93.5837 3.60911 94.1917 3.75311 94.725 4.04111C95.2583 4.31844 95.6797 4.73978 95.989 5.30511C96.2983 5.87044 96.453 6.55844 96.453 7.36911V12.5371H95.013V7.57711C95.013 6.70244 94.7943 6.03578 94.357 5.57711C93.9303 5.10778 93.349 4.87311 92.613 4.87311C91.8557 4.87311 91.253 5.11844 90.805 5.60911C90.357 6.08911 90.133 6.78778 90.133 7.70511V12.5371H88.693V7.57711C88.693 6.70244 88.4743 6.03578 88.037 5.57711C87.6103 5.10778 87.029 4.87311 86.293 4.87311C85.5357 4.87311 84.933 5.11844 84.485 5.60911C84.037 6.08911 83.813 6.78778 83.813 7.70511V12.5371H82.357V3.76911H83.813V5.03311C84.101 4.57444 84.485 4.22244 84.965 3.97711C85.4557 3.73178 85.9943 3.60911 86.581 3.60911C87.317 3.60911 87.9677 3.77444 88.533 4.10511C89.0983 4.43578 89.5197 4.92111 89.797 5.56111C90.0423 4.94244 90.4477 4.46244 91.013 4.12111C91.5783 3.77978 92.2077 3.60911 92.901 3.60911ZM106.617 3.76911V12.5371H105.161V11.2411C104.884 11.6891 104.495 12.0411 103.993 12.2971C103.503 12.5424 102.959 12.6651 102.361 12.6651C101.679 12.6651 101.065 12.5264 100.521 12.2491C99.9774 11.9611 99.5454 11.5344 99.2254 10.9691C98.916 10.4038 98.7614 9.71578 98.7614 8.90511V3.76911H100.201V8.71311C100.201 9.57711 100.42 10.2438 100.857 10.7131C101.295 11.1718 101.892 11.4011 102.649 11.4011C103.428 11.4011 104.041 11.1611 104.489 10.6811C104.937 10.2011 105.161 9.50244 105.161 8.58511V3.76911H106.617ZM110.532 0.697109V12.5371H109.076V0.697109H110.532ZM112.469 8.12111C112.469 7.22511 112.651 6.44111 113.013 5.76911C113.376 5.08644 113.872 4.55844 114.501 4.18511C115.141 3.81178 115.851 3.62511 116.629 3.62511C117.397 3.62511 118.064 3.79044 118.629 4.12111C119.195 4.45178 119.616 4.86778 119.893 5.36911V3.76911H121.365V12.5371H119.893V10.9051C119.605 11.4171 119.173 11.8438 118.597 12.1851C118.032 12.5158 117.371 12.6811 116.613 12.6811C115.835 12.6811 115.131 12.4891 114.501 12.1051C113.872 11.7211 113.376 11.1824 113.013 10.4891C112.651 9.79578 112.469 9.00644 112.469 8.12111ZM119.893 8.13711C119.893 7.47578 119.76 6.89978 119.493 6.40911C119.227 5.91844 118.864 5.54511 118.405 5.28911C117.957 5.02244 117.461 4.88911 116.917 4.88911C116.373 4.88911 115.877 5.01711 115.429 5.27311C114.981 5.52911 114.624 5.90244 114.357 6.39311C114.091 6.88378 113.957 7.45978 113.957 8.12111C113.957 8.79311 114.091 9.37978 114.357 9.88111C114.624 10.3718 114.981 10.7504 115.429 11.0171C115.877 11.2731 116.373 11.4011 116.917 11.4011C117.461 11.4011 117.957 11.2731 118.405 11.0171C118.864 10.7504 119.227 10.3718 119.493 9.88111C119.76 9.37978 119.893 8.79844 119.893 8.13711ZM131.659 4.96911H129.819V12.5371H128.363V4.96911H127.227V3.76911H128.363V3.14511C128.363 2.16378 128.614 1.44911 129.115 1.00111C129.627 0.542442 130.443 0.313108 131.563 0.313108V1.52911C130.923 1.52911 130.47 1.65711 130.203 1.91311C129.947 2.15844 129.819 2.56911 129.819 3.14511V3.76911H131.659V4.96911ZM137.181 12.6811C136.36 12.6811 135.613 12.4944 134.941 12.1211C134.28 11.7478 133.757 11.2198 133.373 10.5371C133 9.84378 132.813 9.04378 132.813 8.13711C132.813 7.24111 133.005 6.45178 133.389 5.76911C133.784 5.07578 134.317 4.54778 134.989 4.18511C135.661 3.81178 136.413 3.62511 137.245 3.62511C138.077 3.62511 138.829 3.81178 139.501 4.18511C140.173 4.54778 140.701 5.07044 141.085 5.75311C141.48 6.43578 141.677 7.23044 141.677 8.13711C141.677 9.04378 141.474 9.84378 141.069 10.5371C140.674 11.2198 140.136 11.7478 139.453 12.1211C138.77 12.4944 138.013 12.6811 137.181 12.6811ZM137.181 11.4011C137.704 11.4011 138.194 11.2784 138.653 11.0331C139.112 10.7878 139.48 10.4198 139.757 9.92911C140.045 9.43844 140.189 8.84111 140.189 8.13711C140.189 7.43311 140.05 6.83578 139.773 6.34511C139.496 5.85444 139.133 5.49178 138.685 5.25711C138.237 5.01178 137.752 4.88911 137.229 4.88911C136.696 4.88911 136.205 5.01178 135.757 5.25711C135.32 5.49178 134.968 5.85444 134.701 6.34511C134.434 6.83578 134.301 7.43311 134.301 8.13711C134.301 8.85178 134.429 9.45444 134.685 9.94511C134.952 10.4358 135.304 10.8038 135.741 11.0491C136.178 11.2838 136.658 11.4011 137.181 11.4011ZM145.047 5.19311C145.303 4.69178 145.666 4.30244 146.135 4.02511C146.615 3.74778 147.197 3.60911 147.879 3.60911V5.11311H147.495C145.863 5.11311 145.047 5.99844 145.047 7.76911V12.5371H143.591V3.76911H145.047V5.19311ZM155.602 4.96911V10.1371C155.602 10.5638 155.692 10.8678 155.874 11.0491C156.055 11.2198 156.37 11.3051 156.818 11.3051H157.89V12.5371H156.578C155.767 12.5371 155.159 12.3504 154.754 11.9771C154.348 11.6038 154.146 10.9904 154.146 10.1371V4.96911H153.01V3.76911H154.146V1.56111H155.602V3.76911H157.89V4.96911H155.602ZM164.006 3.60911C164.667 3.60911 165.265 3.75311 165.798 4.04111C166.331 4.31844 166.747 4.73978 167.046 5.30511C167.355 5.87044 167.51 6.55844 167.51 7.36911V12.5371H166.07V7.57711C166.07 6.70244 165.851 6.03578 165.414 5.57711C164.977 5.10778 164.379 4.87311 163.622 4.87311C162.854 4.87311 162.241 5.11311 161.782 5.59311C161.334 6.07311 161.11 6.77178 161.11 7.68911V12.5371H159.654V0.697109H161.11V5.01711C161.398 4.56911 161.793 4.22244 162.294 3.97711C162.806 3.73178 163.377 3.60911 164.006 3.60911ZM177.888 7.81711C177.888 8.09444 177.872 8.38778 177.84 8.69711H170.832C170.886 9.56111 171.179 10.2384 171.712 10.7291C172.256 11.2091 172.912 11.4491 173.68 11.4491C174.31 11.4491 174.832 11.3051 175.248 11.0171C175.675 10.7184 175.974 10.3238 176.144 9.83311H177.712C177.478 10.6758 177.008 11.3638 176.304 11.8971C175.6 12.4198 174.726 12.6811 173.68 12.6811C172.848 12.6811 172.102 12.4944 171.44 12.1211C170.79 11.7478 170.278 11.2198 169.904 10.5371C169.531 9.84378 169.344 9.04378 169.344 8.13711C169.344 7.23044 169.526 6.43578 169.888 5.75311C170.251 5.07044 170.758 4.54778 171.408 4.18511C172.07 3.81178 172.827 3.62511 173.68 3.62511C174.512 3.62511 175.248 3.80644 175.888 4.16911C176.528 4.53178 177.019 5.03311 177.36 5.67311C177.712 6.30244 177.888 7.01711 177.888 7.81711ZM176.384 7.51311C176.384 6.95844 176.262 6.48378 176.016 6.08911C175.771 5.68378 175.435 5.37978 175.008 5.17711C174.592 4.96378 174.128 4.85711 173.616 4.85711C172.88 4.85711 172.251 5.09178 171.728 5.56111C171.216 6.03044 170.923 6.68111 170.848 7.51311H176.384ZM183.532 8.12111C183.532 7.22511 183.713 6.44111 184.076 5.76911C184.438 5.08644 184.934 4.55844 185.564 4.18511C186.204 3.81178 186.913 3.62511 187.692 3.62511C188.46 3.62511 189.126 3.79044 189.692 4.12111C190.257 4.45178 190.678 4.86778 190.956 5.36911V3.76911H192.428V12.5371H190.956V10.9051C190.668 11.4171 190.236 11.8438 189.66 12.1851C189.094 12.5158 188.433 12.6811 187.676 12.6811C186.897 12.6811 186.193 12.4891 185.564 12.1051C184.934 11.7211 184.438 11.1824 184.076 10.4891C183.713 9.79578 183.532 9.00644 183.532 8.12111ZM190.956 8.13711C190.956 7.47578 190.822 6.89978 190.556 6.40911C190.289 5.91844 189.926 5.54511 189.468 5.28911C189.02 5.02244 188.524 4.88911 187.98 4.88911C187.436 4.88911 186.94 5.01711 186.492 5.27311C186.044 5.52911 185.686 5.90244 185.42 6.39311C185.153 6.88378 185.02 7.45978 185.02 8.12111C185.02 8.79311 185.153 9.37978 185.42 9.88111C185.686 10.3718 186.044 10.7504 186.492 11.0171C186.94 11.2731 187.436 11.4011 187.98 11.4011C188.524 11.4011 189.02 11.2731 189.468 11.0171C189.926 10.7504 190.289 10.3718 190.556 9.88111C190.822 9.37978 190.956 8.79844 190.956 8.13711ZM196.344 5.19311C196.6 4.69178 196.963 4.30244 197.432 4.02511C197.912 3.74778 198.494 3.60911 199.176 3.60911V5.11311H198.792C197.16 5.11311 196.344 5.99844 196.344 7.76911V12.5371H194.888V3.76911H196.344V5.19311ZM208.857 7.81711C208.857 8.09444 208.841 8.38778 208.809 8.69711H201.801C201.854 9.56111 202.148 10.2384 202.681 10.7291C203.225 11.2091 203.881 11.4491 204.649 11.4491C205.278 11.4491 205.801 11.3051 206.217 11.0171C206.644 10.7184 206.942 10.3238 207.113 9.83311H208.681C208.446 10.6758 207.977 11.3638 207.273 11.8971C206.569 12.4198 205.694 12.6811 204.649 12.6811C203.817 12.6811 203.07 12.4944 202.409 12.1211C201.758 11.7478 201.246 11.2198 200.873 10.5371C200.5 9.84378 200.313 9.04378 200.313 8.13711C200.313 7.23044 200.494 6.43578 200.857 5.75311C201.22 5.07044 201.726 4.54778 202.377 4.18511C203.038 3.81178 203.796 3.62511 204.649 3.62511C205.481 3.62511 206.217 3.80644 206.857 4.16911C207.497 4.53178 207.988 5.03311 208.329 5.67311C208.681 6.30244 208.857 7.01711 208.857 7.81711ZM207.353 7.51311C207.353 6.95844 207.23 6.48378 206.985 6.08911C206.74 5.68378 206.404 5.37978 205.977 5.17711C205.561 4.96378 205.097 4.85711 204.585 4.85711C203.849 4.85711 203.22 5.09178 202.697 5.56111C202.185 6.03044 201.892 6.68111 201.817 7.51311H207.353ZM210.235 8.12111C210.235 7.22511 210.416 6.44111 210.779 5.76911C211.142 5.08644 211.638 4.55844 212.267 4.18511C212.907 3.81178 213.616 3.62511 214.395 3.62511C215.163 3.62511 215.83 3.79044 216.395 4.12111C216.96 4.45178 217.382 4.86778 217.659 5.36911V3.76911H219.131V12.5371H217.659V10.9051C217.371 11.4171 216.939 11.8438 216.363 12.1851C215.798 12.5158 215.136 12.6811 214.379 12.6811C213.6 12.6811 212.896 12.4891 212.267 12.1051C211.638 11.7211 211.142 11.1824 210.779 10.4891C210.416 9.79578 210.235 9.00644 210.235 8.12111ZM217.659 8.13711C217.659 7.47578 217.526 6.89978 217.259 6.40911C216.992 5.91844 216.63 5.54511 216.171 5.28911C215.723 5.02244 215.227 4.88911 214.683 4.88911C214.139 4.88911 213.643 5.01711 213.195 5.27311C212.747 5.52911 212.39 5.90244 212.123 6.39311C211.856 6.88378 211.723 7.45978 211.723 8.12111C211.723 8.79311 211.856 9.37978 212.123 9.88111C212.39 10.3718 212.747 10.7504 213.195 11.0171C213.643 11.2731 214.139 11.4011 214.683 11.4011C215.227 11.4011 215.723 11.2731 216.171 11.0171C216.63 10.7504 216.992 10.3718 217.259 9.88111C217.526 9.37978 217.659 8.79844 217.659 8.13711ZM229.681 12.6811C228.86 12.6811 228.113 12.4944 227.441 12.1211C226.78 11.7478 226.257 11.2198 225.873 10.5371C225.5 9.84378 225.313 9.04378 225.313 8.13711C225.313 7.24111 225.505 6.45178 225.889 5.76911C226.284 5.07578 226.817 4.54778 227.489 4.18511C228.161 3.81178 228.913 3.62511 229.745 3.62511C230.577 3.62511 231.329 3.81178 232.001 4.18511C232.673 4.54778 233.201 5.07044 233.585 5.75311C233.98 6.43578 234.177 7.23044 234.177 8.13711C234.177 9.04378 233.974 9.84378 233.569 10.5371C233.174 11.2198 232.636 11.7478 231.953 12.1211C231.27 12.4944 230.513 12.6811 229.681 12.6811ZM229.681 11.4011C230.204 11.4011 230.694 11.2784 231.153 11.0331C231.612 10.7878 231.98 10.4198 232.257 9.92911C232.545 9.43844 232.689 8.84111 232.689 8.13711C232.689 7.43311 232.55 6.83578 232.273 6.34511C231.996 5.85444 231.633 5.49178 231.185 5.25711C230.737 5.01178 230.252 4.88911 229.729 4.88911C229.196 4.88911 228.705 5.01178 228.257 5.25711C227.82 5.49178 227.468 5.85444 227.201 6.34511C226.934 6.83578 226.801 7.43311 226.801 8.13711C226.801 8.85178 226.929 9.45444 227.185 9.94511C227.452 10.4358 227.804 10.8038 228.241 11.0491C228.678 11.2838 229.158 11.4011 229.681 11.4011ZM239.659 4.96911H237.819V12.5371H236.363V4.96911H235.227V3.76911H236.363V3.14511C236.363 2.16378 236.614 1.44911 237.115 1.00111C237.627 0.542442 238.443 0.313108 239.563 0.313108V1.52911C238.923 1.52911 238.47 1.65711 238.203 1.91311C237.947 2.15844 237.819 2.56911 237.819 3.14511V3.76911H239.659V4.96911ZM245.079 8.12111C245.079 7.22511 245.26 6.44111 245.623 5.76911C245.985 5.08644 246.481 4.55844 247.111 4.18511C247.751 3.81178 248.46 3.62511 249.239 3.62511C250.007 3.62511 250.673 3.79044 251.239 4.12111C251.804 4.45178 252.225 4.86778 252.503 5.36911V3.76911H253.975V12.5371H252.503V10.9051C252.215 11.4171 251.783 11.8438 251.207 12.1851C250.641 12.5158 249.98 12.6811 249.223 12.6811C248.444 12.6811 247.74 12.4891 247.111 12.1051C246.481 11.7211 245.985 11.1824 245.623 10.4891C245.26 9.79578 245.079 9.00644 245.079 8.12111ZM252.503 8.13711C252.503 7.47578 252.369 6.89978 252.103 6.40911C251.836 5.91844 251.473 5.54511 251.015 5.28911C250.567 5.02244 250.071 4.88911 249.527 4.88911C248.983 4.88911 248.487 5.01711 248.039 5.27311C247.591 5.52911 247.233 5.90244 246.967 6.39311C246.7 6.88378 246.567 7.45978 246.567 8.12111C246.567 8.79311 246.7 9.37978 246.967 9.88111C247.233 10.3718 247.591 10.7504 248.039 11.0171C248.487 11.2731 248.983 11.4011 249.527 11.4011C250.071 11.4011 250.567 11.2731 251.015 11.0171C251.473 10.7504 251.836 10.3718 252.103 9.88111C252.369 9.37978 252.503 8.79844 252.503 8.13711ZM260.157 8.13711C260.157 7.23044 260.338 6.44111 260.701 5.76911C261.063 5.08644 261.565 4.55844 262.205 4.18511C262.855 3.81178 263.597 3.62511 264.429 3.62511C265.506 3.62511 266.391 3.88644 267.085 4.40911C267.789 4.93178 268.253 5.65711 268.477 6.58511H266.909C266.759 6.05178 266.466 5.63044 266.029 5.32111C265.602 5.01178 265.069 4.85711 264.429 4.85711C263.597 4.85711 262.925 5.14511 262.413 5.72111C261.901 6.28644 261.645 7.09178 261.645 8.13711C261.645 9.19311 261.901 10.0091 262.413 10.5851C262.925 11.1611 263.597 11.4491 264.429 11.4491C265.069 11.4491 265.602 11.2998 266.029 11.0011C266.455 10.7024 266.749 10.2758 266.909 9.72111H268.477C268.242 10.6171 267.773 11.3371 267.069 11.8811C266.365 12.4144 265.485 12.6811 264.429 12.6811C263.597 12.6811 262.855 12.4944 262.205 12.1211C261.565 11.7478 261.063 11.2198 260.701 10.5371C260.338 9.85444 260.157 9.05444 260.157 8.13711ZM271.172 2.34511C270.894 2.34511 270.66 2.24911 270.468 2.05711C270.276 1.86511 270.18 1.63044 270.18 1.35311C270.18 1.07578 270.276 0.841109 270.468 0.649109C270.66 0.457109 270.894 0.361109 271.172 0.361109C271.438 0.361109 271.662 0.457109 271.844 0.649109C272.036 0.841109 272.132 1.07578 272.132 1.35311C272.132 1.63044 272.036 1.86511 271.844 2.05711C271.662 2.24911 271.438 2.34511 271.172 2.34511ZM271.876 3.76911V12.5371H270.42V3.76911H271.876ZM275.813 5.19311C276.069 4.69178 276.432 4.30244 276.901 4.02511C277.381 3.74778 277.962 3.60911 278.645 3.60911V5.11311H278.261C276.629 5.11311 275.813 5.99844 275.813 7.76911V12.5371H274.357V3.76911H275.813V5.19311ZM279.782 8.13711C279.782 7.23044 279.963 6.44111 280.326 5.76911C280.688 5.08644 281.19 4.55844 281.83 4.18511C282.48 3.81178 283.222 3.62511 284.054 3.62511C285.131 3.62511 286.016 3.88644 286.71 4.40911C287.414 4.93178 287.878 5.65711 288.102 6.58511H286.534C286.384 6.05178 286.091 5.63044 285.654 5.32111C285.227 5.01178 284.694 4.85711 284.054 4.85711C283.222 4.85711 282.55 5.14511 282.038 5.72111C281.526 6.28644 281.27 7.09178 281.27 8.13711C281.27 9.19311 281.526 10.0091 282.038 10.5851C282.55 11.1611 283.222 11.4491 284.054 11.4491C284.694 11.4491 285.227 11.2998 285.654 11.0011C286.08 10.7024 286.374 10.2758 286.534 9.72111H288.102C287.867 10.6171 287.398 11.3371 286.694 11.8811C285.99 12.4144 285.11 12.6811 284.054 12.6811C283.222 12.6811 282.48 12.4944 281.83 12.1211C281.19 11.7478 280.688 11.2198 280.326 10.5371C279.963 9.85444 279.782 9.05444 279.782 8.13711ZM291.501 0.697109V12.5371H290.045V0.697109H291.501ZM301.982 7.81711C301.982 8.09444 301.966 8.38778 301.934 8.69711H294.926C294.979 9.56111 295.273 10.2384 295.806 10.7291C296.35 11.2091 297.006 11.4491 297.774 11.4491C298.403 11.4491 298.926 11.3051 299.342 11.0171C299.769 10.7184 300.067 10.3238 300.238 9.83311H301.806C301.571 10.6758 301.102 11.3638 300.398 11.8971C299.694 12.4198 298.819 12.6811 297.774 12.6811C296.942 12.6811 296.195 12.4944 295.534 12.1211C294.883 11.7478 294.371 11.2198 293.998 10.5371C293.625 9.84378 293.438 9.04378 293.438 8.13711C293.438 7.23044 293.619 6.43578 293.982 5.75311C294.345 5.07044 294.851 4.54778 295.502 4.18511C296.163 3.81178 296.921 3.62511 297.774 3.62511C298.606 3.62511 299.342 3.80644 299.982 4.16911C300.622 4.53178 301.113 5.03311 301.454 5.67311C301.806 6.30244 301.982 7.01711 301.982 7.81711ZM300.478 7.51311C300.478 6.95844 300.355 6.48378 300.11 6.08911C299.865 5.68378 299.529 5.37978 299.102 5.17711C298.686 4.96378 298.222 4.85711 297.71 4.85711C296.974 4.85711 296.345 5.09178 295.822 5.56111C295.31 6.03044 295.017 6.68111 294.942 7.51311H300.478ZM308.922 2.34511C308.644 2.34511 308.41 2.24911 308.218 2.05711C308.026 1.86511 307.93 1.63044 307.93 1.35311C307.93 1.07578 308.026 0.841109 308.218 0.649109C308.41 0.457109 308.644 0.361109 308.922 0.361109C309.188 0.361109 309.412 0.457109 309.594 0.649109C309.786 0.841109 309.882 1.07578 309.882 1.35311C309.882 1.63044 309.786 1.86511 309.594 2.05711C309.412 2.24911 309.188 2.34511 308.922 2.34511ZM309.626 3.76911V12.5371H308.17V3.76911H309.626ZM315.211 12.6811C314.539 12.6811 313.936 12.5691 313.403 12.3451C312.87 12.1104 312.448 11.7904 312.139 11.3851C311.83 10.9691 311.659 10.4944 311.627 9.96111H313.131C313.174 10.3984 313.376 10.7558 313.739 11.0331C314.112 11.3104 314.598 11.4491 315.195 11.4491C315.75 11.4491 316.187 11.3264 316.507 11.0811C316.827 10.8358 316.987 10.5264 316.987 10.1531C316.987 9.76911 316.816 9.48644 316.475 9.30511C316.134 9.11311 315.606 8.92644 314.891 8.74511C314.24 8.57444 313.707 8.40378 313.291 8.23311C312.886 8.05178 312.534 7.79044 312.235 7.44911C311.947 7.09711 311.803 6.63844 311.803 6.07311C311.803 5.62511 311.936 5.21444 312.203 4.84111C312.47 4.46778 312.848 4.17444 313.339 3.96111C313.83 3.73711 314.39 3.62511 315.019 3.62511C315.99 3.62511 316.774 3.87044 317.371 4.36111C317.968 4.85178 318.288 5.52378 318.331 6.37711H316.875C316.843 5.91844 316.656 5.55044 316.315 5.27311C315.984 4.99578 315.536 4.85711 314.971 4.85711C314.448 4.85711 314.032 4.96911 313.723 5.19311C313.414 5.41711 313.259 5.71044 313.259 6.07311C313.259 6.36111 313.35 6.60111 313.531 6.79311C313.723 6.97444 313.958 7.12378 314.235 7.24111C314.523 7.34778 314.918 7.47044 315.419 7.60911C316.048 7.77978 316.56 7.95044 316.955 8.12111C317.35 8.28111 317.686 8.52644 317.963 8.85711C318.251 9.18778 318.4 9.61978 318.411 10.1531C318.411 10.6331 318.278 11.0651 318.011 11.4491C317.744 11.8331 317.366 12.1371 316.875 12.3611C316.395 12.5744 315.84 12.6811 315.211 12.6811ZM331.324 10.0571H326.46L325.564 12.5371H324.028L328.06 1.44911H329.74L333.756 12.5371H332.22L331.324 10.0571ZM330.908 8.87311L328.892 3.24111L326.876 8.87311H330.908ZM344.217 4.34511V5.57711H335.897V4.34511H344.217ZM344.217 7.78511V9.01711H335.897V7.78511H344.217ZM356.516 3.76911V4.90511H355.236V12.5371H353.796V4.90511H349.188V12.5371H347.732V4.90511H346.468V3.76911H356.516ZM359.891 5.19311C360.147 4.69178 360.51 4.30244 360.979 4.02511C361.459 3.74778 362.04 3.60911 362.723 3.60911V5.11311H362.339C360.707 5.11311 359.891 5.99844 359.891 7.76911V12.5371H358.435V3.76911H359.891V5.19311ZM367.796 5.96111V6.90511H363.684V6.07311L365.428 4.66511C365.78 4.37711 366.047 4.10511 366.228 3.84911C366.42 3.58244 366.516 3.29444 366.516 2.98511C366.516 2.69711 366.436 2.47311 366.276 2.31311C366.127 2.15311 365.929 2.07311 365.684 2.07311C365.428 2.07311 365.225 2.14778 365.076 2.29711C364.937 2.43578 364.852 2.63311 364.82 2.88911H363.652C363.673 2.38778 363.865 1.97711 364.228 1.65711C364.591 1.33711 365.087 1.17711 365.716 1.17711C366.324 1.17711 366.809 1.34778 367.172 1.68911C367.545 2.03044 367.732 2.44644 367.732 2.93711C367.732 3.34244 367.615 3.70511 367.38 4.02511C367.145 4.33444 366.767 4.68111 366.244 5.06511L364.98 5.96111H367.796ZM374.415 12.6331C374.137 12.6331 373.903 12.5371 373.711 12.3451C373.519 12.1531 373.423 11.9184 373.423 11.6411C373.423 11.3638 373.519 11.1291 373.711 10.9371C373.903 10.7451 374.137 10.6491 374.415 10.6491C374.681 10.6491 374.905 10.7451 375.087 10.9371C375.279 11.1291 375.375 11.3638 375.375 11.6411C375.375 11.9184 375.279 12.1531 375.087 12.3451C374.905 12.5371 374.681 12.6331 374.415 12.6331ZM383.614 1.38511V2.56911H378.766V6.32911H382.702V7.51311H378.766V12.5371H377.31V1.38511H383.614ZM389.197 12.6811C388.375 12.6811 387.629 12.4944 386.957 12.1211C386.295 11.7478 385.773 11.2198 385.389 10.5371C385.015 9.84378 384.829 9.04378 384.829 8.13711C384.829 7.24111 385.021 6.45178 385.405 5.76911C385.799 5.07578 386.333 4.54778 387.005 4.18511C387.677 3.81178 388.429 3.62511 389.261 3.62511C390.093 3.62511 390.845 3.81178 391.517 4.18511C392.189 4.54778 392.717 5.07044 393.101 5.75311C393.495 6.43578 393.693 7.23044 393.693 8.13711C393.693 9.04378 393.49 9.84378 393.085 10.5371C392.69 11.2198 392.151 11.7478 391.469 12.1211C390.786 12.4944 390.029 12.6811 389.197 12.6811ZM389.197 11.4011C389.719 11.4011 390.21 11.2784 390.669 11.0331C391.127 10.7878 391.495 10.4198 391.773 9.92911C392.061 9.43844 392.205 8.84111 392.205 8.13711C392.205 7.43311 392.066 6.83578 391.789 6.34511C391.511 5.85444 391.149 5.49178 390.701 5.25711C390.253 5.01178 389.767 4.88911 389.245 4.88911C388.711 4.88911 388.221 5.01178 387.773 5.25711C387.335 5.49178 386.983 5.85444 386.717 6.34511C386.45 6.83578 386.317 7.43311 386.317 8.13711C386.317 8.85178 386.445 9.45444 386.701 9.94511C386.967 10.4358 387.319 10.8038 387.757 11.0491C388.194 11.2838 388.674 11.4011 389.197 11.4011ZM397.063 5.19311C397.319 4.69178 397.682 4.30244 398.151 4.02511C398.631 3.74778 399.212 3.60911 399.895 3.60911V5.11311H399.511C397.879 5.11311 397.063 5.99844 397.063 7.76911V12.5371H395.607V3.76911H397.063V5.19311ZM407.617 4.96911V10.1371C407.617 10.5638 407.708 10.8678 407.889 11.0491C408.071 11.2198 408.385 11.3051 408.833 11.3051H409.905V12.5371H408.593C407.783 12.5371 407.175 12.3504 406.769 11.9771C406.364 11.6038 406.161 10.9904 406.161 10.1371V4.96911H405.025V3.76911H406.161V1.56111H407.617V3.76911H409.905V4.96911H407.617ZM416.022 3.60911C416.683 3.60911 417.28 3.75311 417.814 4.04111C418.347 4.31844 418.763 4.73978 419.062 5.30511C419.371 5.87044 419.526 6.55844 419.526 7.36911V12.5371H418.086V7.57711C418.086 6.70244 417.867 6.03578 417.43 5.57711C416.992 5.10778 416.395 4.87311 415.638 4.87311C414.87 4.87311 414.256 5.11311 413.798 5.59311C413.35 6.07311 413.126 6.77178 413.126 7.68911V12.5371H411.67V0.697109H413.126V5.01711C413.414 4.56911 413.808 4.22244 414.31 3.97711C414.822 3.73178 415.392 3.60911 416.022 3.60911ZM429.904 7.81711C429.904 8.09444 429.888 8.38778 429.856 8.69711H422.848C422.901 9.56111 423.195 10.2384 423.728 10.7291C424.272 11.2091 424.928 11.4491 425.696 11.4491C426.325 11.4491 426.848 11.3051 427.264 11.0171C427.691 10.7184 427.989 10.3238 428.16 9.83311H429.728C429.493 10.6758 429.024 11.3638 428.32 11.8971C427.616 12.4198 426.741 12.6811 425.696 12.6811C424.864 12.6811 424.117 12.4944 423.456 12.1211C422.805 11.7478 422.293 11.2198 421.92 10.5371C421.547 9.84378 421.36 9.04378 421.36 8.13711C421.36 7.23044 421.541 6.43578 421.904 5.75311C422.267 5.07044 422.773 4.54778 423.424 4.18511C424.085 3.81178 424.843 3.62511 425.696 3.62511C426.528 3.62511 427.264 3.80644 427.904 4.16911C428.544 4.53178 429.035 5.03311 429.376 5.67311C429.728 6.30244 429.904 7.01711 429.904 7.81711ZM428.4 7.51311C428.4 6.95844 428.277 6.48378 428.032 6.08911C427.787 5.68378 427.451 5.37978 427.024 5.17711C426.608 4.96378 426.144 4.85711 425.632 4.85711C424.896 4.85711 424.267 5.09178 423.744 5.56111C423.232 6.03044 422.939 6.68111 422.864 7.51311H428.4ZM439.659 4.96911H437.819V12.5371H436.363V4.96911H435.227V3.76911H436.363V3.14511C436.363 2.16378 436.614 1.44911 437.115 1.00111C437.627 0.542442 438.443 0.313108 439.563 0.313108V1.52911C438.923 1.52911 438.47 1.65711 438.203 1.91311C437.947 2.15844 437.819 2.56911 437.819 3.14511V3.76911H439.659V4.96911ZM445.181 12.6811C444.36 12.6811 443.613 12.4944 442.941 12.1211C442.28 11.7478 441.757 11.2198 441.373 10.5371C441 9.84378 440.813 9.04378 440.813 8.13711C440.813 7.24111 441.005 6.45178 441.389 5.76911C441.784 5.07578 442.317 4.54778 442.989 4.18511C443.661 3.81178 444.413 3.62511 445.245 3.62511C446.077 3.62511 446.829 3.81178 447.501 4.18511C448.173 4.54778 448.701 5.07044 449.085 5.75311C449.48 6.43578 449.677 7.23044 449.677 8.13711C449.677 9.04378 449.474 9.84378 449.069 10.5371C448.674 11.2198 448.136 11.7478 447.453 12.1211C446.77 12.4944 446.013 12.6811 445.181 12.6811ZM445.181 11.4011C445.704 11.4011 446.194 11.2784 446.653 11.0331C447.112 10.7878 447.48 10.4198 447.757 9.92911C448.045 9.43844 448.189 8.84111 448.189 8.13711C448.189 7.43311 448.05 6.83578 447.773 6.34511C447.496 5.85444 447.133 5.49178 446.685 5.25711C446.237 5.01178 445.752 4.88911 445.229 4.88911C444.696 4.88911 444.205 5.01178 443.757 5.25711C443.32 5.49178 442.968 5.85444 442.701 6.34511C442.434 6.83578 442.301 7.43311 442.301 8.13711C442.301 8.85178 442.429 9.45444 442.685 9.94511C442.952 10.4358 443.304 10.8038 443.741 11.0491C444.178 11.2838 444.658 11.4011 445.181 11.4011ZM453.047 0.697109V12.5371H451.591V0.697109H453.047ZM456.985 0.697109V12.5371H455.529V0.697109H456.985ZM463.29 12.6811C462.469 12.6811 461.722 12.4944 461.05 12.1211C460.389 11.7478 459.866 11.2198 459.482 10.5371C459.109 9.84378 458.922 9.04378 458.922 8.13711C458.922 7.24111 459.114 6.45178 459.498 5.76911C459.893 5.07578 460.426 4.54778 461.098 4.18511C461.77 3.81178 462.522 3.62511 463.354 3.62511C464.186 3.62511 464.938 3.81178 465.61 4.18511C466.282 4.54778 466.81 5.07044 467.194 5.75311C467.589 6.43578 467.786 7.23044 467.786 8.13711C467.786 9.04378 467.584 9.84378 467.178 10.5371C466.784 11.2198 466.245 11.7478 465.562 12.1211C464.88 12.4944 464.122 12.6811 463.29 12.6811ZM463.29 11.4011C463.813 11.4011 464.304 11.2784 464.762 11.0331C465.221 10.7878 465.589 10.4198 465.866 9.92911C466.154 9.43844 466.298 8.84111 466.298 8.13711C466.298 7.43311 466.16 6.83578 465.882 6.34511C465.605 5.85444 465.242 5.49178 464.794 5.25711C464.346 5.01178 463.861 4.88911 463.338 4.88911C462.805 4.88911 462.314 5.01178 461.866 5.25711C461.429 5.49178 461.077 5.85444 460.81 6.34511C460.544 6.83578 460.41 7.43311 460.41 8.13711C460.41 8.85178 460.538 9.45444 460.794 9.94511C461.061 10.4358 461.413 10.8038 461.85 11.0491C462.288 11.2838 462.768 11.4011 463.29 11.4011ZM481.381 3.76911L478.645 12.5371H477.141L475.029 5.57711L472.917 12.5371H471.413L468.661 3.76911H470.149L472.165 11.1291L474.341 3.76911H475.829L477.957 11.1451L479.941 3.76911H481.381ZM483.578 2.34511C483.3 2.34511 483.066 2.24911 482.874 2.05711C482.682 1.86511 482.586 1.63044 482.586 1.35311C482.586 1.07578 482.682 0.841109 482.874 0.649109C483.066 0.457109 483.3 0.361109 483.578 0.361109C483.844 0.361109 484.068 0.457109 484.25 0.649109C484.442 0.841109 484.538 1.07578 484.538 1.35311C484.538 1.63044 484.442 1.86511 484.25 2.05711C484.068 2.24911 483.844 2.34511 483.578 2.34511ZM484.282 3.76911V12.5371H482.826V3.76911H484.282ZM491.035 3.60911C492.102 3.60911 492.966 3.93444 493.627 4.58511C494.289 5.22511 494.619 6.15311 494.619 7.36911V12.5371H493.179V7.57711C493.179 6.70244 492.961 6.03578 492.523 5.57711C492.086 5.10778 491.489 4.87311 490.731 4.87311C489.963 4.87311 489.35 5.11311 488.891 5.59311C488.443 6.07311 488.219 6.77178 488.219 7.68911V12.5371H486.763V3.76911H488.219V5.01711C488.507 4.56911 488.897 4.22244 489.387 3.97711C489.889 3.73178 490.438 3.60911 491.035 3.60911ZM500.614 3.62511C501.371 3.62511 502.032 3.79044 502.598 4.12111C503.174 4.45178 503.6 4.86778 503.878 5.36911V3.76911H505.35V12.7291C505.35 13.5291 505.179 14.2384 504.838 14.8571C504.496 15.4864 504.006 15.9771 503.366 16.3291C502.736 16.6811 502 16.8571 501.158 16.8571C500.006 16.8571 499.046 16.5851 498.278 16.0411C497.51 15.4971 497.056 14.7558 496.918 13.8171H498.358C498.518 14.3504 498.848 14.7771 499.35 15.0971C499.851 15.4278 500.454 15.5931 501.158 15.5931C501.958 15.5931 502.608 15.3424 503.11 14.8411C503.622 14.3398 503.878 13.6358 503.878 12.7291V10.8891C503.59 11.4011 503.163 11.8278 502.598 12.1691C502.032 12.5104 501.371 12.6811 500.614 12.6811C499.835 12.6811 499.126 12.4891 498.486 12.1051C497.856 11.7211 497.36 11.1824 496.998 10.4891C496.635 9.79578 496.454 9.00644 496.454 8.12111C496.454 7.22511 496.635 6.44111 496.998 5.76911C497.36 5.08644 497.856 4.55844 498.486 4.18511C499.126 3.81178 499.835 3.62511 500.614 3.62511ZM503.878 8.13711C503.878 7.47578 503.744 6.89978 503.478 6.40911C503.211 5.91844 502.848 5.54511 502.39 5.28911C501.942 5.02244 501.446 4.88911 500.902 4.88911C500.358 4.88911 499.862 5.01711 499.414 5.27311C498.966 5.52911 498.608 5.90244 498.342 6.39311C498.075 6.88378 497.942 7.45978 497.942 8.12111C497.942 8.79311 498.075 9.37978 498.342 9.88111C498.608 10.3718 498.966 10.7504 499.414 11.0171C499.862 11.2731 500.358 11.4011 500.902 11.4011C501.446 11.4011 501.942 11.2731 502.39 11.0171C502.848 10.7504 503.211 10.3718 503.478 9.88111C503.744 9.37978 503.878 8.79844 503.878 8.13711ZM513.852 4.96911V10.1371C513.852 10.5638 513.942 10.8678 514.124 11.0491C514.305 11.2198 514.62 11.3051 515.068 11.3051H516.14V12.5371H514.828C514.017 12.5371 513.409 12.3504 513.004 11.9771C512.598 11.6038 512.396 10.9904 512.396 10.1371V4.96911H511.26V3.76911H512.396V1.56111H513.852V3.76911H516.14V4.96911H513.852ZM517.36 8.12111C517.36 7.22511 517.541 6.44111 517.904 5.76911C518.267 5.08644 518.763 4.55844 519.392 4.18511C520.032 3.81178 520.741 3.62511 521.52 3.62511C522.288 3.62511 522.955 3.79044 523.52 4.12111C524.085 4.45178 524.507 4.86778 524.784 5.36911V3.76911H526.256V12.5371H524.784V10.9051C524.496 11.4171 524.064 11.8438 523.488 12.1851C522.923 12.5158 522.261 12.6811 521.504 12.6811C520.725 12.6811 520.021 12.4891 519.392 12.1051C518.763 11.7211 518.267 11.1824 517.904 10.4891C517.541 9.79578 517.36 9.00644 517.36 8.12111ZM524.784 8.13711C524.784 7.47578 524.651 6.89978 524.384 6.40911C524.117 5.91844 523.755 5.54511 523.296 5.28911C522.848 5.02244 522.352 4.88911 521.808 4.88911C521.264 4.88911 520.768 5.01711 520.32 5.27311C519.872 5.52911 519.515 5.90244 519.248 6.39311C518.981 6.88378 518.848 7.45978 518.848 8.12111C518.848 8.79311 518.981 9.37978 519.248 9.88111C519.515 10.3718 519.872 10.7504 520.32 11.0171C520.768 11.2731 521.264 11.4011 521.808 11.4011C522.352 11.4011 522.848 11.2731 523.296 11.0171C523.755 10.7504 524.117 10.3718 524.384 9.88111C524.651 9.37978 524.784 8.79844 524.784 8.13711ZM531.82 12.6811C531.148 12.6811 530.546 12.5691 530.012 12.3451C529.479 12.1104 529.058 11.7904 528.748 11.3851C528.439 10.9691 528.268 10.4944 528.236 9.96111H529.74C529.783 10.3984 529.986 10.7558 530.348 11.0331C530.722 11.3104 531.207 11.4491 531.804 11.4491C532.359 11.4491 532.796 11.3264 533.116 11.0811C533.436 10.8358 533.596 10.5264 533.596 10.1531C533.596 9.76911 533.426 9.48644 533.084 9.30511C532.743 9.11311 532.215 8.92644 531.5 8.74511C530.85 8.57444 530.316 8.40378 529.9 8.23311C529.495 8.05178 529.143 7.79044 528.844 7.44911C528.556 7.09711 528.412 6.63844 528.412 6.07311C528.412 5.62511 528.546 5.21444 528.812 4.84111C529.079 4.46778 529.458 4.17444 529.948 3.96111C530.439 3.73711 530.999 3.62511 531.628 3.62511C532.599 3.62511 533.383 3.87044 533.98 4.36111C534.578 4.85178 534.898 5.52378 534.94 6.37711H533.484C533.452 5.91844 533.266 5.55044 532.924 5.27311C532.594 4.99578 532.146 4.85711 531.58 4.85711C531.058 4.85711 530.642 4.96911 530.332 5.19311C530.023 5.41711 529.868 5.71044 529.868 6.07311C529.868 6.36111 529.959 6.60111 530.14 6.79311C530.332 6.97444 530.567 7.12378 530.844 7.24111C531.132 7.34778 531.527 7.47044 532.028 7.60911C532.658 7.77978 533.17 7.95044 533.564 8.12111C533.959 8.28111 534.295 8.52644 534.572 8.85711C534.86 9.18778 535.01 9.61978 535.02 10.1531C535.02 10.6331 534.887 11.0651 534.62 11.4491C534.354 11.8331 533.975 12.1371 533.484 12.3611C533.004 12.5744 532.45 12.6811 531.82 12.6811ZM541.972 12.5371L538.532 8.66511V12.5371H537.076V0.697109H538.532V7.65711L541.908 3.76911H543.94L539.812 8.13711L543.956 12.5371H541.972ZM9.008 23.7691V32.5371H7.552V31.2411C7.27467 31.6891 6.88533 32.0411 6.384 32.2971C5.89333 32.5424 5.34933 32.6651 4.752 32.6651C4.06933 32.6651 3.456 32.5264 2.912 32.2491C2.368 31.9611 1.936 31.5344 1.616 30.9691C1.30667 30.4038 1.152 29.7158 1.152 28.9051V23.7691H2.592V28.7131C2.592 29.5771 2.81067 30.2438 3.248 30.7131C3.68533 31.1718 4.28267 31.4011 5.04 31.4011C5.81867 31.4011 6.432 31.1611 6.88 30.6811C7.328 30.2011 7.552 29.5024 7.552 28.5851V23.7691H9.008ZM14.5704 32.6811C13.8984 32.6811 13.2957 32.5691 12.7624 32.3451C12.229 32.1104 11.8077 31.7904 11.4984 31.3851C11.189 30.9691 11.0184 30.4944 10.9864 29.9611H12.4904C12.533 30.3984 12.7357 30.7558 13.0984 31.0331C13.4717 31.3104 13.957 31.4491 14.5544 31.4491C15.109 31.4491 15.5464 31.3264 15.8664 31.0811C16.1864 30.8358 16.3464 30.5264 16.3464 30.1531C16.3464 29.7691 16.1757 29.4864 15.8344 29.3051C15.493 29.1131 14.965 28.9264 14.2504 28.7451C13.5997 28.5744 13.0664 28.4038 12.6504 28.2331C12.245 28.0518 11.893 27.7904 11.5944 27.4491C11.3064 27.0971 11.1624 26.6384 11.1624 26.0731C11.1624 25.6251 11.2957 25.2144 11.5624 24.8411C11.829 24.4678 12.2077 24.1744 12.6984 23.9611C13.189 23.7371 13.749 23.6251 14.3784 23.6251C15.349 23.6251 16.133 23.8704 16.7304 24.3611C17.3277 24.8518 17.6477 25.5238 17.6904 26.3771H16.2344C16.2024 25.9184 16.0157 25.5504 15.6744 25.2731C15.3437 24.9958 14.8957 24.8571 14.3304 24.8571C13.8077 24.8571 13.3917 24.9691 13.0824 25.1931C12.773 25.4171 12.6184 25.7104 12.6184 26.0731C12.6184 26.3611 12.709 26.6011 12.8904 26.7931C13.0824 26.9744 13.317 27.1238 13.5944 27.2411C13.8824 27.3478 14.277 27.4704 14.7784 27.6091C15.4077 27.7798 15.9197 27.9504 16.3144 28.1211C16.709 28.2811 17.045 28.5264 17.3224 28.8571C17.6104 29.1878 17.7597 29.6198 17.7704 30.1531C17.7704 30.6331 17.637 31.0651 17.3704 31.4491C17.1037 31.8331 16.725 32.1371 16.2344 32.3611C15.7544 32.5744 15.1997 32.6811 14.5704 32.6811ZM27.8258 27.8171C27.8258 28.0944 27.8098 28.3878 27.7778 28.6971H20.7698C20.8231 29.5611 21.1164 30.2384 21.6498 30.7291C22.1938 31.2091 22.8498 31.4491 23.6178 31.4491C24.2471 31.4491 24.7698 31.3051 25.1858 31.0171C25.6124 30.7184 25.9111 30.3238 26.0818 29.8331H27.6498C27.4151 30.6758 26.9458 31.3638 26.2418 31.8971C25.5378 32.4198 24.6631 32.6811 23.6178 32.6811C22.7858 32.6811 22.0391 32.4944 21.3778 32.1211C20.7271 31.7478 20.2151 31.2198 19.8418 30.5371C19.4684 29.8438 19.2818 29.0438 19.2818 28.1371C19.2818 27.2304 19.4631 26.4358 19.8258 25.7531C20.1884 25.0704 20.6951 24.5478 21.3458 24.1851C22.0071 23.8118 22.7644 23.6251 23.6178 23.6251C24.4498 23.6251 25.1858 23.8064 25.8258 24.1691C26.4658 24.5318 26.9564 25.0331 27.2978 25.6731C27.6498 26.3024 27.8258 27.0171 27.8258 27.8171ZM26.3218 27.5131C26.3218 26.9584 26.1991 26.4838 25.9538 26.0891C25.7084 25.6838 25.3724 25.3798 24.9458 25.1771C24.5298 24.9638 24.0658 24.8571 23.5538 24.8571C22.8178 24.8571 22.1884 25.0918 21.6658 25.5611C21.1538 26.0304 20.8604 26.6811 20.7858 27.5131H26.3218ZM43.4533 23.7691V24.9051H42.1733V32.5371H40.7333V24.9051H36.1253V32.5371H34.6693V24.9051H33.4053V23.7691H43.4533ZM54.0766 24.3451V25.5771H45.7566V24.3451H54.0766ZM54.0766 27.7851V29.0171H45.7566V27.7851H54.0766ZM56.6631 23.8811C56.7378 22.8998 57.1165 22.1318 57.7991 21.5771C58.4818 21.0224 59.3671 20.7451 60.4551 20.7451C61.1805 20.7451 61.8045 20.8784 62.3271 21.1451C62.8605 21.4011 63.2605 21.7531 63.5271 22.2011C63.8045 22.6491 63.9431 23.1558 63.9431 23.7211C63.9431 24.3824 63.7511 24.9531 63.3671 25.4331C62.9938 25.9131 62.5031 26.2224 61.8951 26.3611V26.4411C62.5885 26.6118 63.1378 26.9478 63.5431 27.4491C63.9485 27.9504 64.1511 28.6064 64.1511 29.4171C64.1511 30.0251 64.0125 30.5744 63.7351 31.0651C63.4578 31.5451 63.0418 31.9238 62.4871 32.2011C61.9325 32.4784 61.2658 32.6171 60.4871 32.6171C59.3565 32.6171 58.4285 32.3238 57.7031 31.7371C56.9778 31.1398 56.5725 30.2971 56.4871 29.2091H57.8951C57.9698 29.8491 58.2311 30.3718 58.6791 30.7771C59.1271 31.1824 59.7245 31.3851 60.4711 31.3851C61.2178 31.3851 61.7831 31.1931 62.1671 30.8091C62.5618 30.4144 62.7591 29.9078 62.7591 29.2891C62.7591 28.4891 62.4925 27.9131 61.9591 27.5611C61.4258 27.2091 60.6205 27.0331 59.5431 27.0331H59.1751V25.8171H59.5591C60.5405 25.8064 61.2818 25.6464 61.7831 25.3371C62.2845 25.0171 62.5351 24.5264 62.5351 23.8651C62.5351 23.2998 62.3485 22.8464 61.9751 22.5051C61.6125 22.1638 61.0898 21.9931 60.4071 21.9931C59.7458 21.9931 59.2125 22.1638 58.8071 22.5051C58.4018 22.8464 58.1618 23.3051 58.0871 23.8811H56.6631ZM66.821 32.6331C66.5437 32.6331 66.309 32.5371 66.117 32.3451C65.925 32.1531 65.829 31.9184 65.829 31.6411C65.829 31.3638 65.925 31.1291 66.117 30.9371C66.309 30.7451 66.5437 30.6491 66.821 30.6491C67.0877 30.6491 67.3117 30.7451 67.493 30.9371C67.685 31.1291 67.781 31.3638 67.781 31.6411C67.781 31.9184 67.685 32.1531 67.493 32.3451C67.3117 32.5371 67.0877 32.6331 66.821 32.6331ZM69.0924 22.2971V20.9691H72.1004V32.5371H70.6284V22.2971H69.0924ZM74.2494 29.9611V28.8571L79.8654 21.0811H81.6094V28.6971H83.2094V29.9611H81.6094V32.5371H80.1694V29.9611H74.2494ZM80.2334 22.6011L75.9294 28.6971H80.2334V22.6011ZM85.3679 32.6331C85.0905 32.6331 84.8559 32.5371 84.6639 32.3451C84.4719 32.1531 84.3759 31.9184 84.3759 31.6411C84.3759 31.3638 84.4719 31.1291 84.6639 30.9371C84.8559 30.7451 85.0905 30.6491 85.3679 30.6491C85.6345 30.6491 85.8585 30.7451 86.0399 30.9371C86.2319 31.1291 86.3279 31.3638 86.3279 31.6411C86.3279 31.9184 86.2319 32.1531 86.0399 32.3451C85.8585 32.5371 85.6345 32.6331 85.3679 32.6331ZM99.1209 30.0571H94.2569L93.3609 32.5371H91.8249L95.8569 21.4491H97.5369L101.553 32.5371H100.017L99.1209 30.0571ZM98.7049 28.8731L96.6889 23.2411L94.6729 28.8731H98.7049ZM102.766 28.1371C102.766 27.2304 102.947 26.4411 103.31 25.7691C103.673 25.0864 104.174 24.5584 104.814 24.1851C105.465 23.8118 106.206 23.6251 107.038 23.6251C108.115 23.6251 109.001 23.8864 109.694 24.4091C110.398 24.9318 110.862 25.6571 111.086 26.5851H109.518C109.369 26.0518 109.075 25.6304 108.638 25.3211C108.211 25.0118 107.678 24.8571 107.038 24.8571C106.206 24.8571 105.534 25.1451 105.022 25.7211C104.51 26.2864 104.254 27.0918 104.254 28.1371C104.254 29.1931 104.51 30.0091 105.022 30.5851C105.534 31.1611 106.206 31.4491 107.038 31.4491C107.678 31.4491 108.211 31.2998 108.638 31.0011C109.065 30.7024 109.358 30.2758 109.518 29.7211H111.086C110.851 30.6171 110.382 31.3371 109.678 31.8811C108.974 32.4144 108.094 32.6811 107.038 32.6811C106.206 32.6811 105.465 32.4944 104.814 32.1211C104.174 31.7478 103.673 31.2198 103.31 30.5371C102.947 29.8544 102.766 29.0544 102.766 28.1371ZM113.781 22.3451C113.504 22.3451 113.269 22.2491 113.077 22.0571C112.885 21.8651 112.789 21.6304 112.789 21.3531C112.789 21.0758 112.885 20.8411 113.077 20.6491C113.269 20.4571 113.504 20.3611 113.781 20.3611C114.048 20.3611 114.272 20.4571 114.453 20.6491C114.645 20.8411 114.741 21.0758 114.741 21.3531C114.741 21.6304 114.645 21.8651 114.453 22.0571C114.272 22.2491 114.048 22.3451 113.781 22.3451ZM114.485 23.7691V32.5371H113.029V23.7691H114.485ZM118.422 25.1931C118.678 24.6918 119.041 24.3024 119.51 24.0251C119.99 23.7478 120.572 23.6091 121.254 23.6091V25.1131H120.87C119.238 25.1131 118.422 25.9984 118.422 27.7691V32.5371H116.966V23.7691H118.422V25.1931ZM122.391 28.1371C122.391 27.2304 122.572 26.4411 122.935 25.7691C123.298 25.0864 123.799 24.5584 124.439 24.1851C125.09 23.8118 125.831 23.6251 126.663 23.6251C127.74 23.6251 128.626 23.8864 129.319 24.4091C130.023 24.9318 130.487 25.6571 130.711 26.5851H129.143C128.994 26.0518 128.7 25.6304 128.263 25.3211C127.836 25.0118 127.303 24.8571 126.663 24.8571C125.831 24.8571 125.159 25.1451 124.647 25.7211C124.135 26.2864 123.879 27.0918 123.879 28.1371C123.879 29.1931 124.135 30.0091 124.647 30.5851C125.159 31.1611 125.831 31.4491 126.663 31.4491C127.303 31.4491 127.836 31.2998 128.263 31.0011C128.69 30.7024 128.983 30.2758 129.143 29.7211H130.711C130.476 30.6171 130.007 31.3371 129.303 31.8811C128.599 32.4144 127.719 32.6811 126.663 32.6811C125.831 32.6811 125.09 32.4944 124.439 32.1211C123.799 31.7478 123.298 31.2198 122.935 30.5371C122.572 29.8544 122.391 29.0544 122.391 28.1371ZM134.11 20.6971V32.5371H132.654V20.6971H134.11ZM144.591 27.8171C144.591 28.0944 144.575 28.3878 144.543 28.6971H137.535C137.589 29.5611 137.882 30.2384 138.415 30.7291C138.959 31.2091 139.615 31.4491 140.383 31.4491C141.013 31.4491 141.535 31.3051 141.951 31.0171C142.378 30.7184 142.677 30.3238 142.847 29.8331H144.415C144.181 30.6758 143.711 31.3638 143.007 31.8971C142.303 32.4198 141.429 32.6811 140.383 32.6811C139.551 32.6811 138.805 32.4944 138.143 32.1211C137.493 31.7478 136.981 31.2198 136.607 30.5371C136.234 29.8438 136.047 29.0438 136.047 28.1371C136.047 27.2304 136.229 26.4358 136.591 25.7531C136.954 25.0704 137.461 24.5478 138.111 24.1851C138.773 23.8118 139.53 23.6251 140.383 23.6251C141.215 23.6251 141.951 23.8064 142.591 24.1691C143.231 24.5318 143.722 25.0331 144.063 25.6731C144.415 26.3024 144.591 27.0171 144.591 27.8171ZM143.087 27.5131C143.087 26.9584 142.965 26.4838 142.719 26.0891C142.474 25.6838 142.138 25.3798 141.711 25.1771C141.295 24.9638 140.831 24.8571 140.319 24.8571C139.583 24.8571 138.954 25.0918 138.431 25.5611C137.919 26.0304 137.626 26.6811 137.551 27.5131H143.087ZM154.603 32.6811C153.782 32.6811 153.035 32.4944 152.363 32.1211C151.702 31.7478 151.179 31.2198 150.795 30.5371C150.422 29.8438 150.235 29.0438 150.235 28.1371C150.235 27.2411 150.427 26.4518 150.811 25.7691C151.206 25.0758 151.739 24.5478 152.411 24.1851C153.083 23.8118 153.835 23.6251 154.667 23.6251C155.499 23.6251 156.251 23.8118 156.923 24.1851C157.595 24.5478 158.123 25.0704 158.507 25.7531C158.902 26.4358 159.099 27.2304 159.099 28.1371C159.099 29.0438 158.896 29.8438 158.491 30.5371C158.096 31.2198 157.558 31.7478 156.875 32.1211C156.192 32.4944 155.435 32.6811 154.603 32.6811ZM154.603 31.4011C155.126 31.4011 155.616 31.2784 156.075 31.0331C156.534 30.7878 156.902 30.4198 157.179 29.9291C157.467 29.4384 157.611 28.8411 157.611 28.1371C157.611 27.4331 157.472 26.8358 157.195 26.3451C156.918 25.8544 156.555 25.4918 156.107 25.2571C155.659 25.0118 155.174 24.8891 154.651 24.8891C154.118 24.8891 153.627 25.0118 153.179 25.2571C152.742 25.4918 152.39 25.8544 152.123 26.3451C151.856 26.8358 151.723 27.4331 151.723 28.1371C151.723 28.8518 151.851 29.4544 152.107 29.9451C152.374 30.4358 152.726 30.8038 153.163 31.0491C153.6 31.2838 154.08 31.4011 154.603 31.4011ZM164.581 24.9691H162.741V32.5371H161.285V24.9691H160.149V23.7691H161.285V23.1451C161.285 22.1638 161.536 21.4491 162.037 21.0011C162.549 20.5424 163.365 20.3131 164.485 20.3131V21.5291C163.845 21.5291 163.392 21.6571 163.125 21.9131C162.869 22.1584 162.741 22.5691 162.741 23.1451V23.7691H164.581V24.9691ZM172.001 25.1931C172.257 24.6918 172.619 24.3024 173.089 24.0251C173.569 23.7478 174.15 23.6091 174.833 23.6091V25.1131H174.449C172.817 25.1131 172.001 25.9984 172.001 27.7691V32.5371H170.545V23.7691H172.001V25.1931ZM175.969 28.1211C175.969 27.2251 176.151 26.4411 176.513 25.7691C176.876 25.0864 177.372 24.5584 178.001 24.1851C178.641 23.8118 179.351 23.6251 180.129 23.6251C180.897 23.6251 181.564 23.7904 182.129 24.1211C182.695 24.4518 183.116 24.8678 183.393 25.3691V23.7691H184.865V32.5371H183.393V30.9051C183.105 31.4171 182.673 31.8438 182.097 32.1851C181.532 32.5158 180.871 32.6811 180.113 32.6811C179.335 32.6811 178.631 32.4891 178.001 32.1051C177.372 31.7211 176.876 31.1824 176.513 30.4891C176.151 29.7958 175.969 29.0064 175.969 28.1211ZM183.393 28.1371C183.393 27.4758 183.26 26.8998 182.993 26.4091C182.727 25.9184 182.364 25.5451 181.905 25.2891C181.457 25.0224 180.961 24.8891 180.417 24.8891C179.873 24.8891 179.377 25.0171 178.929 25.2731C178.481 25.5291 178.124 25.9024 177.857 26.3931C177.591 26.8838 177.457 27.4598 177.457 28.1211C177.457 28.7931 177.591 29.3798 177.857 29.8811C178.124 30.3718 178.481 30.7504 178.929 31.0171C179.377 31.2731 179.873 31.4011 180.417 31.4011C180.961 31.4011 181.457 31.2731 181.905 31.0171C182.364 30.7504 182.727 30.3718 182.993 29.8811C183.26 29.3798 183.393 28.7984 183.393 28.1371ZM186.782 28.1211C186.782 27.2251 186.963 26.4411 187.326 25.7691C187.688 25.0864 188.184 24.5584 188.814 24.1851C189.454 23.8118 190.168 23.6251 190.958 23.6251C191.64 23.6251 192.275 23.7851 192.862 24.1051C193.448 24.4144 193.896 24.8251 194.206 25.3371V20.6971H195.678V32.5371H194.206V30.8891C193.918 31.4118 193.491 31.8438 192.926 32.1851C192.36 32.5158 191.699 32.6811 190.942 32.6811C190.163 32.6811 189.454 32.4891 188.814 32.1051C188.184 31.7211 187.688 31.1824 187.326 30.4891C186.963 29.7958 186.782 29.0064 186.782 28.1211ZM194.206 28.1371C194.206 27.4758 194.072 26.8998 193.806 26.4091C193.539 25.9184 193.176 25.5451 192.718 25.2891C192.27 25.0224 191.774 24.8891 191.23 24.8891C190.686 24.8891 190.19 25.0171 189.742 25.2731C189.294 25.5291 188.936 25.9024 188.67 26.3931C188.403 26.8838 188.27 27.4598 188.27 28.1211C188.27 28.7931 188.403 29.3798 188.67 29.8811C188.936 30.3718 189.294 30.7504 189.742 31.0171C190.19 31.2731 190.686 31.4011 191.23 31.4011C191.774 31.4011 192.27 31.2731 192.718 31.0171C193.176 30.7504 193.539 30.3718 193.806 29.8811C194.072 29.3798 194.206 28.7984 194.206 28.1371ZM198.89 22.3451C198.613 22.3451 198.378 22.2491 198.186 22.0571C197.994 21.8651 197.898 21.6304 197.898 21.3531C197.898 21.0758 197.994 20.8411 198.186 20.6491C198.378 20.4571 198.613 20.3611 198.89 20.3611C199.157 20.3611 199.381 20.4571 199.562 20.6491C199.754 20.8411 199.85 21.0758 199.85 21.3531C199.85 21.6304 199.754 21.8651 199.562 22.0571C199.381 22.2491 199.157 22.3451 198.89 22.3451ZM199.594 23.7691V32.5371H198.138V23.7691H199.594ZM209.852 23.7691V32.5371H208.396V31.2411C208.118 31.6891 207.729 32.0411 207.228 32.2971C206.737 32.5424 206.193 32.6651 205.596 32.6651C204.913 32.6651 204.3 32.5264 203.756 32.2491C203.212 31.9611 202.78 31.5344 202.46 30.9691C202.15 30.4038 201.996 29.7158 201.996 28.9051V23.7691H203.436V28.7131C203.436 29.5771 203.654 30.2438 204.092 30.7131C204.529 31.1718 205.126 31.4011 205.884 31.4011C206.662 31.4011 207.276 31.1611 207.724 30.6811C208.172 30.2011 208.396 29.5024 208.396 28.5851V23.7691H209.852ZM215.414 32.6811C214.742 32.6811 214.139 32.5691 213.606 32.3451C213.073 32.1104 212.651 31.7904 212.342 31.3851C212.033 30.9691 211.862 30.4944 211.83 29.9611H213.334C213.377 30.3984 213.579 30.7558 213.942 31.0331C214.315 31.3104 214.801 31.4491 215.398 31.4491C215.953 31.4491 216.39 31.3264 216.71 31.0811C217.03 30.8358 217.19 30.5264 217.19 30.1531C217.19 29.7691 217.019 29.4864 216.678 29.3051C216.337 29.1131 215.809 28.9264 215.094 28.7451C214.443 28.5744 213.91 28.4038 213.494 28.2331C213.089 28.0518 212.737 27.7904 212.438 27.4491C212.15 27.0971 212.006 26.6384 212.006 26.0731C212.006 25.6251 212.139 25.2144 212.406 24.8411C212.673 24.4678 213.051 24.1744 213.542 23.9611C214.033 23.7371 214.593 23.6251 215.222 23.6251C216.193 23.6251 216.977 23.8704 217.574 24.3611C218.171 24.8518 218.491 25.5238 218.534 26.3771H217.078C217.046 25.9184 216.859 25.5504 216.518 25.2731C216.187 24.9958 215.739 24.8571 215.174 24.8571C214.651 24.8571 214.235 24.9691 213.926 25.1931C213.617 25.4171 213.462 25.7104 213.462 26.0731C213.462 26.3611 213.553 26.6011 213.734 26.7931C213.926 26.9744 214.161 27.1238 214.438 27.2411C214.726 27.3478 215.121 27.4704 215.622 27.6091C216.251 27.7798 216.763 27.9504 217.158 28.1211C217.553 28.2811 217.889 28.5264 218.166 28.8571C218.454 29.1878 218.603 29.6198 218.614 30.1531C218.614 30.6331 218.481 31.0651 218.214 31.4491C217.947 31.8331 217.569 32.1371 217.078 32.3611C216.598 32.5744 216.043 32.6811 215.414 32.6811ZM224.311 22.2971V20.9691H227.319V32.5371H225.847V22.2971H224.311ZM229.82 26.6331C229.82 24.7984 230.119 23.3691 230.716 22.3451C231.313 21.3104 232.359 20.7931 233.852 20.7931C235.335 20.7931 236.375 21.3104 236.972 22.3451C237.569 23.3691 237.868 24.7984 237.868 26.6331C237.868 28.4998 237.569 29.9504 236.972 30.9851C236.375 32.0198 235.335 32.5371 233.852 32.5371C232.359 32.5371 231.313 32.0198 230.716 30.9851C230.119 29.9504 229.82 28.4998 229.82 26.6331ZM236.428 26.6331C236.428 25.7051 236.364 24.9211 236.236 24.2811C236.119 23.6304 235.868 23.1078 235.484 22.7131C235.111 22.3184 234.567 22.1211 233.852 22.1211C233.127 22.1211 232.572 22.3184 232.188 22.7131C231.815 23.1078 231.564 23.6304 231.436 24.2811C231.319 24.9211 231.26 25.7051 231.26 26.6331C231.26 27.5931 231.319 28.3984 231.436 29.0491C231.564 29.6998 231.815 30.2224 232.188 30.6171C232.572 31.0118 233.127 31.2091 233.852 31.2091C234.567 31.2091 235.111 31.0118 235.484 30.6171C235.868 30.2224 236.119 29.6998 236.236 29.0491C236.364 28.3984 236.428 27.5931 236.428 26.6331ZM243.829 28.1371C243.829 27.2304 244.01 26.4411 244.373 25.7691C244.735 25.0864 245.237 24.5584 245.877 24.1851C246.527 23.8118 247.269 23.6251 248.101 23.6251C249.178 23.6251 250.063 23.8864 250.757 24.4091C251.461 24.9318 251.925 25.6571 252.149 26.5851H250.581C250.431 26.0518 250.138 25.6304 249.701 25.3211C249.274 25.0118 248.741 24.8571 248.101 24.8571C247.269 24.8571 246.597 25.1451 246.085 25.7211C245.573 26.2864 245.317 27.0918 245.317 28.1371C245.317 29.1931 245.573 30.0091 246.085 30.5851C246.597 31.1611 247.269 31.4491 248.101 31.4491C248.741 31.4491 249.274 31.2998 249.701 31.0011C250.127 30.7024 250.421 30.2758 250.581 29.7211H252.149C251.914 30.6171 251.445 31.3371 250.741 31.8811C250.037 32.4144 249.157 32.6811 248.101 32.6811C247.269 32.6811 246.527 32.4944 245.877 32.1211C245.237 31.7478 244.735 31.2198 244.373 30.5371C244.01 29.8544 243.829 29.0544 243.829 28.1371ZM264.635 23.6091C265.318 23.6091 265.926 23.7531 266.459 24.0411C266.993 24.3184 267.414 24.7398 267.723 25.3051C268.033 25.8704 268.187 26.5584 268.187 27.3691V32.5371H266.747V27.5771C266.747 26.7024 266.529 26.0358 266.091 25.5771C265.665 25.1078 265.083 24.8731 264.347 24.8731C263.59 24.8731 262.987 25.1184 262.539 25.6091C262.091 26.0891 261.867 26.7878 261.867 27.7051V32.5371H260.427V27.5771C260.427 26.7024 260.209 26.0358 259.771 25.5771C259.345 25.1078 258.763 24.8731 258.027 24.8731C257.27 24.8731 256.667 25.1184 256.219 25.6091C255.771 26.0891 255.547 26.7878 255.547 27.7051V32.5371H254.091V23.7691H255.547V25.0331C255.835 24.5744 256.219 24.2224 256.699 23.9771C257.19 23.7318 257.729 23.6091 258.315 23.6091C259.051 23.6091 259.702 23.7744 260.267 24.1051C260.833 24.4358 261.254 24.9211 261.531 25.5611C261.777 24.9424 262.182 24.4624 262.747 24.1211C263.313 23.7798 263.942 23.6091 264.635 23.6091ZM275.593 22.3451C275.316 22.3451 275.081 22.2491 274.889 22.0571C274.697 21.8651 274.601 21.6304 274.601 21.3531C274.601 21.0758 274.697 20.8411 274.889 20.6491C275.081 20.4571 275.316 20.3611 275.593 20.3611C275.86 20.3611 276.084 20.4571 276.265 20.6491C276.457 20.8411 276.553 21.0758 276.553 21.3531C276.553 21.6304 276.457 21.8651 276.265 22.0571C276.084 22.2491 275.86 22.3451 275.593 22.3451ZM276.297 23.7691V32.5371H274.841V23.7691H276.297ZM281.883 32.6811C281.211 32.6811 280.608 32.5691 280.075 32.3451C279.542 32.1104 279.12 31.7904 278.811 31.3851C278.502 30.9691 278.331 30.4944 278.299 29.9611H279.803C279.846 30.3984 280.048 30.7558 280.411 31.0331C280.784 31.3104 281.27 31.4491 281.867 31.4491C282.422 31.4491 282.859 31.3264 283.179 31.0811C283.499 30.8358 283.659 30.5264 283.659 30.1531C283.659 29.7691 283.488 29.4864 283.147 29.3051C282.806 29.1131 282.278 28.9264 281.563 28.7451C280.912 28.5744 280.379 28.4038 279.963 28.2331C279.558 28.0518 279.206 27.7904 278.907 27.4491C278.619 27.0971 278.475 26.6384 278.475 26.0731C278.475 25.6251 278.608 25.2144 278.875 24.8411C279.142 24.4678 279.52 24.1744 280.011 23.9611C280.502 23.7371 281.062 23.6251 281.691 23.6251C282.662 23.6251 283.446 23.8704 284.043 24.3611C284.64 24.8518 284.96 25.5238 285.003 26.3771H283.547C283.515 25.9184 283.328 25.5504 282.987 25.2731C282.656 24.9958 282.208 24.8571 281.643 24.8571C281.12 24.8571 280.704 24.9691 280.395 25.1931C280.086 25.4171 279.931 25.7104 279.931 26.0731C279.931 26.3611 280.022 26.6011 280.203 26.7931C280.395 26.9744 280.63 27.1238 280.907 27.2411C281.195 27.3478 281.59 27.4704 282.091 27.6091C282.72 27.7798 283.232 27.9504 283.627 28.1211C284.022 28.2811 284.358 28.5264 284.635 28.8571C284.923 29.1878 285.072 29.6198 285.083 30.1531C285.083 30.6331 284.95 31.0651 284.683 31.4491C284.416 31.8331 284.038 32.1371 283.547 32.3611C283.067 32.5744 282.512 32.6811 281.883 32.6811ZM292.156 22.3451C291.879 22.3451 291.644 22.2491 291.452 22.0571C291.26 21.8651 291.164 21.6304 291.164 21.3531C291.164 21.0758 291.26 20.8411 291.452 20.6491C291.644 20.4571 291.879 20.3611 292.156 20.3611C292.423 20.3611 292.647 20.4571 292.828 20.6491C293.02 20.8411 293.116 21.0758 293.116 21.3531C293.116 21.6304 293.02 21.8651 292.828 22.0571C292.647 22.2491 292.423 22.3451 292.156 22.3451ZM292.86 23.7691V32.5371H291.404V23.7691H292.86ZM299.613 23.6091C300.68 23.6091 301.544 23.9344 302.205 24.5851C302.867 25.2251 303.197 26.1531 303.197 27.3691V32.5371H301.757V27.5771C301.757 26.7024 301.539 26.0358 301.101 25.5771C300.664 25.1078 300.067 24.8731 299.309 24.8731C298.541 24.8731 297.928 25.1131 297.469 25.5931C297.021 26.0731 296.797 26.7718 296.797 27.6891V32.5371H295.341V23.7691H296.797V25.0171C297.085 24.5691 297.475 24.2224 297.965 23.9771C298.467 23.7318 299.016 23.6091 299.613 23.6091ZM308.68 32.6811C308.008 32.6811 307.405 32.5691 306.872 32.3451C306.338 32.1104 305.917 31.7904 305.608 31.3851C305.298 30.9691 305.128 30.4944 305.096 29.9611H306.6C306.642 30.3984 306.845 30.7558 307.208 31.0331C307.581 31.3104 308.066 31.4491 308.664 31.4491C309.218 31.4491 309.656 31.3264 309.976 31.0811C310.296 30.8358 310.456 30.5264 310.456 30.1531C310.456 29.7691 310.285 29.4864 309.944 29.3051C309.602 29.1131 309.074 28.9264 308.36 28.7451C307.709 28.5744 307.176 28.4038 306.76 28.2331C306.354 28.0518 306.002 27.7904 305.704 27.4491C305.416 27.0971 305.272 26.6384 305.272 26.0731C305.272 25.6251 305.405 25.2144 305.672 24.8411C305.938 24.4678 306.317 24.1744 306.808 23.9611C307.298 23.7371 307.858 23.6251 308.488 23.6251C309.458 23.6251 310.242 23.8704 310.84 24.3611C311.437 24.8518 311.757 25.5238 311.8 26.3771H310.344C310.312 25.9184 310.125 25.5504 309.784 25.2731C309.453 24.9958 309.005 24.8571 308.44 24.8571C307.917 24.8571 307.501 24.9691 307.192 25.1931C306.882 25.4171 306.728 25.7104 306.728 26.0731C306.728 26.3611 306.818 26.6011 307 26.7931C307.192 26.9744 307.426 27.1238 307.704 27.2411C307.992 27.3478 308.386 27.4704 308.888 27.6091C309.517 27.7798 310.029 27.9504 310.424 28.1211C310.818 28.2811 311.154 28.5264 311.432 28.8571C311.72 29.1878 311.869 29.6198 311.88 30.1531C311.88 30.6331 311.746 31.0651 311.48 31.4491C311.213 31.8331 310.834 32.1371 310.344 32.3611C309.864 32.5744 309.309 32.6811 308.68 32.6811ZM314.687 22.3451C314.41 22.3451 314.175 22.2491 313.983 22.0571C313.791 21.8651 313.695 21.6304 313.695 21.3531C313.695 21.0758 313.791 20.8411 313.983 20.6491C314.175 20.4571 314.41 20.3611 314.687 20.3611C314.954 20.3611 315.178 20.4571 315.359 20.6491C315.551 20.8411 315.647 21.0758 315.647 21.3531C315.647 21.6304 315.551 21.8651 315.359 22.0571C315.178 22.2491 314.954 22.3451 314.687 22.3451ZM315.391 23.7691V32.5371H313.935V23.7691H315.391ZM317.329 28.1211C317.329 27.2251 317.51 26.4411 317.873 25.7691C318.235 25.0864 318.731 24.5584 319.361 24.1851C320.001 23.8118 320.715 23.6251 321.505 23.6251C322.187 23.6251 322.822 23.7851 323.409 24.1051C323.995 24.4144 324.443 24.8251 324.753 25.3371V20.6971H326.225V32.5371H324.753V30.8891C324.465 31.4118 324.038 31.8438 323.473 32.1851C322.907 32.5158 322.246 32.6811 321.489 32.6811C320.71 32.6811 320.001 32.4891 319.361 32.1051C318.731 31.7211 318.235 31.1824 317.873 30.4891C317.51 29.7958 317.329 29.0064 317.329 28.1211ZM324.753 28.1371C324.753 27.4758 324.619 26.8998 324.353 26.4091C324.086 25.9184 323.723 25.5451 323.265 25.2891C322.817 25.0224 322.321 24.8891 321.777 24.8891C321.233 24.8891 320.737 25.0171 320.289 25.2731C319.841 25.5291 319.483 25.9024 319.217 26.3931C318.95 26.8838 318.817 27.4598 318.817 28.1211C318.817 28.7931 318.95 29.3798 319.217 29.8811C319.483 30.3718 319.841 30.7504 320.289 31.0171C320.737 31.2731 321.233 31.4011 321.777 31.4011C322.321 31.4011 322.817 31.2731 323.265 31.0171C323.723 30.7504 324.086 30.3718 324.353 29.8811C324.619 29.3798 324.753 28.7984 324.753 28.1371ZM336.685 27.8171C336.685 28.0944 336.669 28.3878 336.637 28.6971H329.629C329.682 29.5611 329.976 30.2384 330.509 30.7291C331.053 31.2091 331.709 31.4491 332.477 31.4491C333.106 31.4491 333.629 31.3051 334.045 31.0171C334.472 30.7184 334.77 30.3238 334.941 29.8331H336.509C336.274 30.6758 335.805 31.3638 335.101 31.8971C334.397 32.4198 333.522 32.6811 332.477 32.6811C331.645 32.6811 330.898 32.4944 330.237 32.1211C329.586 31.7478 329.074 31.2198 328.701 30.5371C328.328 29.8438 328.141 29.0438 328.141 28.1371C328.141 27.2304 328.322 26.4358 328.685 25.7531C329.048 25.0704 329.554 24.5478 330.205 24.1851C330.866 23.8118 331.624 23.6251 332.477 23.6251C333.309 23.6251 334.045 23.8064 334.685 24.1691C335.325 24.5318 335.816 25.0331 336.157 25.6731C336.509 26.3024 336.685 27.0171 336.685 27.8171ZM335.181 27.5131C335.181 26.9584 335.058 26.4838 334.813 26.0891C334.568 25.6838 334.232 25.3798 333.805 25.1771C333.389 24.9638 332.925 24.8571 332.413 24.8571C331.677 24.8571 331.048 25.0918 330.525 25.5611C330.013 26.0304 329.72 26.6811 329.645 27.5131H335.181ZM342.329 28.1211C342.329 27.2251 342.51 26.4411 342.873 25.7691C343.235 25.0864 343.731 24.5584 344.361 24.1851C345.001 23.8118 345.71 23.6251 346.489 23.6251C347.257 23.6251 347.923 23.7904 348.489 24.1211C349.054 24.4518 349.475 24.8678 349.753 25.3691V23.7691H351.225V32.5371H349.753V30.9051C349.465 31.4171 349.033 31.8438 348.457 32.1851C347.891 32.5158 347.23 32.6811 346.473 32.6811C345.694 32.6811 344.99 32.4891 344.361 32.1051C343.731 31.7211 343.235 31.1824 342.873 30.4891C342.51 29.7958 342.329 29.0064 342.329 28.1211ZM349.753 28.1371C349.753 27.4758 349.619 26.8998 349.353 26.4091C349.086 25.9184 348.723 25.5451 348.265 25.2891C347.817 25.0224 347.321 24.8891 346.777 24.8891C346.233 24.8891 345.737 25.0171 345.289 25.2731C344.841 25.5291 344.483 25.9024 344.217 26.3931C343.95 26.8838 343.817 27.4598 343.817 28.1211C343.817 28.7931 343.95 29.3798 344.217 29.8811C344.483 30.3718 344.841 30.7504 345.289 31.0171C345.737 31.2731 346.233 31.4011 346.777 31.4011C347.321 31.4011 347.817 31.2731 348.265 31.0171C348.723 30.7504 349.086 30.3718 349.353 29.8811C349.619 29.3798 349.753 28.7984 349.753 28.1371ZM361.055 32.6811C360.383 32.6811 359.78 32.5691 359.247 32.3451C358.713 32.1104 358.292 31.7904 357.983 31.3851C357.673 30.9691 357.503 30.4944 357.471 29.9611H358.975C359.017 30.3984 359.22 30.7558 359.583 31.0331C359.956 31.3104 360.441 31.4491 361.039 31.4491C361.593 31.4491 362.031 31.3264 362.351 31.0811C362.671 30.8358 362.831 30.5264 362.831 30.1531C362.831 29.7691 362.66 29.4864 362.319 29.3051C361.977 29.1131 361.449 28.9264 360.735 28.7451C360.084 28.5744 359.551 28.4038 359.135 28.2331C358.729 28.0518 358.377 27.7904 358.079 27.4491C357.791 27.0971 357.647 26.6384 357.647 26.0731C357.647 25.6251 357.78 25.2144 358.047 24.8411C358.313 24.4678 358.692 24.1744 359.183 23.9611C359.673 23.7371 360.233 23.6251 360.863 23.6251C361.833 23.6251 362.617 23.8704 363.215 24.3611C363.812 24.8518 364.132 25.5238 364.175 26.3771H362.719C362.687 25.9184 362.5 25.5504 362.159 25.2731C361.828 24.9958 361.38 24.8571 360.815 24.8571C360.292 24.8571 359.876 24.9691 359.567 25.1931C359.257 25.4171 359.103 25.7104 359.103 26.0731C359.103 26.3611 359.193 26.6011 359.375 26.7931C359.567 26.9744 359.801 27.1238 360.079 27.2411C360.367 27.3478 360.761 27.4704 361.263 27.6091C361.892 27.7798 362.404 27.9504 362.799 28.1211C363.193 28.2811 363.529 28.5264 363.807 28.8571C364.095 29.1878 364.244 29.6198 364.255 30.1531C364.255 30.6331 364.121 31.0651 363.855 31.4491C363.588 31.8331 363.209 32.1371 362.719 32.3611C362.239 32.5744 361.684 32.6811 361.055 32.6811ZM365.766 28.1211C365.766 27.2251 365.947 26.4411 366.31 25.7691C366.673 25.0864 367.169 24.5584 367.798 24.1851C368.438 23.8118 369.153 23.6251 369.942 23.6251C370.699 23.6251 371.361 23.7958 371.926 24.1371C372.502 24.4678 372.923 24.8784 373.19 25.3691V23.7691H374.662V36.6971H373.19V30.9211C372.913 31.4118 372.486 31.8278 371.91 32.1691C371.334 32.5104 370.662 32.6811 369.894 32.6811C369.126 32.6811 368.427 32.4891 367.798 32.1051C367.169 31.7211 366.673 31.1824 366.31 30.4891C365.947 29.7958 365.766 29.0064 365.766 28.1211ZM373.19 28.1371C373.19 27.4758 373.057 26.8998 372.79 26.4091C372.523 25.9184 372.161 25.5451 371.702 25.2891C371.254 25.0224 370.758 24.8891 370.214 24.8891C369.67 24.8891 369.174 25.0171 368.726 25.2731C368.278 25.5291 367.921 25.9024 367.654 26.3931C367.387 26.8838 367.254 27.4598 367.254 28.1211C367.254 28.7931 367.387 29.3798 367.654 29.8811C367.921 30.3718 368.278 30.7504 368.726 31.0171C369.174 31.2731 369.67 31.4011 370.214 31.4011C370.758 31.4011 371.254 31.2731 371.702 31.0171C372.161 30.7504 372.523 30.3718 372.79 29.8811C373.057 29.3798 373.19 28.7984 373.19 28.1371ZM384.899 23.7691V32.5371H383.443V31.2411C383.165 31.6891 382.776 32.0411 382.275 32.2971C381.784 32.5424 381.24 32.6651 380.643 32.6651C379.96 32.6651 379.347 32.5264 378.803 32.2491C378.259 31.9611 377.827 31.5344 377.507 30.9691C377.197 30.4038 377.043 29.7158 377.043 28.9051V23.7691H378.483V28.7131C378.483 29.5771 378.701 30.2438 379.139 30.7131C379.576 31.1718 380.173 31.4011 380.931 31.4011C381.709 31.4011 382.323 31.1611 382.771 30.6811C383.219 30.2011 383.443 29.5024 383.443 28.5851V23.7691H384.899ZM386.813 28.1211C386.813 27.2251 386.994 26.4411 387.357 25.7691C387.72 25.0864 388.216 24.5584 388.845 24.1851C389.485 23.8118 390.194 23.6251 390.973 23.6251C391.741 23.6251 392.408 23.7904 392.973 24.1211C393.538 24.4518 393.96 24.8678 394.237 25.3691V23.7691H395.709V32.5371H394.237V30.9051C393.949 31.4171 393.517 31.8438 392.941 32.1851C392.376 32.5158 391.714 32.6811 390.957 32.6811C390.178 32.6811 389.474 32.4891 388.845 32.1051C388.216 31.7211 387.72 31.1824 387.357 30.4891C386.994 29.7958 386.813 29.0064 386.813 28.1211ZM394.237 28.1371C394.237 27.4758 394.104 26.8998 393.837 26.4091C393.57 25.9184 393.208 25.5451 392.749 25.2891C392.301 25.0224 391.805 24.8891 391.261 24.8891C390.717 24.8891 390.221 25.0171 389.773 25.2731C389.325 25.5291 388.968 25.9024 388.701 26.3931C388.434 26.8838 388.301 27.4598 388.301 28.1211C388.301 28.7931 388.434 29.3798 388.701 29.8811C388.968 30.3718 389.325 30.7504 389.773 31.0171C390.221 31.2731 390.717 31.4011 391.261 31.4011C391.805 31.4011 392.301 31.2731 392.749 31.0171C393.208 30.7504 393.57 30.3718 393.837 29.8811C394.104 29.3798 394.237 28.7984 394.237 28.1371ZM399.626 25.1931C399.882 24.6918 400.244 24.3024 400.714 24.0251C401.194 23.7478 401.775 23.6091 402.458 23.6091V25.1131H402.074C400.442 25.1131 399.626 25.9984 399.626 27.7691V32.5371H398.17V23.7691H399.626V25.1931ZM412.138 27.8171C412.138 28.0944 412.122 28.3878 412.09 28.6971H405.082C405.136 29.5611 405.429 30.2384 405.962 30.7291C406.506 31.2091 407.162 31.4491 407.93 31.4491C408.56 31.4491 409.082 31.3051 409.498 31.0171C409.925 30.7184 410.224 30.3238 410.394 29.8331H411.962C411.728 30.6758 411.258 31.3638 410.554 31.8971C409.85 32.4198 408.976 32.6811 407.93 32.6811C407.098 32.6811 406.352 32.4944 405.69 32.1211C405.04 31.7478 404.528 31.2198 404.154 30.5371C403.781 29.8438 403.594 29.0438 403.594 28.1371C403.594 27.2304 403.776 26.4358 404.138 25.7531C404.501 25.0704 405.008 24.5478 405.658 24.1851C406.32 23.8118 407.077 23.6251 407.93 23.6251C408.762 23.6251 409.498 23.8064 410.138 24.1691C410.778 24.5318 411.269 25.0331 411.61 25.6731C411.962 26.3024 412.138 27.0171 412.138 27.8171ZM410.634 27.5131C410.634 26.9584 410.512 26.4838 410.266 26.0891C410.021 25.6838 409.685 25.3798 409.258 25.1771C408.842 24.9638 408.378 24.8571 407.866 24.8571C407.13 24.8571 406.501 25.0918 405.978 25.5611C405.466 26.0304 405.173 26.6811 405.098 27.5131H410.634ZM417.782 28.1211C417.782 27.2251 417.963 26.4411 418.326 25.7691C418.688 25.0864 419.184 24.5584 419.814 24.1851C420.454 23.8118 421.163 23.6251 421.942 23.6251C422.71 23.6251 423.376 23.7904 423.942 24.1211C424.507 24.4518 424.928 24.8678 425.206 25.3691V23.7691H426.678V32.5371H425.206V30.9051C424.918 31.4171 424.486 31.8438 423.91 32.1851C423.344 32.5158 422.683 32.6811 421.926 32.6811C421.147 32.6811 420.443 32.4891 419.814 32.1051C419.184 31.7211 418.688 31.1824 418.326 30.4891C417.963 29.7958 417.782 29.0064 417.782 28.1211ZM425.206 28.1371C425.206 27.4758 425.072 26.8998 424.806 26.4091C424.539 25.9184 424.176 25.5451 423.718 25.2891C423.27 25.0224 422.774 24.8891 422.23 24.8891C421.686 24.8891 421.19 25.0171 420.742 25.2731C420.294 25.5291 419.936 25.9024 419.67 26.3931C419.403 26.8838 419.27 27.4598 419.27 28.1211C419.27 28.7931 419.403 29.3798 419.67 29.8811C419.936 30.3718 420.294 30.7504 420.742 31.0171C421.19 31.2731 421.686 31.4011 422.23 31.4011C422.774 31.4011 423.27 31.2731 423.718 31.0171C424.176 30.7504 424.539 30.3718 424.806 29.8811C425.072 29.3798 425.206 28.7984 425.206 28.1371ZM432.242 32.6811C431.57 32.6811 430.968 32.5691 430.434 32.3451C429.901 32.1104 429.48 31.7904 429.17 31.3851C428.861 30.9691 428.69 30.4944 428.658 29.9611H430.162C430.205 30.3984 430.408 30.7558 430.77 31.0331C431.144 31.3104 431.629 31.4491 432.226 31.4491C432.781 31.4491 433.218 31.3264 433.538 31.0811C433.858 30.8358 434.018 30.5264 434.018 30.1531C434.018 29.7691 433.848 29.4864 433.506 29.3051C433.165 29.1131 432.637 28.9264 431.922 28.7451C431.272 28.5744 430.738 28.4038 430.322 28.2331C429.917 28.0518 429.565 27.7904 429.266 27.4491C428.978 27.0971 428.834 26.6384 428.834 26.0731C428.834 25.6251 428.968 25.2144 429.234 24.8411C429.501 24.4678 429.88 24.1744 430.37 23.9611C430.861 23.7371 431.421 23.6251 432.05 23.6251C433.021 23.6251 433.805 23.8704 434.402 24.3611C435 24.8518 435.32 25.5238 435.362 26.3771H433.906C433.874 25.9184 433.688 25.5504 433.346 25.2731C433.016 24.9958 432.568 24.8571 432.002 24.8571C431.48 24.8571 431.064 24.9691 430.754 25.1931C430.445 25.4171 430.29 25.7104 430.29 26.0731C430.29 26.3611 430.381 26.6011 430.562 26.7931C430.754 26.9744 430.989 27.1238 431.266 27.2411C431.554 27.3478 431.949 27.4704 432.45 27.6091C433.08 27.7798 433.592 27.9504 433.986 28.1211C434.381 28.2811 434.717 28.5264 434.994 28.8571C435.282 29.1878 435.432 29.6198 435.442 30.1531C435.442 30.6331 435.309 31.0651 435.042 31.4491C434.776 31.8331 434.397 32.1371 433.906 32.3611C433.426 32.5744 432.872 32.6811 432.242 32.6811ZM437.962 32.6331C437.684 32.6331 437.45 32.5371 437.258 32.3451C437.066 32.1531 436.97 31.9184 436.97 31.6411C436.97 31.3638 437.066 31.1291 437.258 30.9371C437.45 30.7451 437.684 30.6491 437.962 30.6491C438.228 30.6491 438.452 30.7451 438.634 30.9371C438.826 31.1291 438.922 31.3638 438.922 31.6411C438.922 31.9184 438.826 32.1531 438.634 32.3451C438.452 32.5371 438.228 32.6331 437.962 32.6331ZM441.321 32.6331C441.044 32.6331 440.809 32.5371 440.617 32.3451C440.425 32.1531 440.329 31.9184 440.329 31.6411C440.329 31.3638 440.425 31.1291 440.617 30.9371C440.809 30.7451 441.044 30.6491 441.321 30.6491C441.588 30.6491 441.812 30.7451 441.993 30.9371C442.185 31.1291 442.281 31.3638 442.281 31.6411C442.281 31.9184 442.185 32.1531 441.993 32.3451C441.812 32.5371 441.588 32.6331 441.321 32.6331ZM444.68 32.6331C444.403 32.6331 444.168 32.5371 443.976 32.3451C443.784 32.1531 443.688 31.9184 443.688 31.6411C443.688 31.3638 443.784 31.1291 443.976 30.9371C444.168 30.7451 444.403 30.6491 444.68 30.6491C444.947 30.6491 445.171 30.7451 445.352 30.9371C445.544 31.1291 445.64 31.3638 445.64 31.6411C445.64 31.9184 445.544 32.1531 445.352 32.3451C445.171 32.5371 444.947 32.6331 444.68 32.6331Z" fill="#1D1B19"/>
</svg>
