<svg width="50" height="50" viewBox="0 0 50 50" fill="none" xmlns="http://www.w3.org/2000/svg">
<g id="Success Rate">
<path id="Vector" d="M34.3754 39.0625H15.6254M34.3754 39.0625C37.8271 39.0625 40.6254 41.8607 40.6254 45.3125H9.37535C9.37535 41.8607 12.1736 39.0625 15.6254 39.0625M34.3754 39.0625V32.0312C34.3754 30.7368 33.326 29.6875 32.0316 29.6875H30.2157M15.6254 39.0625V32.0312C15.6254 30.7368 16.6747 29.6875 17.9691 29.6875H19.785M30.2157 29.6875H19.785M30.2157 29.6875C29.0754 27.7163 28.3534 25.4729 28.171 23.0786M19.785 29.6875C20.9253 27.7163 21.6473 25.4729 21.8297 23.0786M10.9379 8.82574C8.8914 9.12333 6.86568 9.4849 4.86279 9.90835C5.80094 15.4656 10.4065 19.7767 16.1038 20.2661M10.9379 8.82574V9.375C10.9379 13.7662 12.9506 17.6873 16.1038 20.2661M10.9379 8.82574V5.66853C15.5325 5.02189 20.2274 4.6875 25.0004 4.6875C29.7733 4.6875 34.4682 5.02189 39.0629 5.66853V8.82574M16.1038 20.2661C17.7446 21.608 19.6942 22.5865 21.8297 23.0786M39.0629 8.82574V9.375C39.0629 13.7662 37.0501 17.6873 33.8969 20.2661M39.0629 8.82574C41.1093 9.12334 43.135 9.48491 45.1379 9.90836C44.1998 15.4656 39.5943 19.7767 33.8969 20.2661M33.8969 20.2661C32.2561 21.608 30.3065 22.5865 28.171 23.0786M28.171 23.0786C27.152 23.3134 26.0907 23.4375 25.0004 23.4375C23.91 23.4375 22.8487 23.3134 21.8297 23.0786" stroke="#1D1B19" stroke-width="2" stroke-linecap="round" stroke-linejoin="round"/>
<path id="Star 41" d="M24.9998 8.33301L26.7142 11.8067L30.5477 12.3637L27.7738 15.0676L28.4286 18.8856L24.9998 17.083L21.5711 18.8856L22.2259 15.0676L19.452 12.3637L23.2855 11.8067L24.9998 8.33301Z" stroke="url(#paint0_linear_13154_42026)" stroke-width="2"/>
</g>
<defs>
<linearGradient id="paint0_linear_13154_42026" x1="24.9998" y1="8.33301" x2="24.9998" y2="19.9997" gradientUnits="userSpaceOnUse">
<stop stop-color="#FF7542"/>
<stop offset="0.505208" stop-color="#FE4501"/>
</linearGradient>
</defs>
</svg>
