<svg width="81" height="19" viewBox="0 0 81 19" fill="none" xmlns="http://www.w3.org/2000/svg">
<path d="M13.3197 14.88V18.096H1.07973L0.503733 16.08C1.25573 15.408 1.80773 14.696 2.15973 13.944C2.51173 13.192 2.68773 12.264 2.68773 11.16V11.112H0.0717332V8.352H2.01573C1.71173 7.264 1.55973 6.264 1.55973 5.352C1.55973 4.264 1.79973 3.32 2.27973 2.52C2.77573 1.72 3.46373 1.112 4.34373 0.696C5.22373 0.279999 6.23173 0.0719991 7.36773 0.0719991C9.22373 0.0719991 10.6477 0.575999 11.6397 1.584C12.6317 2.592 13.1597 3.904 13.2237 5.52H9.45573C9.42373 4.88 9.24773 4.376 8.92773 4.008C8.60773 3.624 8.11973 3.432 7.46373 3.432C6.82373 3.432 6.32773 3.632 5.97573 4.032C5.62373 4.416 5.44773 4.992 5.44773 5.76C5.44773 6.128 5.48773 6.504 5.56773 6.888C5.66373 7.272 5.79973 7.76 5.97573 8.352H10.3197V11.112H6.57573V11.184C6.57573 11.808 6.44773 12.456 6.19173 13.128C5.93573 13.8 5.53573 14.384 4.99173 14.88H13.3197ZM28.5378 4.056H21.0498V7.368C21.3698 7.016 21.8178 6.728 22.3938 6.504C22.9698 6.28 23.5938 6.168 24.2658 6.168C25.4658 6.168 26.4578 6.44 27.2418 6.984C28.0418 7.528 28.6258 8.232 28.9938 9.096C29.3618 9.96 29.5458 10.896 29.5458 11.904C29.5458 13.776 29.0178 15.264 27.9618 16.368C26.9058 17.456 25.4178 18 23.4978 18C22.2178 18 21.1058 17.784 20.1618 17.352C19.2178 16.904 18.4898 16.288 17.9778 15.504C17.4658 14.72 17.1858 13.816 17.1378 12.792H21.1458C21.2418 13.288 21.4738 13.704 21.8418 14.04C22.2098 14.36 22.7138 14.52 23.3538 14.52C24.1058 14.52 24.6658 14.28 25.0338 13.8C25.4018 13.32 25.5858 12.68 25.5858 11.88C25.5858 11.096 25.3938 10.496 25.0098 10.08C24.6258 9.664 24.0658 9.456 23.3298 9.456C22.7858 9.456 22.3378 9.592 21.9858 9.864C21.6338 10.12 21.4018 10.464 21.2898 10.896H17.3298V0.456H28.5378V4.056ZM36.2272 12.864C36.4672 14.128 37.2032 14.76 38.4352 14.76C39.2832 14.76 39.8832 14.384 40.2352 13.632C40.5872 12.88 40.7632 11.656 40.7632 9.96C40.4112 10.456 39.9312 10.84 39.3232 11.112C38.7152 11.384 38.0352 11.52 37.2832 11.52C36.2592 11.52 35.3472 11.312 34.5472 10.896C33.7472 10.464 33.1152 9.832 32.6512 9C32.2032 8.152 31.9792 7.128 31.9792 5.928C31.9792 4.744 32.2192 3.712 32.6992 2.832C33.1952 1.952 33.8912 1.272 34.7872 0.792C35.6992 0.311999 36.7712 0.0719991 38.0032 0.0719991C40.3712 0.0719991 42.0272 0.807999 42.9712 2.28C43.9152 3.752 44.3872 5.92 44.3872 8.784C44.3872 10.864 44.1952 12.584 43.8112 13.944C43.4432 15.288 42.8112 16.312 41.9152 17.016C41.0352 17.72 39.8272 18.072 38.2912 18.072C37.0752 18.072 36.0352 17.832 35.1712 17.352C34.3232 16.872 33.6672 16.24 33.2032 15.456C32.7552 14.672 32.4992 13.808 32.4352 12.864H36.2272ZM38.2192 8.28C38.8912 8.28 39.4272 8.08 39.8272 7.68C40.2272 7.264 40.4272 6.704 40.4272 6C40.4272 5.232 40.2192 4.64 39.8032 4.224C39.3872 3.808 38.8272 3.6 38.1232 3.6C37.4192 3.6 36.8592 3.816 36.4432 4.248C36.0432 4.664 35.8432 5.24 35.8432 5.976C35.8432 6.664 36.0432 7.224 36.4432 7.656C36.8592 8.072 37.4512 8.28 38.2192 8.28Z" fill="#2420FA"/>
<path d="M50.8248 0.636L47.5848 14.172H45.9408L49.1808 0.636H50.8248ZM59.1807 3.624L56.3487 9.084V12H54.6687V9.084L51.8247 3.624H53.7207L55.5207 7.452L57.3087 3.624H59.1807ZM66.6896 8.532C66.6896 8.772 66.6736 8.988 66.6416 9.18H61.7816C61.8216 9.66 61.9896 10.036 62.2856 10.308C62.5816 10.58 62.9456 10.716 63.3776 10.716C64.0016 10.716 64.4456 10.448 64.7096 9.912H66.5216C66.3296 10.552 65.9616 11.08 65.4176 11.496C64.8736 11.904 64.2056 12.108 63.4136 12.108C62.7736 12.108 62.1976 11.968 61.6856 11.688C61.1816 11.4 60.7856 10.996 60.4976 10.476C60.2176 9.956 60.0776 9.356 60.0776 8.676C60.0776 7.988 60.2176 7.384 60.4976 6.864C60.7776 6.344 61.1696 5.944 61.6736 5.664C62.1776 5.384 62.7576 5.244 63.4136 5.244C64.0456 5.244 64.6096 5.38 65.1056 5.652C65.6096 5.924 65.9976 6.312 66.2696 6.816C66.5496 7.312 66.6896 7.884 66.6896 8.532ZM64.9496 8.052C64.9416 7.62 64.7856 7.276 64.4816 7.02C64.1776 6.756 63.8056 6.624 63.3656 6.624C62.9496 6.624 62.5976 6.752 62.3096 7.008C62.0296 7.256 61.8576 7.604 61.7936 8.052H64.9496ZM67.8439 8.652C67.8439 7.98 67.9759 7.384 68.2399 6.864C68.5119 6.344 68.8759 5.944 69.3319 5.664C69.7959 5.384 70.3119 5.244 70.8799 5.244C71.3759 5.244 71.8079 5.344 72.1759 5.544C72.5519 5.744 72.8519 5.996 73.0759 6.3V5.352H74.7679V12H73.0759V11.028C72.8599 11.34 72.5599 11.6 72.1759 11.808C71.7999 12.008 71.3639 12.108 70.8679 12.108C70.3079 12.108 69.7959 11.964 69.3319 11.676C68.8759 11.388 68.5119 10.984 68.2399 10.464C67.9759 9.936 67.8439 9.332 67.8439 8.652ZM73.0759 8.676C73.0759 8.268 72.9959 7.92 72.8359 7.632C72.6759 7.336 72.4599 7.112 72.1879 6.96C71.9159 6.8 71.6239 6.72 71.3119 6.72C70.9999 6.72 70.7119 6.796 70.4479 6.948C70.1839 7.1 69.9679 7.324 69.7999 7.62C69.6399 7.908 69.5599 8.252 69.5599 8.652C69.5599 9.052 69.6399 9.404 69.7999 9.708C69.9679 10.004 70.1839 10.232 70.4479 10.392C70.7199 10.552 71.0079 10.632 71.3119 10.632C71.6239 10.632 71.9159 10.556 72.1879 10.404C72.4599 10.244 72.6759 10.02 72.8359 9.732C72.9959 9.436 73.0759 9.084 73.0759 8.676ZM78.4487 6.384C78.6647 6.032 78.9447 5.756 79.2887 5.556C79.6407 5.356 80.0407 5.256 80.4887 5.256V7.02H80.0447C79.5167 7.02 79.1167 7.144 78.8447 7.392C78.5807 7.64 78.4487 8.072 78.4487 8.688V12H76.7687V5.352H78.4487V6.384Z" fill="#545454"/>
</svg>
